<svg width="1400" height="990" viewBox="0 0 1400 990" fill="none" xmlns="http://www.w3.org/2000/svg">
<path d="M1011.42 432.263V664.755H965.092V543.453V422.15L976.675 413.482H1000.32L1011.42 432.263Z" fill="url(#paint0_radial_185_4129)"/>
<path d="M1011.42 432.263V664.755H1005.68V432.951L1000.32 413.482L1011.42 432.263Z" fill="url(#paint1_radial_185_4129)"/>
<path d="M812.095 391.329H788.448L776.865 399.997V664.754H823.196V402.887L812.095 391.329Z" fill="url(#paint2_radial_185_4129)"/>
<path d="M795.149 391.328L783.566 399.996V664.756H776.865V399.996L788.448 391.328H795.149Z" fill="url(#paint3_radial_185_4129)"/>
<path d="M1021.99 344.135V371.744L1016.2 379.288H773.27L767.156 368.213V345.74L773.755 333.059H1013.3L1021.99 344.135Z" fill="url(#paint4_radial_185_4129)"/>
<path d="M894.571 429.744L918.181 461.239" stroke="#B74C69" stroke-width="5" stroke-miterlimit="10"/>
<path d="M941.795 492.734L918.181 524.228" stroke="#B74C69" stroke-width="5" stroke-miterlimit="10"/>
<path d="M894.571 429.744L870.96 461.239" stroke="#B74C69" stroke-width="5" stroke-miterlimit="10"/>
<path d="M918.181 461.239L941.795 492.734" stroke="#B74C69" stroke-width="5" stroke-miterlimit="10"/>
<path d="M870.96 461.239L847.346 492.734" stroke="#B74C69" stroke-width="5" stroke-miterlimit="10"/>
<path d="M847.346 492.734L870.96 524.228" stroke="#B74C69" stroke-width="5" stroke-miterlimit="10"/>
<path d="M918.181 461.239L894.571 492.734" stroke="#B74C69" stroke-width="5" stroke-miterlimit="10"/>
<path d="M870.96 461.239L894.571 492.734" stroke="#B74C69" stroke-width="5" stroke-miterlimit="10"/>
<path d="M918.181 524.229L894.571 555.723" stroke="#B74C69" stroke-width="5" stroke-miterlimit="10"/>
<path d="M870.96 524.229L894.571 555.723" stroke="#B74C69" stroke-width="5" stroke-miterlimit="10"/>
<path d="M847.346 555.723L894.571 555.723" stroke="#B74C69" stroke-width="5" stroke-miterlimit="10"/>
<path d="M894.571 555.723L941.795 555.723" stroke="#B74C69" stroke-width="5" stroke-miterlimit="10"/>
<path d="M894.571 555.724V602.843" stroke="#B74C69" stroke-width="5" stroke-miterlimit="10"/>
<path d="M894.571 449.406C905.454 449.406 914.277 440.603 914.277 429.744C914.277 418.885 905.454 410.082 894.571 410.082C883.688 410.082 874.865 418.885 874.865 429.744C874.865 440.603 883.688 449.406 894.571 449.406Z" fill="url(#paint5_radial_185_4129)"/>
<path d="M918.587 481.324C929.47 481.324 938.293 472.521 938.293 461.662C938.293 450.803 929.47 442 918.587 442C907.704 442 898.881 450.803 898.881 461.662C898.881 472.521 907.704 481.324 918.587 481.324Z" fill="url(#paint6_radial_185_4129)"/>
<path d="M895.619 512.574C906.502 512.574 915.325 503.771 915.325 492.912C915.325 482.053 906.502 473.25 895.619 473.25C884.737 473.25 875.914 482.053 875.914 492.912C875.914 503.771 884.737 512.574 895.619 512.574Z" fill="url(#paint7_radial_185_4129)"/>
<path d="M869.519 482.366C880.402 482.366 889.225 473.563 889.225 462.704C889.225 451.845 880.402 443.042 869.519 443.042C858.636 443.042 849.813 451.845 849.813 462.704C849.813 473.563 858.636 482.366 869.519 482.366Z" fill="url(#paint8_radial_185_4129)"/>
<path d="M940.511 513.616C951.394 513.616 960.217 504.813 960.217 493.954C960.217 483.095 951.394 474.292 940.511 474.292C929.628 474.292 920.805 483.095 920.805 493.954C920.805 504.813 929.628 513.616 940.511 513.616Z" fill="url(#paint9_radial_185_4129)"/>
<path d="M894.575 574.033C905.458 574.033 914.281 565.23 914.281 554.371C914.281 543.512 905.458 534.708 894.575 534.708C883.693 534.708 874.87 543.512 874.87 554.371C874.87 565.23 883.693 574.033 894.575 574.033Z" fill="url(#paint10_radial_185_4129)"/>
<path d="M894.575 622.991C905.458 622.991 914.281 614.188 914.281 603.329C914.281 592.47 905.458 583.667 894.575 583.667C883.693 583.667 874.87 592.47 874.87 603.329C874.87 614.188 883.693 622.991 894.575 622.991Z" fill="url(#paint11_radial_185_4129)"/>
<path d="M894.571 440.077C900.291 440.077 904.925 435.451 904.925 429.744C904.925 424.038 900.291 419.412 894.571 419.412C888.85 419.412 884.217 424.038 884.217 429.744C884.217 435.451 888.85 440.077 894.571 440.077Z" fill="url(#paint12_radial_185_4129)"/>
<path d="M918.587 471.995C924.307 471.995 928.941 467.369 928.941 461.662C928.941 455.956 924.307 451.33 918.587 451.33C912.867 451.33 908.233 455.956 908.233 461.662C908.233 467.369 912.867 471.995 918.587 471.995Z" fill="url(#paint13_radial_185_4129)"/>
<path d="M895.619 503.245C901.339 503.245 905.973 498.619 905.973 492.912C905.973 487.206 901.339 482.58 895.619 482.58C889.899 482.58 885.265 487.206 885.265 492.912C885.265 498.619 889.899 503.245 895.619 503.245Z" fill="url(#paint14_radial_185_4129)"/>
<path d="M869.519 473.037C875.239 473.037 879.873 468.411 879.873 462.704C879.873 456.998 875.239 452.372 869.519 452.372C863.799 452.372 859.165 456.998 859.165 462.704C859.165 468.411 863.799 473.037 869.519 473.037Z" fill="url(#paint15_radial_185_4129)"/>
<path d="M940.511 504.287C946.231 504.287 950.865 499.661 950.865 493.954C950.865 488.248 946.231 483.622 940.511 483.622C934.791 483.622 930.157 488.248 930.157 493.954C930.157 499.661 934.791 504.287 940.511 504.287Z" fill="url(#paint16_radial_185_4129)"/>
<path d="M894.575 564.703C900.295 564.703 904.929 560.077 904.929 554.371C904.929 548.664 900.295 544.038 894.575 544.038C888.855 544.038 884.221 548.664 884.221 554.371C884.221 560.077 888.855 564.703 894.575 564.703Z" fill="url(#paint17_radial_185_4129)"/>
<path d="M894.575 613.662C900.295 613.662 904.929 609.036 904.929 603.329C904.929 597.623 900.295 592.997 894.575 592.997C888.855 592.997 884.221 597.623 884.221 603.329C884.221 609.036 888.855 613.662 894.575 613.662Z" fill="url(#paint18_radial_185_4129)"/>
<path d="M847.346 503.066C853.067 503.066 857.701 498.44 857.701 492.733C857.701 487.027 853.067 482.401 847.346 482.401C841.63 482.401 836.992 487.027 836.992 492.733C836.992 498.44 841.63 503.066 847.346 503.066Z" fill="url(#paint19_radial_185_4129)"/>
<path d="M871.373 534.561C877.089 534.561 881.727 529.935 881.727 524.229C881.727 518.522 877.089 513.896 871.373 513.896C865.652 513.896 861.015 518.522 861.015 524.229C861.015 529.935 865.652 534.561 871.373 534.561Z" fill="url(#paint20_radial_185_4129)"/>
<path d="M941.795 566.056C947.512 566.056 952.149 561.43 952.149 555.723C952.149 550.017 947.512 545.391 941.795 545.391C936.075 545.391 931.438 550.017 931.438 555.723C931.438 561.43 936.075 566.056 941.795 566.056Z" fill="url(#paint21_radial_185_4129)"/>
<path d="M847.346 566.056C853.067 566.056 857.701 561.43 857.701 555.723C857.701 550.017 853.067 545.391 847.346 545.391C841.63 545.391 836.992 550.017 836.992 555.723C836.992 561.43 841.63 566.056 847.346 566.056Z" fill="url(#paint22_radial_185_4129)"/>
<path d="M823.196 402.888V664.756H802.586V402.888L791.485 391.328H812.095L823.196 402.888Z" fill="url(#paint23_radial_185_4129)"/>
<path d="M990.081 413.482L978.498 422.15V664.755H965.092V422.15L976.675 413.482H990.081Z" fill="url(#paint24_radial_185_4129)"/>
<path d="M1021.99 358.368V371.744L1016.2 379.288H773.27L767.156 368.213V354.836L773.27 365.911H1016.2L1021.99 358.368Z" fill="url(#paint25_radial_185_4129)"/>
<path d="M1021.99 344.135V358.367L1006.49 340.095H781.302L776.865 347.416L772.672 365.911L776.078 379.288H773.27L767.156 368.213V345.74L773.755 333.059H1013.3L1021.99 344.135Z" fill="url(#paint26_radial_185_4129)"/>
<path d="M249.479 410.28L214.322 441.374L179.166 410.28L214.322 317.202L249.479 410.28Z" fill="url(#paint27_linear_185_4129)"/>
<path opacity="0.2" d="M632.089 581.547L618.953 593.165L605.817 581.547L618.953 546.767L632.089 581.547Z" fill="url(#paint28_radial_185_4129)"/>
<path opacity="0.4" d="M586.884 563.01L564.616 582.706L542.347 563.01L564.616 504.052L586.884 563.01Z" fill="url(#paint29_radial_185_4129)"/>
<path opacity="0.3" d="M1191.57 556.625L1170.5 575.259L1149.43 556.625L1170.5 500.844L1191.57 556.625Z" fill="url(#paint30_radial_185_4129)"/>
<path d="M186.302 445.492L355.469 590.614H643.927L767.156 654.663H1027.93L1133.22 583.872H1188.82L1255.48 528.25H1400V766.694H0.121338V429.744L186.302 445.492Z" fill="url(#paint31_radial_185_4129)"/>
<path opacity="0.3" d="M374.427 766.694L802.586 654.663H767.156L704.663 622.181L210.065 590.11L0.121406 583.182L0 766.694H374.427Z" fill="url(#paint32_linear_185_4129)"/>
<path opacity="0.3" d="M1400 766.694L978.498 654.663H1027.93L1067.5 628.06L1231.32 583.368H1260.31L1382.86 528.252L1400 528.25V766.694Z" fill="url(#paint33_linear_185_4129)"/>
<path d="M464.844 766.694H0V480.939L198.947 507.333L464.844 766.694Z" fill="url(#paint34_linear_185_4129)"/>
<path d="M526.608 766.694H380.202L453.407 548.703L526.608 766.694Z" fill="url(#paint35_linear_185_4129)"/>
<path d="M686.791 766.694H611.25L649.02 653.738L686.791 766.694Z" fill="url(#paint36_linear_185_4129)"/>
<path d="M1400 537.393V766.695H1274.94L1278.19 758.117L1295.97 711.039L1380.78 486.504L1400 537.393Z" fill="url(#paint37_linear_185_4129)"/>
<path d="M1304.84 734.54L1278.19 758.117L1268.49 766.695H1213.93L1177.57 734.54L1241.21 566.056L1295.97 711.039L1304.84 734.54Z" fill="url(#paint38_linear_185_4129)"/>
<path d="M1363.87 467.409L1316.73 509.103L1269.59 467.409L1316.73 342.597L1363.87 467.409Z" fill="url(#paint39_linear_185_4129)"/>
<path d="M1294.74 467.409L1316.73 509.102L1269.59 467.409L1316.73 342.598L1294.74 467.409Z" fill="url(#paint40_linear_185_4129)"/>
<path d="M897.721 362.851C897.22 362.851 896.762 362.678 896.526 362.401L887.838 352.158C887.703 351.999 887.657 351.824 887.703 351.651C887.768 351.406 888.007 351.192 888.358 351.065C888.563 350.991 888.796 350.952 889.031 350.952C889.533 350.952 889.991 351.125 890.227 351.403L890.576 351.814L890.69 351.948L890.804 351.814L894.59 347.352C894.6 347.34 894.611 347.328 894.622 347.316L894.707 347.219L894.624 347.121L891.43 343.355C891.296 343.197 891.249 343.022 891.295 342.85C891.36 342.605 891.599 342.391 891.951 342.263C892.157 342.189 892.389 342.149 892.624 342.149C893.126 342.149 893.584 342.323 893.82 342.601L902.507 352.842C902.641 353.001 902.689 353.176 902.643 353.349C902.577 353.594 902.338 353.808 901.986 353.935C901.78 354.01 901.548 354.049 901.313 354.049C900.811 354.049 900.353 353.876 900.118 353.598L900.071 353.543L899.959 353.411L899.844 353.541L895.946 357.947L895.86 358.043L895.944 358.142L898.916 361.645C899.05 361.803 899.096 361.979 899.05 362.152C898.985 362.397 898.745 362.61 898.395 362.737C898.19 362.811 897.957 362.851 897.721 362.851ZM896.711 349.582L896.597 349.712L892.699 354.119L892.613 354.215L892.697 354.314L893.825 355.644L893.939 355.778L894.053 355.644L897.861 351.154C897.866 351.15 897.87 351.145 897.874 351.139L897.951 351.043L897.871 350.95L896.823 349.714L896.711 349.582Z" fill="#FF97A0"/>
<path d="M897.721 362.702C897.939 362.701 898.155 362.665 898.344 362.596C898.644 362.488 898.854 362.307 898.906 362.113C898.939 361.988 898.904 361.862 898.801 361.741L895.662 358.041L899.961 353.183L900.231 353.501C900.437 353.743 900.861 353.9 901.313 353.9C901.531 353.9 901.746 353.864 901.935 353.795C902.236 353.686 902.446 353.505 902.498 353.31C902.531 353.185 902.496 353.06 902.392 352.938L893.706 342.697C893.501 342.455 893.076 342.298 892.624 342.298C892.406 342.298 892.192 342.335 892.002 342.403C891.701 342.512 891.491 342.694 891.439 342.888C891.406 343.013 891.442 343.137 891.545 343.259L894.905 347.221L894.734 347.414C894.724 347.426 894.714 347.437 894.704 347.449L890.69 352.179L890.113 351.499C889.907 351.257 889.483 351.101 889.031 351.101C888.813 351.101 888.598 351.137 888.41 351.205C888.11 351.314 887.899 351.495 887.848 351.689C887.814 351.814 887.85 351.94 887.952 352.062L896.64 362.304C896.845 362.545 897.269 362.702 897.721 362.702ZM896.714 349.354L898.145 351.041L897.991 351.232C897.985 351.24 897.979 351.247 897.972 351.254L893.939 356.009L892.415 354.213L892.586 354.02L896.714 349.354ZM897.721 363C897.195 363 896.685 362.818 896.412 362.497L887.724 352.255C887.323 351.782 887.584 351.187 888.307 350.925C889.031 350.664 889.941 350.835 890.341 351.306L890.69 351.717L894.476 347.255C894.487 347.242 894.499 347.229 894.51 347.217L891.316 343.452C890.915 342.98 891.176 342.385 891.9 342.123C892.622 341.861 893.534 342.031 893.934 342.504L902.621 352.745C903.023 353.218 902.761 353.813 902.037 354.075C901.315 354.337 900.403 354.167 900.003 353.694L899.957 353.639L896.058 358.045L899.029 361.548C899.43 362.021 899.168 362.616 898.446 362.877C898.216 362.96 897.967 363 897.721 363ZM896.709 349.81L892.811 354.217L893.939 355.547L897.75 351.054C897.753 351.051 897.755 351.049 897.757 351.046L896.709 349.81Z" fill="#FF97A0"/>
<defs>
<radialGradient id="paint0_radial_185_4129" cx="0" cy="0" r="1" gradientUnits="userSpaceOnUse" gradientTransform="translate(925.134 518.792) scale(248.049 247.505)">
<stop stop-color="#9A1438"/>
<stop offset="1" stop-color="#170105"/>
</radialGradient>
<radialGradient id="paint1_radial_185_4129" cx="0" cy="0" r="1" gradientUnits="userSpaceOnUse" gradientTransform="translate(731.475 515.281) scale(432.504 431.556)">
<stop stop-color="#510000"/>
<stop offset="1" stop-color="#290008"/>
</radialGradient>
<radialGradient id="paint2_radial_185_4129" cx="0" cy="0" r="1" gradientUnits="userSpaceOnUse" gradientTransform="translate(886.087 523.474) scale(253.441 252.885)">
<stop stop-color="#510005"/>
<stop offset="1" stop-color="#080117"/>
</radialGradient>
<radialGradient id="paint3_radial_185_4129" cx="0" cy="0" r="1" gradientUnits="userSpaceOnUse" gradientTransform="translate(1076.03 511.434) scale(445.287 444.31)">
<stop stop-color="#510000"/>
<stop offset="1" stop-color="#1A0005"/>
</radialGradient>
<radialGradient id="paint4_radial_185_4129" cx="0" cy="0" r="1" gradientUnits="userSpaceOnUse" gradientTransform="translate(898.559 480.408) scale(327.786 327.067)">
<stop stop-color="#631111"/>
<stop offset="1" stop-color="#080117"/>
</radialGradient>
<radialGradient id="paint5_radial_185_4129" cx="0" cy="0" r="1" gradientUnits="userSpaceOnUse" gradientTransform="translate(894.571 429.744) scale(17.5102 17.4718)">
<stop stop-color="#E13251"/>
<stop offset="1" stop-color="#CA0079" stop-opacity="0"/>
</radialGradient>
<radialGradient id="paint6_radial_185_4129" cx="0" cy="0" r="1" gradientUnits="userSpaceOnUse" gradientTransform="translate(918.587 461.662) scale(17.5102 17.4718)">
<stop stop-color="#E13251"/>
<stop offset="1" stop-color="#CA0079" stop-opacity="0"/>
</radialGradient>
<radialGradient id="paint7_radial_185_4129" cx="0" cy="0" r="1" gradientUnits="userSpaceOnUse" gradientTransform="translate(895.619 492.912) scale(17.5102 17.4718)">
<stop stop-color="#E13251"/>
<stop offset="1" stop-color="#CA0079" stop-opacity="0"/>
</radialGradient>
<radialGradient id="paint8_radial_185_4129" cx="0" cy="0" r="1" gradientUnits="userSpaceOnUse" gradientTransform="translate(869.519 462.704) scale(17.5102 17.4718)">
<stop stop-color="#E13251"/>
<stop offset="1" stop-color="#CA0079" stop-opacity="0"/>
</radialGradient>
<radialGradient id="paint9_radial_185_4129" cx="0" cy="0" r="1" gradientUnits="userSpaceOnUse" gradientTransform="translate(940.511 493.954) scale(17.5102 17.4718)">
<stop stop-color="#E13251"/>
<stop offset="1" stop-color="#CA0079" stop-opacity="0"/>
</radialGradient>
<radialGradient id="paint10_radial_185_4129" cx="0" cy="0" r="1" gradientUnits="userSpaceOnUse" gradientTransform="translate(894.575 554.371) scale(17.5102 17.4718)">
<stop stop-color="#E13251"/>
<stop offset="1" stop-color="#CA0079" stop-opacity="0"/>
</radialGradient>
<radialGradient id="paint11_radial_185_4129" cx="0" cy="0" r="1" gradientUnits="userSpaceOnUse" gradientTransform="translate(894.575 603.329) scale(17.5102 17.4718)">
<stop stop-color="#E13251"/>
<stop offset="1" stop-color="#CA0079" stop-opacity="0"/>
</radialGradient>
<radialGradient id="paint12_radial_185_4129" cx="0" cy="0" r="1" gradientUnits="userSpaceOnUse" gradientTransform="translate(994.182 686.495) scale(367.861 367.054)">
<stop stop-color="#F6BEB4"/>
<stop offset="0.183" stop-color="#F39FA8"/>
<stop offset="0.5916" stop-color="#F1879E"/>
<stop offset="1" stop-color="#EF7998"/>
</radialGradient>
<radialGradient id="paint13_radial_185_4129" cx="0" cy="0" r="1" gradientUnits="userSpaceOnUse" gradientTransform="translate(1018.2 718.413) scale(367.861 367.054)">
<stop stop-color="#F6BEB4"/>
<stop offset="0.183" stop-color="#F39FA8"/>
<stop offset="0.5916" stop-color="#F1879E"/>
<stop offset="1" stop-color="#EF7998"/>
</radialGradient>
<radialGradient id="paint14_radial_185_4129" cx="0" cy="0" r="1" gradientUnits="userSpaceOnUse" gradientTransform="translate(995.231 749.663) scale(367.861 367.054)">
<stop stop-color="#F6BEB4"/>
<stop offset="0.183" stop-color="#F39FA8"/>
<stop offset="0.5916" stop-color="#F1879E"/>
<stop offset="1" stop-color="#EF7998"/>
</radialGradient>
<radialGradient id="paint15_radial_185_4129" cx="0" cy="0" r="1" gradientUnits="userSpaceOnUse" gradientTransform="translate(969.131 719.455) scale(367.861 367.054)">
<stop stop-color="#F6BEB4"/>
<stop offset="0.183" stop-color="#F39FA8"/>
<stop offset="0.5916" stop-color="#F1879E"/>
<stop offset="1" stop-color="#EF7998"/>
</radialGradient>
<radialGradient id="paint16_radial_185_4129" cx="0" cy="0" r="1" gradientUnits="userSpaceOnUse" gradientTransform="translate(1040.12 750.705) scale(367.861 367.054)">
<stop stop-color="#F6BEB4"/>
<stop offset="0.183" stop-color="#F39FA8"/>
<stop offset="0.5916" stop-color="#F1879E"/>
<stop offset="1" stop-color="#EF7998"/>
</radialGradient>
<radialGradient id="paint17_radial_185_4129" cx="0" cy="0" r="1" gradientUnits="userSpaceOnUse" gradientTransform="translate(994.187 811.121) scale(367.861 367.054)">
<stop stop-color="#F6BEB4"/>
<stop offset="0.183" stop-color="#F39FA8"/>
<stop offset="0.5916" stop-color="#F1879E"/>
<stop offset="1" stop-color="#EF7998"/>
</radialGradient>
<radialGradient id="paint18_radial_185_4129" cx="0" cy="0" r="1" gradientUnits="userSpaceOnUse" gradientTransform="translate(994.187 860.08) scale(367.861 367.054)">
<stop stop-color="#F6BEB4"/>
<stop offset="0.183" stop-color="#F39FA8"/>
<stop offset="0.5916" stop-color="#F1879E"/>
<stop offset="1" stop-color="#EF7998"/>
</radialGradient>
<radialGradient id="paint19_radial_185_4129" cx="0" cy="0" r="1" gradientUnits="userSpaceOnUse" gradientTransform="translate(896.51 619.787) scale(233.937 233.423)">
<stop stop-color="#A6173A"/>
<stop offset="1" stop-color="#080117"/>
</radialGradient>
<radialGradient id="paint20_radial_185_4129" cx="0" cy="0" r="1" gradientUnits="userSpaceOnUse" gradientTransform="translate(896.511 619.784) scale(233.929 233.416)">
<stop stop-color="#D63159"/>
<stop offset="1" stop-color="#080117"/>
</radialGradient>
<radialGradient id="paint21_radial_185_4129" cx="0" cy="0" r="1" gradientUnits="userSpaceOnUse" gradientTransform="translate(896.51 619.787) scale(233.935 233.422)">
<stop stop-color="#A6173A"/>
<stop offset="1" stop-color="#080117"/>
</radialGradient>
<radialGradient id="paint22_radial_185_4129" cx="0" cy="0" r="1" gradientUnits="userSpaceOnUse" gradientTransform="translate(896.51 619.787) scale(233.936 233.423)">
<stop stop-color="#AD163B"/>
<stop offset="1" stop-color="#080117"/>
</radialGradient>
<radialGradient id="paint23_radial_185_4129" cx="0" cy="0" r="1" gradientUnits="userSpaceOnUse" gradientTransform="translate(826.777 527.038) scale(510.803 509.686)">
<stop stop-color="#681423"/>
<stop offset="1" stop-color="#170111"/>
</radialGradient>
<radialGradient id="paint24_radial_185_4129" cx="0" cy="0" r="1" gradientUnits="userSpaceOnUse" gradientTransform="translate(979.296 503.29) scale(380.759 379.924)">
<stop stop-color="#510000"/>
<stop offset="1" stop-color="#080117"/>
</radialGradient>
<radialGradient id="paint25_radial_185_4129" cx="0" cy="0" r="1" gradientUnits="userSpaceOnUse" gradientTransform="translate(890.808 380.814) scale(412.508 411.603)">
<stop stop-color="#58121F"/>
<stop offset="1" stop-color="#080117"/>
</radialGradient>
<radialGradient id="paint26_radial_185_4129" cx="0" cy="0" r="1" gradientUnits="userSpaceOnUse" gradientTransform="translate(898.242 1376.86) scale(1269.13 1266.34)">
<stop stop-color="#BC0000"/>
<stop offset="1" stop-color="#0F0003"/>
</radialGradient>
<linearGradient id="paint27_linear_185_4129" x1="256.748" y1="390.166" x2="-449.696" y2="208.235" gradientUnits="userSpaceOnUse">
<stop offset="0.0676083" stop-color="#4F0018"/>
<stop offset="0.0677083" stop-color="#560018"/>
<stop offset="0.2287" stop-color="#3C1425"/>
<stop offset="0.4618" stop-color="#210625"/>
<stop offset="0.7107" stop-color="#1A0416"/>
<stop offset="1" stop-color="#080117"/>
</linearGradient>
<radialGradient id="paint28_radial_185_4129" cx="0" cy="0" r="1" gradientUnits="userSpaceOnUse" gradientTransform="translate(615.989 606.081) scale(4.30773 4.29828)">
<stop stop-color="#96006C"/>
<stop offset="1" stop-color="#080117"/>
</radialGradient>
<radialGradient id="paint29_radial_185_4129" cx="0" cy="0" r="1" gradientUnits="userSpaceOnUse" gradientTransform="translate(559.595 604.603) scale(7.30242 7.2864)">
<stop stop-color="#960012"/>
<stop offset="1" stop-color="#080117"/>
</radialGradient>
<radialGradient id="paint30_radial_185_4129" cx="0" cy="0" r="1" gradientUnits="userSpaceOnUse" gradientTransform="translate(1165.75 595.975) scale(6.9089 6.89373)">
<stop stop-color="#96006C"/>
<stop offset="1" stop-color="#080117"/>
</radialGradient>
<radialGradient id="paint31_radial_185_4129" cx="0" cy="0" r="1" gradientUnits="userSpaceOnUse" gradientTransform="translate(886.031 561.5) rotate(90.9331) scale(215.529 564.672)">
<stop stop-color="#F88FAC"/>
<stop offset="0.1499" stop-color="#F0809B"/>
<stop offset="0.296875" stop-color="#CD3333"/>
<stop offset="0.333333" stop-color="#F290A2"/>
<stop offset="0.3838" stop-color="#DD3E42"/>
<stop offset="0.570283" stop-color="#DE406A"/>
<stop offset="0.685863" stop-color="#C8214C"/>
<stop offset="0.889438" stop-color="#5F011A"/>
<stop offset="1" stop-color="#350311"/>
</radialGradient>
<linearGradient id="paint32_linear_185_4129" x1="401.293" y1="1006.45" x2="401.293" y2="951.395" gradientUnits="userSpaceOnUse">
<stop stop-color="#96006C"/>
<stop offset="1" stop-color="#080117"/>
</linearGradient>
<linearGradient id="paint33_linear_185_4129" x1="1634.23" y1="887.459" x2="1590.54" y2="858.268" gradientUnits="userSpaceOnUse">
<stop stop-color="#960075"/>
<stop offset="1" stop-color="#080117"/>
</linearGradient>
<linearGradient id="paint34_linear_185_4129" x1="232.422" y1="769.448" x2="232.422" y2="231.215" gradientUnits="userSpaceOnUse">
<stop stop-color="#350311"/>
<stop offset="0.0669" stop-color="#3F0213"/>
<stop offset="0.242988" stop-color="#59021A"/>
<stop offset="0.511633" stop-color="#801732"/>
<stop offset="0.6501" stop-color="#1A0405"/>
<stop offset="1" stop-color="#080117"/>
</linearGradient>
<linearGradient id="paint35_linear_185_4129" x1="453.407" y1="774.057" x2="453.407" y2="237.18" gradientUnits="userSpaceOnUse">
<stop stop-color="#350311"/>
<stop offset="0.223958" stop-color="#560118"/>
<stop offset="0.349" stop-color="#831733"/>
<stop offset="0.6501" stop-color="#1A0418"/>
<stop offset="1" stop-color="#170116"/>
</linearGradient>
<linearGradient id="paint36_linear_185_4129" x1="649.02" y1="768.357" x2="649.02" y2="496.443" gradientUnits="userSpaceOnUse">
<stop stop-color="#350311"/>
<stop offset="0.0669" stop-color="#4F0217"/>
<stop offset="0.349" stop-color="#A41640"/>
<stop offset="0.6501" stop-color="#1A041A"/>
<stop offset="1" stop-color="#170112"/>
</linearGradient>
<linearGradient id="paint37_linear_185_4129" x1="1337.47" y1="769.667" x2="1337.47" y2="301.083" gradientUnits="userSpaceOnUse">
<stop stop-color="#350311"/>
<stop offset="0.0669" stop-color="#420311"/>
<stop offset="0.349" stop-color="#250509"/>
<stop offset="0.6501" stop-color="#1A0415"/>
<stop offset="1" stop-color="#170101"/>
</linearGradient>
<linearGradient id="paint38_linear_185_4129" x1="1241.21" y1="769.667" x2="1241.21" y2="301.082" gradientUnits="userSpaceOnUse">
<stop stop-color="#350311"/>
<stop offset="0.0669" stop-color="#5E011A"/>
<stop offset="0.349" stop-color="#250505"/>
<stop offset="0.6501" stop-color="#1A0404"/>
<stop offset="1" stop-color="#0B0117"/>
</linearGradient>
<linearGradient id="paint39_linear_185_4129" x1="1264.68" y1="446.758" x2="1608.64" y2="307.997" gradientUnits="userSpaceOnUse">
<stop stop-color="#550118"/>
<stop offset="0.005" stop-color="#4F0018"/>
<stop offset="0.2287" stop-color="#4F0017"/>
<stop offset="0.4618" stop-color="#250606"/>
<stop offset="0.7107" stop-color="#08041A"/>
<stop offset="1" stop-color="#080117"/>
</linearGradient>
<linearGradient id="paint40_linear_185_4129" x1="1359.61" y1="416.17" x2="1520.72" y2="379.639" gradientUnits="userSpaceOnUse">
<stop stop-color="#6F1B31"/>
<stop offset="0.005" stop-color="#00314F"/>
<stop offset="0.2287" stop-color="#370429"/>
<stop offset="0.4618" stop-color="#25061E"/>
<stop offset="0.7107" stop-color="#1A0414"/>
<stop offset="1" stop-color="#170112"/>
</linearGradient>
</defs>
</svg>
