<svg width="1415" height="544" viewBox="0 0 1415 544" fill="none" xmlns="http://www.w3.org/2000/svg">
<g clip-path="url(#clip0_185_3664)">
<circle cx="12" cy="275" r="96.5" stroke="white"/>
<circle cx="72" cy="376" r="11.5" stroke="#FC7B90"/>
<g clip-path="url(#clip1_185_3664)">
<g opacity="0.75" filter="url(#filter0_f_185_3664)">
<path opacity="0.75" d="M861 860.592C1166.41 860.592 1414 715.543 1414 536.615C1414 357.688 1166.41 212.639 861 212.639C555.587 212.639 308 357.688 308 536.615C308 715.543 555.587 860.592 861 860.592Z" fill="url(#paint0_radial_185_3664)"/>
</g>
<path d="M969.064 254.556L936.26 273.349L910.083 258.396L942.886 239.439L969.064 254.556Z" fill="url(#paint1_linear_185_3664)"/>
<path d="M969.064 267.629L936.26 286.422L910.083 271.469L942.886 252.513L969.064 267.629Z" fill="url(#paint2_linear_185_3664)"/>
<path d="M1413.19 145H924V551.912H1413.19V145Z" fill="url(#paint3_linear_185_3664)"/>
<path d="M1184.95 154.952L1211.21 139.836V124.72L1184.95 139.918V154.952Z" fill="#1A1A1A"/>
<path d="M1211.21 124.72L1191.57 113.444L1165.4 128.478L1184.95 139.918L1211.21 124.72Z" fill="#424242"/>
<path d="M1172.92 93.9972L1185.19 124.802L1204.66 113.444L1190.75 84.0283L1172.92 93.9972Z" fill="#1A1A1A"/>
<path d="M1177.67 91.627L1172.27 94.2419L1178.48 120.961L1185.19 124.801L1177.67 91.627Z" fill="#383838"/>
<path d="M759.644 604.434V566.276L857.81 509.651V547.401L759.644 604.434Z" fill="#1A1A1A"/>
<path d="M857.81 509.651L759.644 566.276L674.485 517.25L772.733 460.626L857.81 509.651Z" fill="#424242"/>
<path d="M806.109 399.753C793.266 392.399 772.569 392.399 759.808 399.753C747.046 407.106 747.128 419.118 759.971 426.553C772.815 433.907 793.511 433.907 806.273 426.553C819.034 419.118 818.952 407.106 806.109 399.753Z" fill="url(#paint4_linear_185_3664)"/>
<path d="M806.109 383.411C793.266 376.057 772.569 376.057 759.808 383.411C747.046 390.765 747.128 402.776 759.971 410.211C772.815 417.565 793.511 417.565 806.273 410.211C819.034 402.776 818.952 390.765 806.109 383.411Z" fill="url(#paint5_linear_185_3664)"/>
<path d="M1394.45 215.335V298.351L1342.09 328.502V245.486L1394.45 215.335Z" fill="#1A1A1A"/>
<path d="M1342.09 245.486L1250.39 192.62V298.352L1342.09 320.985V245.486Z" fill="#5C5C5C"/>
<path d="M1342.09 245.486L1394.45 215.335L1302.83 162.469L1250.39 192.62L1342.09 245.486Z" fill="#424242"/>
<path d="M1217.75 468.307V279.477L1230.84 249.244L1270.11 226.611V438.074L1217.75 468.307Z" fill="#1A1A1A"/>
<path d="M1342.09 268.119L1414.08 377.609V445.51L1342.09 328.502V268.119Z" fill="#5C5C5C"/>
<path d="M1342.09 268.119L1394.45 237.969L1414.08 271.96V377.61L1342.09 268.119Z" fill="#424242"/>
<path d="M1414.08 324.744L1371.54 251.205V228.49L1279.84 175.706" stroke="white" stroke-width="2" stroke-miterlimit="10"/>
<path d="M1217.75 279.477L1152.31 241.727V536.125L1217.75 498.375V279.477Z" fill="url(#paint6_linear_185_3664)"/>
<path d="M1296.28 354.976L1230.84 317.227L1231.08 554.592H1296.28V354.976Z" fill="url(#paint7_linear_185_3664)"/>
<path d="M1296.28 354.976L1348.64 324.744V554.591H1296.28V354.976Z" fill="#1A1A1A"/>
<path d="M1296.28 354.976L1348.64 324.744L1283.19 286.994L1230.84 317.227L1296.28 354.976Z" fill="#424242"/>
<path d="M1296.28 498.376L1230.84 460.789L1152.31 505.893L1119.67 487.018L1171.94 456.867L1139.22 437.993L1204.66 400.243L1178.48 385.127L1113.04 422.876L988.615 351.136L844.639 434.234L1027.96 539.884L1093.41 502.134L1145.68 532.285L1107.07 554.673L1198.69 554.592L1296.28 498.376Z" fill="#424242"/>
<path d="M1276.57 488.407L1224.21 510.224L1256.85 446.164L1276.57 488.407Z" fill="#1A1A1A"/>
<path d="M1256.85 446.164L1237.3 465.038L1224.21 510.224L1256.85 446.164Z" fill="#5C5C5C"/>
<path d="M1204.66 400.243V430.393L1165.56 453.19L1139.22 437.992L1204.66 400.243Z" fill="#1A1A1A"/>
<path d="M1171.94 456.867V487.1L1145.68 502.216L1119.67 487.018L1171.94 456.867Z" fill="#1A1A1A"/>
<path d="M1119.67 547.483L1093.33 532.367L1027.88 570.116L1027.96 539.884L1093.41 502.134L1145.68 532.285L1119.67 547.483Z" fill="#1A1A1A"/>
<path d="M1296.28 528.526L1198.61 584.824L1198.69 554.591L1296.28 498.375V528.526Z" fill="#1A1A1A"/>
<path d="M1027.96 570.116L844.721 464.466V434.234L1028.05 539.884L1027.96 570.116Z" fill="#383838"/>
<path d="M1093.33 532.367L1093.41 502.134L1145.68 532.285L1119.67 547.483L1093.33 532.367Z" fill="#383838"/>
<path d="M1230.84 249.245L1165.4 211.577L1152.31 241.727L1217.75 279.477L1230.84 249.245Z" fill="#383838"/>
<path d="M1270.11 226.611L1230.84 249.244L1165.4 211.576L1204.66 188.861L1270.11 226.611Z" fill="#424242"/>
<path d="M1257.02 226.611L1230.84 241.727L1178.48 211.577L1204.66 196.46L1257.02 226.611Z" fill="url(#paint8_linear_185_3664)"/>
<path d="M1204.66 196.46V226.693L1230.84 241.727L1257.02 226.611L1204.66 196.46Z" fill="url(#paint9_linear_185_3664)"/>
<path d="M942.887 521.091L923.172 532.367L897.076 517.25L916.709 505.975L942.887 521.091Z" fill="#424242"/>
<path d="M923.253 532.367L914.582 554.592H929.798L942.886 521.091L923.253 532.367Z" fill="#1A1A1A"/>
<path d="M882.515 554.592L897.076 517.25L923.253 532.367L914.582 554.592H882.515Z" fill="#383838"/>
<path d="M904.438 498.375L884.723 509.651L858.628 494.453L878.261 483.259L904.438 498.375Z" fill="#424242"/>
<path d="M884.805 509.651L867.299 554.591H882.514L904.438 498.375L884.805 509.651Z" fill="#1A1A1A"/>
<path d="M835.231 554.591L858.628 494.535L884.805 509.651L867.299 554.591H835.231Z" fill="#383838"/>
<path d="M825.17 498.376L766.188 464.385L700.745 502.216L759.644 536.125L825.17 498.376Z" fill="white"/>
<path d="M825.17 498.375L825.006 513.41L759.644 551.16V536.125L825.17 498.375Z" fill="white"/>
<path d="M759.644 536.125V551.16L700.745 517.25V502.216L759.644 536.125Z" fill="white"/>
<path d="M759.644 566.276V604.434L674.485 554.673V517.25L759.644 566.276Z" fill="#383838"/>
<path d="M949.349 411.601L923.172 426.717L923.253 343.619L969.064 317.227L949.349 411.601Z" fill="#1A1A1A"/>
<path d="M923.172 426.716L831.632 373.851V290.752L923.253 343.618L923.172 426.716Z" fill="#383838"/>
<path d="M923.253 343.618L969.064 317.226L877.443 264.36L831.632 290.752L923.253 343.618Z" fill="#424242"/>
<path d="M910.247 351.136V396.484L844.803 358.735V313.468L910.247 351.136Z" fill="white"/>
<path d="M1171.94 107.969C1168.26 105.845 1164.9 105.845 1162.45 107.561V107.479L1097.09 145.147L1115.25 210.106L1179.96 172.765C1182.98 171.539 1184.95 168.026 1184.95 162.878V131.747C1185.03 122.922 1179.14 112.136 1171.94 107.969Z" fill="url(#paint10_linear_185_3664)"/>
<path d="M1101.02 144.085C1096.52 144.085 1093.41 147.925 1093.41 154.544V185.511C1093.41 194.5 1099.3 205.285 1106.41 209.452C1108.38 210.596 1110.18 211.086 1111.9 211.086C1116.39 211.086 1119.5 207.246 1119.5 200.628V169.578C1119.5 160.59 1113.61 149.805 1106.41 145.719C1104.53 144.657 1102.73 144.085 1101.02 144.085Z" fill="#383838"/>
<path d="M1139.63 132.155C1141.18 132.155 1142.49 133.463 1142.49 135.015V143.595H1136.76V135.015C1136.76 133.463 1138.07 132.155 1139.63 132.155Z" fill="white"/>
<path d="M1138.4 141.143C1137.5 141.143 1136.76 140.408 1136.76 139.509V136.241C1136.76 135.342 1137.5 134.606 1138.4 134.606C1139.3 134.606 1140.04 135.342 1140.04 136.241V139.509C1140.04 140.408 1139.3 141.143 1138.4 141.143Z" fill="white"/>
<path opacity="0.5" d="M1152.31 119.327C1152.31 119.163 1152.31 119.082 1152.31 118.918C1152.31 111.728 1146.42 105.845 1139.22 105.845C1132.02 105.845 1126.13 111.728 1126.13 118.918C1126.13 119 1126.13 119 1126.13 119.082V135.75C1126.05 137.793 1127.27 139.754 1129.97 141.306C1135.05 144.248 1143.39 144.248 1148.54 141.306C1151.16 139.754 1152.47 137.793 1152.39 135.75V119.327H1152.31Z" fill="url(#paint11_linear_185_3664)"/>
<path d="M1211.21 109.604L1198.12 132.237L1211.21 124.72L1224.29 102.086L1211.21 109.604Z" fill="#1A1A1A"/>
<path d="M1198.12 132.237L1191.57 128.478L1204.66 105.845L1211.21 109.603L1198.12 132.237Z" fill="#383838"/>
<path d="M969.064 211.577V241.727L936.26 260.684V230.37L969.064 211.577Z" fill="#1A1A1A"/>
<path d="M910.083 245.567L936.26 260.684V230.369L910.083 215.335V245.567Z" fill="#383838"/>
<path d="M969.064 211.577L936.26 230.37L910.083 215.335L942.886 196.46L969.064 211.577Z" fill="#424242"/>
<path d="M944.605 218.358C959.107 218.358 970.864 203.177 970.864 184.449C970.864 165.721 959.107 150.54 944.605 150.54C930.102 150.54 918.345 165.721 918.345 184.449C918.345 203.177 930.102 218.358 944.605 218.358Z" fill="url(#paint12_linear_185_3664)"/>
<path d="M844.721 313.549L740.011 374.014L805.455 411.6V456.54L910.165 396.076V351.136L844.721 313.549Z" fill="url(#paint13_linear_185_3664)"/>
<path d="M943.05 468.225L916.709 453.109L955.975 430.394L982.153 445.591L943.05 468.225Z" fill="white"/>
<path d="M933.152 462.505L939.614 458.828C939.614 458.828 943.786 460.217 947.386 458.011C950.74 455.968 949.513 452.945 949.513 452.945L956.057 449.186C956.057 449.186 960.229 450.575 963.829 448.369C967.183 446.327 965.956 443.303 965.956 443.303L972.255 439.872" stroke="#424242" stroke-width="2" stroke-miterlimit="10" stroke-linecap="round" stroke-linejoin="round"/>
<path d="M948.94 456.541L956.057 460.707" stroke="#424242" stroke-width="2" stroke-miterlimit="10" stroke-linecap="round" stroke-linejoin="round"/>
<path d="M929.716 445.428L936.342 449.269" stroke="#424242" stroke-width="2" stroke-miterlimit="10" stroke-linecap="round" stroke-linejoin="round"/>
<path d="M944.932 458.992L951.803 462.913" stroke="#424242" stroke-width="2" stroke-miterlimit="10" stroke-linecap="round" stroke-linejoin="round"/>
<path d="M925.462 447.716L933.397 452.292" stroke="#424242" stroke-width="2" stroke-miterlimit="10" stroke-linecap="round" stroke-linejoin="round"/>
<path d="M965.465 446.735L973.4 451.31" stroke="#424242" stroke-width="2" stroke-miterlimit="10" stroke-linecap="round" stroke-linejoin="round"/>
<path d="M946.568 435.868L952.867 439.463" stroke="#424242" stroke-width="2" stroke-miterlimit="10" stroke-linecap="round" stroke-linejoin="round"/>
<path d="M961.783 449.35L969.146 453.599" stroke="#424242" stroke-width="2" stroke-miterlimit="10" stroke-linecap="round" stroke-linejoin="round"/>
<path d="M942.478 438.238L949.84 442.487" stroke="#424242" stroke-width="2" stroke-miterlimit="10" stroke-linecap="round" stroke-linejoin="round"/>
<path d="M926.525 458.747L933.07 454.988C933.07 454.988 932.006 452.046 935.769 449.514C939.369 447.062 943.868 448.533 943.868 448.533L949.84 444.938C949.84 444.938 948.531 441.996 952.294 439.872C956.057 437.666 959.656 438.973 959.656 438.973L966.61 434.969" stroke="#424242" stroke-width="2" stroke-miterlimit="10" stroke-linecap="round" stroke-linejoin="round"/>
<path d="M1325.81 417.238L1355.18 434.234L1342.09 441.751L1319.11 428.514L1325.81 417.238Z" fill="url(#paint14_linear_185_3664)"/>
<path d="M1325.81 440.035L1355.18 456.949L1342.09 464.466L1319.11 451.229L1325.81 440.035Z" fill="url(#paint15_linear_185_3664)"/>
<path d="M949.022 183.55L917.609 175.298V194.908L948.94 186.737C950.658 186.329 950.658 184.041 949.022 183.55Z" fill="url(#paint16_linear_185_3664)"/>
<path d="M918.345 184.449C918.345 165.737 930.125 150.54 944.604 150.54C924.317 150.54 907.874 165.737 907.874 184.449C907.874 203.16 924.317 218.358 944.604 218.358C930.125 218.44 918.345 203.242 918.345 184.449Z" fill="#383838"/>
<path opacity="0.5" d="M851.265 332.343V324.989L877.524 339.86V347.459L851.265 332.343Z" fill="white"/>
<path opacity="0.5" d="M857.81 351.054V343.782L903.62 369.847V377.364L857.81 351.054Z" fill="white"/>
<path opacity="0.5" d="M883.905 350.891V343.619L897.076 351.218V358.735L883.905 350.891Z" fill="white"/>
<path d="M854.865 381.205C854.865 381.205 849.22 374.995 839.076 381.205L840.794 396.484L839.076 407.025H854.865V381.205Z" fill="url(#paint17_linear_185_3664)"/>
<path d="M832.532 431.946L840.794 426.798L839.076 407.106H846.93L846.439 426.962C846.357 428.269 845.703 429.413 844.639 430.148L834.986 436.44" fill="url(#paint18_linear_185_3664)"/>
<path d="M832.123 431.21C832.123 431.21 826.233 435.132 826.069 436.276C825.987 436.93 828.932 446.082 828.932 446.082C829.096 446.653 829.914 446.653 829.996 446.082L831.796 438.564L835.477 437.094L832.123 431.21Z" fill="url(#paint19_linear_185_3664)"/>
<path d="M849.547 446.082L849.22 457.194L855.437 461.688C856.419 462.423 857.646 461.279 857.073 460.217L854.292 454.906L855.928 447.552L849.547 446.082Z" fill="url(#paint20_linear_185_3664)"/>
<path d="M850.283 446.245L851.511 433.008L844.557 407.106H854.865L856.582 432.436L855.11 447.389L850.283 446.245Z" fill="url(#paint21_linear_185_3664)"/>
<path d="M847.584 381.776H835.722V400.324H847.584V381.776Z" fill="url(#paint22_linear_185_3664)"/>
<path d="M843.657 381.776H831.796V400.324H843.657V381.776Z" fill="url(#paint23_linear_185_3664)"/>
<g opacity="0.5">
<g opacity="0.5">
<path opacity="0.5" d="M846.766 365.026C843.412 365.026 840.631 367.804 840.631 371.155V379.734C840.631 381.123 843.412 382.185 846.766 382.185C850.12 382.185 852.901 381.123 852.901 379.734V371.155C852.901 367.804 850.12 365.026 846.766 365.026Z" fill="url(#paint24_linear_185_3664)"/>
</g>
</g>
<path d="M846.766 369.112C848.32 369.112 849.629 370.419 849.629 371.972V380.551H843.903V371.972C843.903 370.419 845.212 369.112 846.766 369.112Z" fill="url(#paint25_linear_185_3664)"/>
<path d="M855.614 386.217C855.722 382.835 854.748 380.058 853.438 380.017C852.128 379.976 850.98 382.684 850.872 386.067C850.764 389.45 851.739 392.226 853.048 392.267C854.357 392.309 855.507 389.6 855.614 386.217Z" fill="#EE6D93"/>
<path d="M856.228 386.27C856.584 382.859 855.999 380.002 854.92 379.89C853.841 379.777 852.679 382.452 852.322 385.862C851.966 389.274 852.551 392.13 853.63 392.242C854.708 392.355 855.871 389.681 856.228 386.27Z" fill="#FC7B90"/>
<path d="M868.608 361.676L870.08 357.019" stroke="white" stroke-width="4" stroke-miterlimit="10" stroke-linecap="round" stroke-linejoin="round"/>
<path d="M853.229 385.454L864.763 374.75L868.608 361.676" stroke="#EE6D93" stroke-width="4" stroke-miterlimit="10" stroke-linecap="round" stroke-linejoin="round"/>
<path d="M1165.64 392.807L1191.57 407.515" stroke="white" stroke-width="2" stroke-miterlimit="10" stroke-linecap="round" stroke-linejoin="round"/>
<path d="M1159.1 396.893L1185.03 411.6" stroke="#EE6D93" stroke-width="1.5" stroke-miterlimit="10" stroke-linecap="round" stroke-linejoin="round"/>
<path d="M1394.45 237.56L1342.09 267.792" stroke="white" stroke-width="2" stroke-miterlimit="10"/>
<path d="M798.91 498.376L759.726 520.928L727.004 502.216L766.188 479.501L798.91 498.376Z" fill="url(#paint26_linear_185_3664)"/>
<path d="M766.188 479.501L766.27 517.251L798.91 498.376L766.188 479.501Z" fill="url(#paint27_linear_185_3664)"/>
<path d="M798.91 498.376V437.992L766.188 419.118L726.84 441.833L727.004 502.216L759.726 520.927L798.91 498.376Z" fill="url(#paint28_linear_185_3664)"/>
<path d="M950.249 188.207C951.966 188.207 953.358 186.818 953.358 185.103C953.358 183.387 951.966 181.998 950.249 181.998C948.532 181.998 947.14 183.387 947.14 185.103C947.14 186.818 948.532 188.207 950.249 188.207Z" fill="url(#paint29_linear_185_3664)"/>
<path opacity="0.5" d="M1330.97 150.213C1331.87 150.213 1332.6 149.481 1332.6 148.579C1332.6 147.676 1331.87 146.944 1330.97 146.944C1330.07 146.944 1329.33 147.676 1329.33 148.579C1329.33 149.481 1330.07 150.213 1330.97 150.213Z" fill="white"/>
<path d="M1319.52 131.665C1319.97 131.665 1320.33 131.3 1320.33 130.848C1320.33 130.397 1319.97 130.031 1319.52 130.031C1319.07 130.031 1318.7 130.397 1318.7 130.848C1318.7 131.3 1319.07 131.665 1319.52 131.665Z" fill="white"/>
<path d="M1302.75 151.847C1303.2 151.847 1303.56 151.481 1303.56 151.03C1303.56 150.578 1303.2 150.213 1302.75 150.213C1302.3 150.213 1301.93 150.578 1301.93 151.03C1301.93 151.481 1302.3 151.847 1302.75 151.847Z" fill="white"/>
<path d="M1325.73 163.287C1326.18 163.287 1326.55 162.92 1326.55 162.469C1326.55 162.018 1326.18 161.652 1325.73 161.652C1325.28 161.652 1324.91 162.018 1324.91 162.469C1324.91 162.92 1325.28 163.287 1325.73 163.287Z" fill="white"/>
<path d="M1339.23 185.756C1339.68 185.756 1340.05 185.39 1340.05 184.939C1340.05 184.487 1339.68 184.122 1339.23 184.122C1338.78 184.122 1338.41 184.487 1338.41 184.939C1338.41 185.39 1338.78 185.756 1339.23 185.756Z" fill="white"/>
<path opacity="0.5" d="M1302.17 130.848C1303.07 130.848 1303.81 130.117 1303.81 129.214C1303.81 128.312 1303.07 127.58 1302.17 127.58C1301.27 127.58 1300.54 128.312 1300.54 129.214C1300.54 130.117 1301.27 130.848 1302.17 130.848Z" fill="white"/>
<path d="M1299.56 166.8C1300.45 166.8 1301.19 166.068 1301.19 165.165C1301.19 164.263 1300.45 163.531 1299.56 163.531C1298.66 163.531 1297.92 164.263 1297.92 165.165C1297.92 166.068 1298.66 166.8 1299.56 166.8Z" fill="white"/>
<path d="M1283.19 407.76L1243.93 385.29V430.475L1283.36 453.19L1283.19 407.76Z" fill="url(#paint30_linear_185_3664)"/>
<path d="M1111.98 445.837L1102.41 440.362L1089.4 442.323L1085.96 449.841L1095.53 455.397L1108.54 453.354L1111.98 445.837Z" fill="white"/>
<path d="M1107.72 446.49L1101.26 442.813L1092.59 444.203L1090.3 449.187L1096.68 452.864L1105.35 451.556L1107.72 446.49Z" fill="white"/>
<path d="M1103.31 447.225L1100.12 445.346L1095.86 446.082L1094.72 448.533L1097.82 450.33L1102.16 449.677L1103.31 447.225Z" fill="white"/>
<path d="M1095.53 465.61L1085.96 460.054V449.84L1095.53 455.397V465.61Z" fill="#383838"/>
<path d="M1108.54 453.354V463.568L1095.53 465.61V455.397L1108.54 453.354Z" fill="#424242"/>
<path d="M1111.98 456.05L1108.54 463.567V453.354L1111.98 445.836V456.05Z" fill="#1A1A1A"/>
<path d="M1076.56 426.635L1066.98 421.079L1053.98 423.121L1050.54 430.639L1060.03 436.195L1073.04 434.152L1076.56 426.635Z" fill="white"/>
<path d="M1072.22 427.289L1065.84 423.612L1057.09 425.001L1054.8 429.985L1061.18 433.662L1069.93 432.355L1072.22 427.289Z" fill="white"/>
<path d="M1067.8 428.024L1064.61 426.145L1060.36 426.798L1059.21 429.331L1062.4 431.129L1066.66 430.475L1067.8 428.024Z" fill="white"/>
<path d="M1060.03 446.409L1050.54 440.852V430.639L1060.03 436.195V446.409Z" fill="#383838"/>
<path d="M1073.04 434.152V444.366L1060.03 446.409V436.195L1073.04 434.152Z" fill="#424242"/>
<path d="M1076.56 436.848L1073.04 444.366V434.152L1076.56 426.635V436.848Z" fill="#1A1A1A"/>
<path d="M988.697 207.328L1014.87 192.62L1191.57 294.757L1021.42 392.808V257.17L1047.6 271.878V347.377L1139.22 294.757L988.697 207.328Z" fill="#424242"/>
<path d="M1021.42 430.394L988.697 411.601V207.328L1139.22 294.756L1113.04 309.464L1021.42 257.17V430.394Z" fill="#383838"/>
<path d="M1021.42 430.394L1191.57 332.343V294.756L1021.42 392.807V430.394Z" fill="#1A1A1A"/>
<path d="M1047.6 347.377L1021.42 392.808V257.17L1047.6 271.878V347.377Z" fill="#1A1A1A"/>
<path opacity="0.4" d="M988.697 207.328L1014.87 192.62L1165.4 279.477L1139.22 294.757L988.697 207.328Z" fill="url(#paint31_linear_185_3664)"/>
<path d="M766.106 539.965L772.733 543.642L772.651 551.241" stroke="white" stroke-width="2" stroke-miterlimit="10" stroke-linecap="round" stroke-linejoin="round"/>
<path d="M779.195 532.367L785.821 536.044L785.74 543.643" stroke="white" stroke-width="2" stroke-miterlimit="10" stroke-linecap="round" stroke-linejoin="round"/>
<path d="M792.284 524.85L798.91 528.527L798.828 536.126" stroke="white" stroke-width="2" stroke-miterlimit="10" stroke-linecap="round" stroke-linejoin="round"/>
<path d="M805.373 517.25L811.999 521.009L811.917 528.526" stroke="white" stroke-width="2" stroke-miterlimit="10" stroke-linecap="round" stroke-linejoin="round"/>
<path d="M818.461 509.651L825.006 513.41V520.927" stroke="white" stroke-width="2" stroke-miterlimit="10" stroke-linecap="round" stroke-linejoin="round"/>
<path d="M1224.21 510.224L1178.57 536.125L988.779 426.717L910.165 471.984V485.221" stroke="white" stroke-width="2" stroke-miterlimit="10" stroke-linecap="round" stroke-linejoin="round"/>
<path d="M917.282 490.45C917.282 484.567 913.11 477.376 908.038 474.435C905.42 472.882 903.048 472.801 901.33 473.863L887.259 481.952L899.366 505.157L914.337 496.496C916.136 495.597 917.282 493.555 917.282 490.45Z" fill="#1A1A1A"/>
<path d="M893.722 485.711C890.041 483.586 887.014 485.302 887.014 489.551C887.014 493.8 889.959 498.947 893.64 501.072C897.321 503.196 900.348 501.48 900.348 497.232C900.43 492.983 897.403 487.835 893.722 485.711Z" fill="white"/>
<path d="M893.722 500.99C890.041 498.866 887.096 493.718 887.096 489.469C887.096 485.22 890.123 483.504 893.804 485.629C897.485 487.753 900.43 492.901 900.43 497.15C900.348 501.399 897.403 503.114 893.722 500.99ZM893.722 482.36C888.405 479.337 884.151 481.788 884.151 487.835C884.151 493.881 888.405 501.317 893.722 504.34C899.039 507.363 903.293 504.912 903.293 498.866C903.293 492.819 899.039 485.384 893.722 482.36Z" fill="#383838"/>
<path d="M1041.05 456.867V449.35C1041.05 446 1037.37 443.876 1034.51 445.591" stroke="white" stroke-width="2" stroke-miterlimit="10" stroke-linecap="round" stroke-linejoin="round"/>
<path d="M1039.01 453.436C1039.01 447.553 1034.84 440.362 1029.76 437.421C1027.15 435.868 1024.77 435.786 1023.06 436.849L976.508 463.894L988.615 487.1L1036.06 459.564C1037.86 458.583 1039.01 456.541 1039.01 453.436Z" fill="#1A1A1A"/>
<path d="M982.971 468.634C979.78 466.754 977.163 468.307 977.163 471.984C977.163 475.661 979.78 480.155 982.971 482.034C986.161 483.913 988.779 482.361 988.779 478.684C988.779 474.925 986.161 470.431 982.971 468.634Z" fill="white"/>
<path d="M982.971 481.952C979.78 480.073 977.163 475.579 977.163 471.902C977.163 468.225 979.78 466.754 982.971 468.552C986.161 470.431 988.779 474.925 988.779 478.602C988.779 482.279 986.161 483.831 982.971 481.952ZM982.971 464.63C977.817 461.688 973.645 464.058 973.645 469.941C973.645 475.824 977.817 483.014 982.889 485.956C988.043 488.897 992.215 486.528 992.215 480.645C992.215 474.762 988.124 467.571 982.971 464.63Z" fill="#383838"/>
<path d="M982.071 475.742L977.981 478.112C976.426 479.011 975.527 480.645 975.527 482.442L975.69 494.617" stroke="white" stroke-width="2" stroke-miterlimit="10" stroke-linecap="round" stroke-linejoin="round"/>
<path d="M1242.37 474.843L1231.25 485.956" stroke="white" stroke-width="2" stroke-miterlimit="10" stroke-linecap="round" stroke-linejoin="round"/>
<path d="M1248.84 461.933L1233.95 476.722" stroke="white" stroke-width="2" stroke-miterlimit="10" stroke-linecap="round" stroke-linejoin="round"/>
<path d="M1248.84 461.933L1263.72 493.718" stroke="white" stroke-width="2" stroke-miterlimit="10" stroke-linecap="round" stroke-linejoin="round"/>
<path d="M1253.25 498.13L1242.37 474.843" stroke="white" stroke-width="2" stroke-miterlimit="10" stroke-linecap="round" stroke-linejoin="round"/>
<path d="M1180.69 239.276L1224.21 264.524L1270.11 238.214" stroke="white" stroke-width="2" stroke-miterlimit="10" stroke-linejoin="round"/>
<path d="M877.443 310.526C874.252 308.647 871.635 310.199 871.635 313.876C871.635 317.553 874.252 322.047 877.443 323.926C880.633 325.806 883.251 324.253 883.251 320.576C883.251 316.899 880.633 312.405 877.443 310.526Z" fill="white"/>
<path d="M877.443 323.845C874.253 321.965 871.635 317.471 871.635 313.794C871.635 310.117 874.253 308.647 877.443 310.444C880.633 312.324 883.251 316.818 883.251 320.495C883.251 324.171 880.633 325.724 877.443 323.845ZM877.443 306.522C872.289 303.581 868.117 305.95 868.117 311.833C868.117 317.716 872.207 324.907 877.361 327.848C882.515 330.79 886.687 328.42 886.687 322.537C886.769 316.654 882.597 309.464 877.443 306.522Z" fill="#383838"/>
<path d="M918.672 229.879L887.668 247.61L906.974 258.478L928.244 245.731L918.672 229.879Z" fill="url(#paint32_linear_185_3664)"/>
<path d="M1099.38 147.762L1050.46 174.971V243.933L1113.78 207.246L1099.38 147.762Z" fill="url(#paint33_linear_185_3664)"/>
<path d="M1101.02 147.353C1102.16 147.353 1103.47 147.762 1104.86 148.579C1111.08 152.174 1116.31 161.816 1116.31 169.66V200.709C1116.31 204.141 1115.17 207.899 1111.98 207.899C1110.83 207.899 1109.52 207.491 1108.13 206.674C1101.91 203.079 1096.68 193.437 1096.68 185.593V154.625C1096.68 147.843 1100.03 147.353 1101.02 147.353Z" fill="url(#paint34_linear_185_3664)"/>
<path d="M1191.57 437.993V407.76" stroke="white" stroke-width="2" stroke-miterlimit="10" stroke-linecap="round" stroke-linejoin="round"/>
<path d="M1185.03 442.078V411.846" stroke="#EE6D93" stroke-width="1.5" stroke-miterlimit="10" stroke-linecap="round" stroke-linejoin="round"/>
<path d="M1021.42 411.6L1005.06 401.795V232.657L1126.13 302.11" stroke="white" stroke-width="2" stroke-miterlimit="10" stroke-linecap="round" stroke-linejoin="round"/>
<path d="M1152.63 336.183L1021.42 411.601" stroke="white" stroke-width="2" stroke-miterlimit="10" stroke-linejoin="round"/>
<path d="M1172.19 324.744L1161.88 330.79" stroke="white" stroke-width="2" stroke-miterlimit="10" stroke-linejoin="round"/>
<path d="M1160 411.028L1113.04 438.564L1145.76 456.54L1093.41 486.773" stroke="white" stroke-width="2" stroke-miterlimit="10" stroke-linecap="round" stroke-linejoin="round"/>
<path d="M1025.1 465.365C1026.74 464.466 1027.72 462.424 1027.72 459.564C1027.72 453.844 1023.71 446.899 1018.72 444.039C1016.27 442.65 1014.06 442.487 1012.42 443.304" stroke="white" stroke-width="1.5" stroke-miterlimit="10" stroke-linecap="round" stroke-linejoin="round"/>
<path d="M1073.77 475.742V468.225C1073.77 464.875 1070.09 462.751 1067.23 464.467" stroke="white" stroke-width="2" stroke-miterlimit="10" stroke-linecap="round" stroke-linejoin="round"/>
<path d="M1071.73 472.311C1071.73 466.427 1067.56 459.237 1062.49 456.296C1059.87 454.743 1057.49 454.661 1055.78 455.724L1009.23 482.769L1021.34 505.975L1068.78 478.439C1070.58 477.458 1071.73 475.415 1071.73 472.311Z" fill="#1A1A1A"/>
<path d="M1015.69 487.427C1012.5 485.547 1009.88 487.1 1009.88 490.777C1009.88 494.454 1012.5 498.948 1015.69 500.827C1018.88 502.706 1021.5 501.154 1021.5 497.477C1021.5 493.8 1018.88 489.306 1015.69 487.427Z" fill="white"/>
<path d="M1015.69 500.827C1012.5 498.948 1009.88 494.454 1009.88 490.777C1009.88 487.1 1012.5 485.629 1015.69 487.427C1018.88 489.306 1021.5 493.8 1021.5 497.477C1021.5 501.154 1018.88 502.625 1015.69 500.827ZM1015.69 483.505C1010.54 480.563 1006.37 482.933 1006.37 488.816C1006.37 494.699 1010.54 501.889 1015.61 504.831C1020.76 507.772 1024.94 505.403 1024.94 499.52C1025.02 493.637 1020.85 486.446 1015.69 483.505Z" fill="#383838"/>
<path d="M1014.79 494.617L1010.7 496.987C1009.15 497.886 1008.25 499.52 1008.25 501.317L1008.41 513.492" stroke="white" stroke-width="2" stroke-miterlimit="10" stroke-linecap="round" stroke-linejoin="round"/>
<path d="M1057.74 484.485C1059.38 483.586 1060.36 481.543 1060.36 478.684C1060.36 472.964 1056.35 466.019 1051.36 463.159C1048.91 461.77 1046.7 461.606 1045.06 462.423" stroke="white" stroke-width="1.5" stroke-miterlimit="10" stroke-linecap="round" stroke-linejoin="round"/>
<path d="M1034.26 497.967C1035.9 497.068 1036.88 495.025 1036.88 492.165C1036.88 486.446 1032.87 479.501 1027.88 476.641C1025.43 475.252 1023.22 475.088 1021.58 475.905" stroke="white" stroke-width="1.5" stroke-miterlimit="10" stroke-linecap="round" stroke-linejoin="round"/>
<path d="M1224.21 79.4525L1247.53 66.0522L1260.37 73.7329L1230.92 90.8101L1224.21 79.4525Z" fill="url(#paint35_linear_185_3664)"/>
<path d="M1191.57 60.4963L1214.89 47.1777L1227.73 54.8584L1198.28 71.8539L1191.57 60.4963Z" fill="url(#paint36_linear_185_3664)"/>
<path d="M1201.14 74.0596C1201.14 68.1766 1197.05 60.9862 1191.9 58.0446C1189.36 56.5739 1186.99 56.4105 1185.36 57.391L1155.09 74.795L1168.5 97.2654L1198.44 80.1061C1200.08 79.1256 1201.14 77.0012 1201.14 74.0596Z" fill="url(#paint37_linear_185_3664)"/>
<path d="M1161.63 75.5301C1156.48 72.5886 1152.31 74.9581 1152.31 80.8412C1152.31 86.7242 1156.4 93.9151 1161.55 96.8566C1166.7 99.7981 1170.88 97.4286 1170.88 91.5451C1170.88 85.5803 1166.79 78.4716 1161.63 75.5301Z" fill="#383838"/>
<path d="M1161.63 78.9623C1158.2 77.0013 1155.33 78.5537 1155.33 82.5575C1155.33 86.5612 1158.11 91.3821 1161.55 93.3434C1164.99 95.3044 1167.85 93.752 1167.85 89.7479C1167.85 85.8258 1165.07 80.9233 1161.63 78.9623Z" fill="url(#paint38_linear_185_3664)"/>
<path d="M1180.28 89.9927C1181.92 89.0939 1182.9 87.0512 1182.9 84.1913C1182.9 78.4717 1178.89 71.5264 1173.9 68.6666C1171.45 67.2775 1169.24 67.1141 1167.6 67.9312" stroke="#EE6D93" stroke-width="1.5" stroke-miterlimit="10" stroke-linecap="round" stroke-linejoin="round"/>
<path d="M1187.89 86.0708C1189.53 85.172 1190.51 83.1293 1190.51 80.2695C1190.51 74.5498 1186.5 67.6045 1181.51 64.7447C1179.06 63.3557 1176.85 63.1923 1175.21 64.0093" stroke="#EE6D93" stroke-width="1.5" stroke-miterlimit="10" stroke-linecap="round" stroke-linejoin="round"/>
<path d="M1233.54 92.3629C1233.54 86.4798 1229.45 79.2894 1224.29 76.3479C1221.76 74.8771 1219.39 74.7137 1217.75 75.6942L1187.48 93.0983L1200.9 115.568L1230.84 98.4094C1232.56 97.3472 1233.54 95.3045 1233.54 92.3629Z" fill="url(#paint39_linear_185_3664)"/>
<path d="M1194.03 93.7518C1188.87 90.8102 1184.7 93.1799 1184.7 99.0629C1184.7 104.946 1188.79 112.136 1193.95 115.078C1199.1 118.019 1203.27 115.65 1203.27 109.767C1203.35 103.884 1199.18 96.6934 1194.03 93.7518Z" fill="#383838"/>
<path d="M1194.03 97.2655C1190.59 95.3045 1187.73 96.8569 1187.73 100.861C1187.73 104.864 1190.51 109.685 1193.95 111.646C1197.38 113.607 1200.24 112.055 1200.24 108.051C1200.33 104.047 1197.46 99.2265 1194.03 97.2655Z" fill="url(#paint40_linear_185_3664)"/>
<path d="M1212.68 108.296C1214.31 107.397 1215.3 105.354 1215.3 102.495C1215.3 96.775 1211.29 89.8296 1206.3 86.9698C1203.84 85.5808 1201.63 85.4173 1200 86.2344" stroke="#EE6D93" stroke-width="1.5" stroke-miterlimit="10" stroke-linecap="round" stroke-linejoin="round"/>
<path d="M1220.29 104.374C1221.92 103.475 1222.9 101.433 1222.9 98.5728C1222.9 92.8531 1218.9 85.9078 1213.91 83.0479C1211.45 81.6589 1209.24 81.4955 1207.61 82.3126" stroke="#EE6D93" stroke-width="1.5" stroke-miterlimit="10" stroke-linecap="round" stroke-linejoin="round"/>
<path d="M1184.95 154.952L1119.5 192.62L1116.23 190.741" stroke="#EE6D93" stroke-width="1.5" stroke-miterlimit="10" stroke-linecap="round" stroke-linejoin="round"/>
<path d="M1096.68 179.465L1093.33 177.585" stroke="#EE6D93" stroke-width="1.5" stroke-miterlimit="10" stroke-linecap="round" stroke-linejoin="round"/>
<path d="M1184.95 147.516L1211.21 132.237" stroke="#EE6D93" stroke-width="1.5" stroke-miterlimit="10" stroke-linecap="round" stroke-linejoin="round"/>
<path d="M892.25 529.588L918.427 544.623L938.142 533.347" stroke="white" stroke-width="2" stroke-miterlimit="10" stroke-linejoin="round"/>
<path d="M852.901 507.772L879.079 522.888L898.712 511.531" stroke="white" stroke-width="2" stroke-miterlimit="10" stroke-linejoin="round"/>
<path d="M936.342 419.118L936.26 336.265L844.557 283.154" stroke="white" stroke-width="2" stroke-miterlimit="10" stroke-linecap="round" stroke-linejoin="round"/>
<path d="M923.172 230.451C919.572 228.327 916.627 230.043 916.546 234.21C916.464 238.377 919.491 243.443 923.09 245.568C926.689 247.692 929.634 245.976 929.716 241.809C929.798 237.642 926.853 232.576 923.172 230.451Z" fill="url(#paint41_linear_185_3664)"/>
<path d="M1019.78 128.07L1024.69 143.595L1036.14 137.058" stroke="#EE6D93" stroke-width="4" stroke-miterlimit="10" stroke-linecap="round" stroke-linejoin="round"/>
<path d="M1019.78 128.07L1024.69 143.595L1036.14 137.058" stroke="#EE6D93" stroke-width="4" stroke-miterlimit="10" stroke-linecap="round" stroke-linejoin="round"/>
<path d="M1033.44 138.61L1036.14 137.058" stroke="white" stroke-width="4" stroke-miterlimit="10" stroke-linecap="round" stroke-linejoin="round"/>
<path opacity="0.5" d="M1060.69 119.899H1027.96V146.863H1060.69V119.899Z" fill="white"/>
<path opacity="0.7" d="M1062.32 132.155H1059.05V148.497H1062.32V132.155Z" fill="url(#paint42_linear_185_3664)"/>
<path opacity="0.7" d="M1055.78 140.326H1052.5V148.497H1055.78V140.326Z" fill="url(#paint43_linear_185_3664)"/>
<path opacity="0.7" d="M1047.6 137.058H1044.32V148.497H1047.6V137.058Z" fill="url(#paint44_linear_185_3664)"/>
<path opacity="0.7" d="M964.974 137.058H961.702V148.497H964.974V137.058Z" fill="url(#paint45_linear_185_3664)"/>
<path opacity="0.7" d="M971.518 137.058H968.246V148.497H971.518V137.058Z" fill="url(#paint46_linear_185_3664)"/>
<path opacity="0.7" d="M978.063 137.058H974.791V148.497H978.063V137.058Z" fill="url(#paint47_linear_185_3664)"/>
<path opacity="0.5" d="M996.06 119.899H963.338V146.863H996.06V119.899Z" fill="white"/>
<path opacity="0.5" d="M982.971 105.191H969.064V132.155H982.971V105.191Z" fill="white"/>
<path opacity="0.5" d="M1033.69 101.105H1019.78V128.069H1033.69V101.105Z" fill="white"/>
<path d="M1000.97 149.314H1018.96V124.638C1018.96 124.229 1018.72 123.902 1018.31 123.821C1013.73 122.677 1008.98 122.432 1004.32 123.249C1002.36 123.576 1000.97 125.291 1000.97 127.252V149.314Z" fill="url(#paint48_linear_185_3664)"/>
<path d="M1004.23 133.53C1005.52 133.109 1005.83 130.508 1004.91 127.72C1004 124.933 1002.21 123.014 1000.92 123.436C999.637 123.858 999.333 126.458 1000.25 129.246C1001.16 132.033 1002.95 133.952 1004.23 133.53Z" fill="#FC7B90"/>
<path d="M1020.19 124.148L1023.06 125.7L1018.96 133.217V124.883C1018.96 124.229 1019.62 123.821 1020.19 124.148Z" fill="#FC7B90"/>
<g opacity="0.5">
<g opacity="0.5">
<path opacity="0.5" d="M1010.38 108.459C1007.02 108.459 1004.24 111.238 1004.24 114.588V123.167C1004.24 124.556 1007.02 125.618 1010.38 125.618C1013.73 125.618 1016.51 124.556 1016.51 123.167V114.588C1016.51 111.238 1013.73 108.459 1010.38 108.459Z" fill="url(#paint49_linear_185_3664)"/>
</g>
</g>
<path d="M1010.38 113.362C1011.93 113.362 1013.24 114.67 1013.24 116.222V124.802H1007.51V116.222C1007.51 114.67 1008.82 113.362 1010.38 113.362Z" fill="url(#paint50_linear_185_3664)"/>
<path d="M1001.38 188.535L1002.6 200.791L1001.95 205.612C1001.87 206.102 1002.28 206.511 1002.77 206.511H1008.58C1009.23 206.511 1009.56 205.857 1009.31 205.285L1006.78 200.791L1007.59 188.535H1001.38Z" fill="#FC7B90"/>
<path d="M1002.19 188.534L1000.97 149.314H1018.96L1018.64 188.534H1014.3L1011.6 156.668H1008.33L1006.69 188.534H1002.19Z" fill="url(#paint51_linear_185_3664)"/>
<path d="M1013.24 188.535V205.694C1013.24 206.184 1013.57 206.511 1014.06 206.511H1024.45C1025.26 206.511 1025.59 205.448 1024.94 205.04L1018.56 200.791L1019.78 188.535H1013.24Z" fill="#FC7B90"/>
<path d="M1014.06 124.801L1011.19 130.112L1007.51 124.801" fill="#FC7B90"/>
<path d="M1014.06 124.801L1011.19 130.112L1007.51 124.801" stroke="#FC7B90" stroke-miterlimit="10" stroke-linecap="round"/>
<path d="M1011.19 130.112V136.649L1015.28 139.1V142.369" fill="#FC7B90"/>
<path d="M1011.19 130.112V136.649L1015.28 139.1V142.369" stroke="#FC7B90" stroke-miterlimit="10" stroke-linecap="round"/>
<path d="M1011.19 136.649L1007.1 139.101V142.369" fill="#FC7B90"/>
<path d="M1011.19 136.649L1007.1 139.101V142.369" stroke="#FC7B90" stroke-miterlimit="10" stroke-linecap="round"/>
<path d="M1018.96 142.369H1000.97Z" fill="#FC7B90"/>
<path d="M1018.96 142.369H1000.97" stroke="#FC7B90" stroke-miterlimit="10"/>
<path d="M1002.6 128.887L999.332 144.411L995.16 134.28" stroke="#EE6D93" stroke-width="4" stroke-miterlimit="10" stroke-linecap="round" stroke-linejoin="round"/>
<path d="M995.16 134.28L993.605 130.521" stroke="white" stroke-width="4" stroke-miterlimit="10" stroke-linecap="round" stroke-linejoin="round"/>
<path d="M1009.15 122.35C1008.25 122.35 1007.51 121.615 1007.51 120.716V117.448C1007.51 116.549 1008.25 115.813 1009.15 115.813C1010.05 115.813 1010.78 116.549 1010.78 117.448V120.716C1010.78 121.615 1010.05 122.35 1009.15 122.35Z" fill="white"/>
<path d="M1004.24 172.192C1006.05 172.192 1007.51 170.729 1007.51 168.924C1007.51 167.119 1006.05 165.656 1004.24 165.656C1002.43 165.656 1000.97 167.119 1000.97 168.924C1000.97 170.729 1002.43 172.192 1004.24 172.192Z" fill="#FC7B90"/>
<path d="M1018.15 168.924H1012.67" stroke="white" stroke-miterlimit="10"/>
<path d="M1018.15 172.192C1019.5 172.192 1020.6 170.729 1020.6 168.924C1020.6 167.119 1019.5 165.656 1018.15 165.656C1016.79 165.656 1015.69 167.119 1015.69 168.924C1015.69 170.729 1016.79 172.192 1018.15 172.192Z" fill="#FC7B90"/>
<path d="M1018.96 146.046H1000.97V149.314H1018.96V146.046Z" fill="url(#paint52_linear_185_3664)"/>
<path d="M978.881 106.825H970.7V108.459H978.881V106.825Z" fill="white"/>
<path d="M980.517 110.094H970.7V111.728H980.517V110.094Z" fill="white"/>
<path d="M975.608 113.362H970.7V114.996H975.608V113.362Z" fill="white"/>
<path d="M980.517 113.362H978.062V114.996H980.517V113.362Z" fill="white"/>
<path opacity="0.7" d="M1057.41 123.984C1058.09 123.984 1058.64 123.435 1058.64 122.759C1058.64 122.082 1058.09 121.533 1057.41 121.533C1056.74 121.533 1056.19 122.082 1056.19 122.759C1056.19 123.435 1056.74 123.984 1057.41 123.984Z" fill="url(#paint53_linear_185_3664)"/>
<path opacity="0.7" d="M1053.32 123.984C1054 123.984 1054.55 123.435 1054.55 122.759C1054.55 122.082 1054 121.533 1053.32 121.533C1052.65 121.533 1052.1 122.082 1052.1 122.759C1052.1 123.435 1052.65 123.984 1053.32 123.984Z" fill="url(#paint54_linear_185_3664)"/>
<path opacity="0.7" d="M1049.23 123.984C1049.91 123.984 1050.46 123.435 1050.46 122.759C1050.46 122.082 1049.91 121.533 1049.23 121.533C1048.56 121.533 1048.01 122.082 1048.01 122.759C1048.01 123.435 1048.56 123.984 1049.23 123.984Z" fill="url(#paint55_linear_185_3664)"/>
<path opacity="0.5" d="M1056.6 127.252H1040.23V141.96H1056.6V127.252Z" fill="white"/>
<path d="M1322.46 554.592V339.86L1257.02 302.11" stroke="white" stroke-width="2" stroke-miterlimit="10"/>
<path d="M1296.28 332.343L1328.92 313.468L1296.28 286.994V332.343Z" fill="#1A1A1A"/>
<path d="M1243.93 302.11V256.843L1296.28 286.994V332.343L1243.93 302.11Z" fill="#383838"/>
<path d="M1296.28 309.709V286.994L1243.93 256.843V279.477L1296.28 309.709Z" fill="white"/>
<path d="M1322.46 501.808L1314.44 518.721L1322.54 526.402L1330.48 512.511L1322.46 501.808Z" fill="white"/>
<path d="M1322.54 526.402L1327.86 517.087L1322.46 501.808L1314.44 518.721L1322.54 526.402Z" fill="white"/>
<path d="M1327.86 517.087L1314.44 518.721L1322.54 526.402L1327.86 517.087Z" fill="white"/>
<path d="M1322.46 417.565C1319.92 419.036 1317.88 422.631 1317.88 425.573C1317.88 428.514 1319.92 429.658 1322.54 428.187C1325.16 426.717 1327.12 423.121 1327.12 420.18C1327.12 417.32 1325 416.094 1322.46 417.565Z" fill="white"/>
<path d="M1172.19 319.432C1169.65 320.903 1167.6 324.498 1167.6 327.44C1167.6 330.381 1169.65 331.525 1172.27 330.054C1174.8 328.584 1176.85 324.989 1176.85 322.047C1176.77 319.187 1174.72 317.962 1172.19 319.432Z" fill="white"/>
<path d="M1177.5 233.229C1174.64 234.21 1172.19 236.988 1172.02 239.439C1171.86 241.89 1173.98 243.034 1176.85 241.972C1179.71 240.992 1182.17 238.214 1182.33 235.762C1182.49 233.393 1180.37 232.249 1177.5 233.229Z" stroke="white" stroke-width="2" stroke-miterlimit="10" stroke-linejoin="round"/>
<path d="M1157.21 328.176C1154.68 329.646 1152.63 333.242 1152.63 336.183C1152.63 339.125 1154.68 340.269 1157.3 338.798C1159.83 337.327 1161.88 333.732 1161.88 330.79C1161.88 327.849 1159.75 326.705 1157.21 328.176Z" stroke="white" stroke-width="1.5" stroke-miterlimit="10"/>
<path d="M1322.46 440.362C1319.92 441.833 1317.88 445.428 1317.88 448.369C1317.88 451.311 1319.92 452.455 1322.54 450.984C1325.16 449.513 1327.12 445.918 1327.12 442.977C1327.12 440.035 1325 438.809 1322.46 440.362Z" fill="white"/>
<path d="M1312.64 300.231L1296.28 309.709V286.994L1312.64 300.231Z" fill="white"/>
<path d="M1270.11 203.978L1224.29 230.37L1243.93 188.861L1270.11 203.978Z" fill="#1A1A1A"/>
<path d="M1243.93 188.861L1224.29 230.37L1178.4 203.977L1198.04 162.469L1243.93 188.861Z" fill="#383838"/>
<path d="M1230.84 181.426L1211.21 223.016" stroke="white" stroke-width="2" stroke-miterlimit="10"/>
<path d="M1220.61 175.216L1200.9 216.969" stroke="white" stroke-width="2" stroke-miterlimit="10"/>
<path d="M1211.12 169.986L1191.49 211.576" stroke="white" stroke-width="2" stroke-miterlimit="10"/>
<path d="M920.39 278.17L921.372 290.753L918.754 297.78L906.238 306.523L897.812 305.052L885.051 297.371V284.625L886.605 276.699L900.593 268.283L908.937 270.489L920.39 278.17Z" fill="white"/>
<path d="M920.39 278.17L918.182 279.15L905.829 273.185L900.594 268.283L908.938 270.489L920.39 278.17Z" fill="white"/>
<path d="M905.829 273.185L896.83 283.154L885.051 284.625L886.605 276.699L900.593 268.283L905.829 273.185Z" fill="white"/>
<path d="M896.83 283.154L904.029 295.41L897.812 305.052L885.051 297.371V284.625L896.83 283.154Z" fill="white"/>
<path d="M904.029 295.41L916.709 292.55L918.754 297.78L906.238 306.523L897.812 305.052L904.029 295.41Z" fill="white"/>
<path d="M916.709 292.55L918.182 279.15L920.39 278.169L921.372 290.753L918.754 297.78L916.709 292.55Z" fill="white"/>
<path d="M1254.89 404.083L1255.38 409.966L1254.15 413.234L1248.26 417.32L1244.34 416.666L1238.45 413.071V407.106L1239.1 403.429L1245.65 399.507L1249.57 400.57L1254.89 404.083Z" fill="url(#paint56_linear_185_3664)"/>
<path d="M1254.89 404.083L1253.83 404.573L1248.1 401.795L1245.65 399.507L1249.57 400.57L1254.89 404.083Z" fill="#EE6D93"/>
<path d="M1248.1 401.795L1243.93 406.453L1238.45 407.106L1239.1 403.429L1245.65 399.507L1248.1 401.795Z" fill="url(#paint57_linear_185_3664)"/>
<path d="M1243.93 406.453L1247.28 412.172L1244.34 416.666L1238.45 413.071V407.106L1243.93 406.453Z" fill="url(#paint58_linear_185_3664)"/>
<path d="M1247.28 412.173L1253.17 410.865L1254.15 413.235L1248.26 417.32L1244.34 416.667L1247.28 412.173Z" fill="url(#paint59_linear_185_3664)"/>
<path d="M1253.17 410.865L1253.83 404.573L1254.89 404.083L1255.38 409.966L1254.15 413.234L1253.17 410.865Z" fill="url(#paint60_linear_185_3664)"/>
<path d="M1269.21 431.619L1269.45 434.887L1268.8 436.767L1265.52 439.055L1263.32 438.646L1259.96 436.603V433.253L1260.37 431.211L1264.05 429.004L1266.26 429.576L1269.21 431.619Z" fill="url(#paint61_linear_185_3664)"/>
<path d="M1269.21 431.619L1268.63 431.864L1265.44 430.312L1264.05 429.004L1266.26 429.576L1269.21 431.619Z" fill="#EE6D93"/>
<path d="M1265.44 430.312L1263.07 432.926L1259.96 433.253L1260.37 431.211L1264.05 429.004L1265.44 430.312Z" fill="url(#paint62_linear_185_3664)"/>
<path d="M1263.07 432.927L1264.95 436.113L1263.32 438.646L1259.96 436.604V433.254L1263.07 432.927Z" fill="url(#paint63_linear_185_3664)"/>
<path d="M1264.95 436.113L1268.31 435.378L1268.8 436.767L1265.52 439.055L1263.32 438.646L1264.95 436.113Z" fill="url(#paint64_linear_185_3664)"/>
<path d="M1268.31 435.378L1268.63 431.864L1269.21 431.619L1269.45 434.888L1268.8 436.767L1268.31 435.378Z" fill="url(#paint65_linear_185_3664)"/>
<path d="M1247.77 431.619L1248.02 434.887L1247.36 436.767L1244.01 439.055L1241.88 438.646L1238.53 436.603V433.253L1238.94 431.211L1242.54 429.004L1244.75 429.576L1247.77 431.619Z" fill="url(#paint66_linear_185_3664)"/>
<path d="M1247.77 431.619L1247.2 431.864L1243.93 430.312L1242.54 429.004L1244.75 429.576L1247.77 431.619Z" fill="#EE6D93"/>
<path d="M1243.93 430.312L1241.56 432.926L1238.53 433.253L1238.94 431.211L1242.54 429.004L1243.93 430.312Z" fill="url(#paint67_linear_185_3664)"/>
<path d="M1241.56 432.927L1243.52 436.113L1241.88 438.646L1238.53 436.604V433.254L1241.56 432.927Z" fill="url(#paint68_linear_185_3664)"/>
<path d="M1243.52 436.113L1246.79 435.378L1247.36 436.767L1244.01 439.055L1241.88 438.646L1243.52 436.113Z" fill="url(#paint69_linear_185_3664)"/>
<path d="M1246.79 435.378L1247.2 431.864L1247.77 431.619L1248.02 434.888L1247.36 436.767L1246.79 435.378Z" fill="url(#paint70_linear_185_3664)"/>
<path d="M1112.3 412.499L1113.04 422.141L1111.08 427.534L1101.42 434.316L1095.04 433.09L1085.23 427.207V417.484L1086.37 411.437L1097.17 404.9L1103.55 406.616L1112.3 412.499Z" fill="white"/>
<path d="M1112.3 412.499L1110.59 413.316L1101.1 408.659L1097.17 404.9L1103.55 406.616L1112.3 412.499Z" fill="white"/>
<path d="M1101.1 408.659L1094.23 416.34L1085.23 417.484L1086.37 411.437L1097.17 404.9L1101.1 408.659Z" fill="white"/>
<path d="M1094.23 416.339L1099.79 425.736L1095.04 433.09L1085.23 427.207V417.483L1094.23 416.339Z" fill="white"/>
<path d="M1099.79 425.736L1109.52 423.53L1111.08 427.534L1101.42 434.315L1095.04 433.09L1099.79 425.736Z" fill="white"/>
<path d="M1109.52 423.53L1110.59 413.316L1112.3 412.499L1113.04 422.141L1111.08 427.534L1109.52 423.53Z" fill="white"/>
<path opacity="0.5" d="M1331.79 180.037C1333.14 180.037 1334.24 178.939 1334.24 177.586C1334.24 176.232 1333.14 175.134 1331.79 175.134C1330.43 175.134 1329.33 176.232 1329.33 177.586C1329.33 178.939 1330.43 180.037 1331.79 180.037Z" fill="white"/>
<path d="M1259.96 408.904C1261.32 408.904 1262.42 407.807 1262.42 406.453C1262.42 405.099 1261.32 404.001 1259.96 404.001C1258.6 404.001 1257.51 405.099 1257.51 406.453C1257.51 407.807 1258.6 408.904 1259.96 408.904Z" fill="url(#paint71_linear_185_3664)"/>
<path d="M1255.38 429.168C1256.74 429.168 1257.83 428.071 1257.83 426.717C1257.83 425.363 1256.74 424.266 1255.38 424.266C1254.02 424.266 1252.93 425.363 1252.93 426.717C1252.93 428.071 1254.02 429.168 1255.38 429.168Z" fill="url(#paint72_linear_185_3664)"/>
<path d="M1230.84 405.636C1231.74 405.636 1232.48 404.904 1232.48 404.001C1232.48 403.099 1231.74 402.367 1230.84 402.367C1229.94 402.367 1229.2 403.099 1229.2 404.001C1229.2 404.904 1229.94 405.636 1230.84 405.636Z" fill="url(#paint73_linear_185_3664)"/>
<path d="M1265.44 451.556C1266.34 451.556 1267.08 450.825 1267.08 449.922C1267.08 449.02 1266.34 448.288 1265.44 448.288C1264.54 448.288 1263.81 449.02 1263.81 449.922C1263.81 450.825 1264.54 451.556 1265.44 451.556Z" fill="url(#paint74_linear_185_3664)"/>
<path d="M1217.75 437.747C1218.65 437.747 1219.39 437.016 1219.39 436.113C1219.39 435.21 1218.65 434.479 1217.75 434.479C1216.85 434.479 1216.11 435.21 1216.11 436.113C1216.11 437.016 1216.85 437.747 1217.75 437.747Z" fill="url(#paint75_linear_185_3664)"/>
<path d="M779.195 482.851C780.551 482.851 781.649 481.753 781.649 480.4C781.649 479.046 780.551 477.948 779.195 477.948C777.84 477.948 776.741 479.046 776.741 480.4C776.741 481.753 777.84 482.851 779.195 482.851Z" fill="url(#paint76_linear_185_3664)"/>
<path d="M923.09 246.139C923.993 246.139 924.726 245.408 924.726 244.505C924.726 243.602 923.993 242.871 923.09 242.871C922.186 242.871 921.454 243.602 921.454 244.505C921.454 245.408 922.186 246.139 923.09 246.139Z" fill="url(#paint77_linear_185_3664)"/>
<path d="M1106.5 212.721C1107.4 212.721 1108.13 211.988 1108.13 211.086C1108.13 210.183 1107.4 209.452 1106.5 209.452C1105.59 209.452 1104.86 210.183 1104.86 211.086C1104.86 211.988 1105.59 212.721 1106.5 212.721Z" fill="url(#paint78_linear_185_3664)"/>
<path d="M1077.05 181.834C1077.95 181.834 1078.68 181.102 1078.68 180.2C1078.68 179.297 1077.95 178.566 1077.05 178.566C1076.14 178.566 1075.41 179.297 1075.41 180.2C1075.41 181.102 1076.14 181.834 1077.05 181.834Z" fill="url(#paint79_linear_185_3664)"/>
<path d="M1089.32 207.246C1090.22 207.246 1090.95 206.515 1090.95 205.612C1090.95 204.71 1090.22 203.978 1089.32 203.978C1088.41 203.978 1087.68 204.71 1087.68 205.612C1087.68 206.515 1088.41 207.246 1089.32 207.246Z" fill="url(#paint80_linear_185_3664)"/>
<path d="M1065.59 209.452C1066.5 209.452 1067.23 208.72 1067.23 207.818C1067.23 206.915 1066.5 206.184 1065.59 206.184C1064.69 206.184 1063.96 206.915 1063.96 207.818C1063.96 208.72 1064.69 209.452 1065.59 209.452Z" fill="url(#paint81_linear_185_3664)"/>
<path d="M1091.77 154.625C1093.13 154.625 1094.23 153.528 1094.23 152.174C1094.23 150.82 1093.13 149.723 1091.77 149.723C1090.42 149.723 1089.32 150.82 1089.32 152.174C1089.32 153.528 1090.42 154.625 1091.77 154.625Z" fill="url(#paint82_linear_185_3664)"/>
<path d="M1096.68 171.376C1098.03 171.376 1099.13 170.278 1099.13 168.924C1099.13 167.57 1098.03 166.473 1096.68 166.473C1095.32 166.473 1094.23 167.57 1094.23 168.924C1094.23 170.278 1095.32 171.376 1096.68 171.376Z" fill="url(#paint83_linear_185_3664)"/>
<path d="M910.083 246.793C910.76 246.793 911.31 246.244 911.31 245.567C911.31 244.89 910.76 244.342 910.083 244.342C909.405 244.342 908.856 244.89 908.856 245.567C908.856 246.244 909.405 246.793 910.083 246.793Z" fill="url(#paint84_linear_185_3664)"/>
<path d="M917.363 231.922C917.815 231.922 918.182 231.556 918.182 231.105C918.182 230.653 917.815 230.288 917.363 230.288C916.912 230.288 916.545 230.653 916.545 231.105C916.545 231.556 916.912 231.922 917.363 231.922Z" fill="url(#paint85_linear_185_3664)"/>
<path d="M913.355 238.949C913.581 238.949 913.764 238.766 913.764 238.54C913.764 238.315 913.581 238.132 913.355 238.132C913.129 238.132 912.946 238.315 912.946 238.54C912.946 238.766 913.129 238.949 913.355 238.949Z" fill="url(#paint86_linear_185_3664)"/>
<path d="M909.919 252.921C910.145 252.921 910.328 252.738 910.328 252.513C910.328 252.287 910.145 252.104 909.919 252.104C909.693 252.104 909.51 252.287 909.51 252.513C909.51 252.738 909.693 252.921 909.919 252.921Z" fill="url(#paint87_linear_185_3664)"/>
<path d="M755.472 487.753C756.827 487.753 757.926 486.656 757.926 485.302C757.926 483.948 756.827 482.851 755.472 482.851C754.116 482.851 753.018 483.948 753.018 485.302C753.018 486.656 754.116 487.753 755.472 487.753Z" fill="url(#paint88_linear_185_3664)"/>
<path d="M770.524 508.099C771.879 508.099 772.978 507.001 772.978 505.648C772.978 504.294 771.879 503.196 770.524 503.196C769.168 503.196 768.07 504.294 768.07 505.648C768.07 507.001 769.168 508.099 770.524 508.099Z" fill="url(#paint89_linear_185_3664)"/>
<path d="M746.064 471.248C746.968 471.248 747.7 470.517 747.7 469.614C747.7 468.711 746.968 467.979 746.064 467.979C745.16 467.979 744.428 468.711 744.428 469.614C744.428 470.517 745.16 471.248 746.064 471.248Z" fill="url(#paint90_linear_185_3664)"/>
<path d="M798.91 492.983C799.814 492.983 800.546 492.251 800.546 491.349C800.546 490.446 799.814 489.714 798.91 489.714C798.007 489.714 797.274 490.446 797.274 491.349C797.274 492.251 798.007 492.983 798.91 492.983Z" fill="url(#paint91_linear_185_3664)"/>
<path d="M785.821 454.825C786.273 454.825 786.64 454.459 786.64 454.008C786.64 453.556 786.273 453.19 785.821 453.19C785.37 453.19 785.003 453.556 785.003 454.008C785.003 454.459 785.37 454.825 785.821 454.825Z" fill="url(#paint92_linear_185_3664)"/>
<path d="M766.188 465.202C766.64 465.202 767.006 464.836 767.006 464.384C767.006 463.933 766.64 463.567 766.188 463.567C765.737 463.567 765.37 463.933 765.37 464.384C765.37 464.836 765.737 465.202 766.188 465.202Z" fill="url(#paint93_linear_185_3664)"/>
<path d="M733.63 457.358C734.082 457.358 734.448 456.992 734.448 456.541C734.448 456.09 734.082 455.724 733.63 455.724C733.178 455.724 732.812 456.09 732.812 456.541C732.812 456.992 733.178 457.358 733.63 457.358Z" fill="url(#paint94_linear_185_3664)"/>
<path d="M761.771 437.257C762.222 437.257 762.589 436.892 762.589 436.44C762.589 435.989 762.222 435.623 761.771 435.623C761.319 435.623 760.953 435.989 760.953 436.44C760.953 436.892 761.319 437.257 761.771 437.257Z" fill="url(#paint95_linear_185_3664)"/>
<path d="M1269.78 404.001L1267.73 418.137L1261.84 415.196L1269.78 404.001Z" fill="url(#paint96_linear_185_3664)"/>
<path d="M1269.78 404.001L1267.73 418.137L1278.37 415.441L1269.78 404.001Z" fill="#FC7B90"/>
<path d="M1278.37 415.441L1269.78 425.981L1267.73 418.137L1278.37 415.441Z" fill="url(#paint97_linear_185_3664)"/>
<path d="M1269.78 425.981L1261.84 415.196L1267.73 418.137L1269.78 425.981Z" fill="url(#paint98_linear_185_3664)"/>
<path d="M1226.09 412.744L1224.62 422.631L1220.53 420.588L1226.09 412.744Z" fill="url(#paint99_linear_185_3664)"/>
<path d="M1226.09 412.744L1224.62 422.631L1232.07 420.752L1226.09 412.744Z" fill="#FC7B90"/>
<path d="M1232.07 420.752L1226.09 428.187L1224.62 422.631L1232.07 420.752Z" fill="url(#paint100_linear_185_3664)"/>
<path d="M1226.09 428.187L1220.53 420.588L1224.62 422.631L1226.09 428.187Z" fill="url(#paint101_linear_185_3664)"/>
<path d="M1289.82 366.334V373.769L1263.64 358.735L1263.56 351.136L1289.82 366.334Z" fill="url(#paint102_linear_185_3664)"/>
<path d="M1257.1 374.014V381.531L1230.92 366.415L1230.84 358.898L1257.1 374.014Z" fill="url(#paint103_linear_185_3664)"/>
<path d="M1217.75 309.954V317.39L1191.57 302.355V294.756L1217.75 309.954Z" fill="white"/>
<path d="M1178.48 279.722V287.157L1152.31 272.123V264.524L1178.48 279.722Z" fill="white"/>
<path d="M1217.67 377.691V385.127L1178.4 362.493V354.976L1217.67 377.691Z" fill="url(#paint104_linear_185_3664)"/>
<path d="M1191.65 377.854V385.29L1152.39 362.657L1152.31 355.058L1191.65 377.854Z" fill="url(#paint105_linear_185_3664)"/>
<path d="M1160.9 410.538C1159.67 409.803 1159.67 408.659 1160.9 407.924C1162.12 407.188 1164.17 407.188 1165.48 407.924C1166.7 408.659 1166.79 409.803 1165.48 410.538C1164.17 411.274 1162.12 411.274 1160.9 410.538ZM1166.54 407.188C1164.66 406.126 1161.55 406.126 1159.67 407.188C1157.79 408.25 1157.79 410.048 1159.67 411.192C1161.55 412.254 1164.66 412.254 1166.54 411.192C1168.42 410.13 1168.5 408.332 1166.54 407.188Z" fill="white"/>
<path d="M746.146 364.945L749.582 362.902L759.317 376.792L755.799 378.835L746.146 364.945Z" fill="#8F8F8F"/>
<path d="M755.799 378.835L759.317 376.792L757.844 378.182L754.408 380.143L755.799 378.835Z" fill="#C4C4C4"/>
<path d="M741.238 335.366L744.674 333.323C742.792 334.385 741.647 336.673 741.647 339.942C741.647 347.132 744.592 355.712 749.582 362.82L746.146 364.863C741.156 357.673 738.211 349.093 738.211 341.984C738.211 338.716 739.356 336.428 741.238 335.366Z" fill="#BEBEBE"/>
<path d="M739.602 332.587L743.038 330.545C745.328 329.237 748.519 329.401 752.036 331.444L748.6 333.486C745.083 331.444 741.892 331.198 739.602 332.587Z" fill="#BEBEBE"/>
<path d="M755.226 337.245V339.942L748.6 336.101C742.874 332.833 738.293 335.448 738.211 341.984C738.211 349.175 741.156 357.754 746.146 364.863L755.799 378.754L754.408 380.061L744.755 366.17C739.193 358.163 735.839 348.603 735.92 340.595C735.92 332.588 741.647 329.32 748.6 333.405L755.226 337.245Z" fill="#B4B4B4"/>
<path d="M755.227 337.245L758.662 335.284V337.899L755.227 339.942V337.245Z" fill="#9B9B9B"/>
<path d="M748.6 333.405L752.036 331.444L758.662 335.284L755.227 337.245L748.6 333.405Z" fill="#CACACA"/>
<path d="M783.04 399.181C764.961 399.181 750.318 384.555 750.318 366.497V346.07H815.762V366.497C815.762 384.555 801.119 399.181 783.04 399.181Z" fill="url(#paint106_linear_185_3664)"/>
<path d="M803.819 334.875C792.284 328.257 773.633 328.257 762.18 334.875C750.727 341.494 750.809 352.361 762.344 358.98C773.878 365.598 792.53 365.598 803.982 358.98C815.435 352.361 815.353 341.494 803.819 334.875Z" fill="url(#paint107_linear_185_3664)"/>
<path d="M762.344 358.98C750.809 352.361 750.727 341.494 762.18 334.875C773.633 328.257 792.284 328.257 803.819 334.875C815.353 341.494 815.435 352.361 803.982 358.98C792.529 365.598 773.796 365.598 762.344 358.98ZM806.109 333.568C793.266 326.214 772.569 326.214 759.808 333.568C747.046 340.922 747.128 352.932 759.971 360.368C772.815 367.722 793.511 367.722 806.273 360.368C819.034 352.932 818.952 340.922 806.109 333.568Z" fill="white"/>
<g opacity="0.6">
<path opacity="0.6" d="M755.063 351.544C755.063 351.544 758.826 322.129 748.273 302.927C735.43 279.803 757.19 249.898 757.19 249.898H812.899C812.899 249.898 790.402 285.115 802.346 305.542C820.179 336.101 811.672 351.708 811.672 351.708L755.063 351.544Z" fill="url(#paint108_linear_185_3664)"/>
</g>
<g opacity="0.3">
<path opacity="0.3" d="M755.063 351.544C755.063 351.544 758.826 322.129 748.273 302.927C735.43 279.803 757.19 249.898 757.19 249.898C757.19 249.898 742.301 288.873 765.861 305.542C794.738 326.051 795.311 351.708 795.311 351.708L755.063 351.544Z" fill="url(#paint109_linear_185_3664)"/>
</g>
<g opacity="0.6">
<path opacity="0.6" d="M774.696 351.544C774.696 351.544 799.974 337.98 791.63 310.363C783.367 283.154 812.817 249.898 812.817 249.898C812.817 249.898 790.321 285.115 802.264 305.542C820.098 336.101 811.59 351.708 811.59 351.708L774.696 351.544Z" fill="url(#paint110_linear_185_3664)"/>
</g>
<path d="M803.818 342.556C792.284 335.856 773.633 335.856 762.18 342.556C758.171 344.926 755.636 347.704 754.408 350.727C755.636 353.751 758.253 356.61 762.344 358.98C773.878 365.598 792.529 365.598 803.982 358.98C807.991 356.692 810.608 353.832 811.754 350.809C810.526 347.786 807.909 344.926 803.818 342.556Z" fill="url(#paint111_linear_185_3664)"/>
<path d="M1333.75 187.962C1322.87 181.671 1305.36 181.671 1294.56 187.962C1283.77 194.254 1283.85 204.386 1294.73 210.596C1305.61 216.887 1323.11 216.887 1333.91 210.596C1344.71 204.304 1344.55 194.172 1333.75 187.962Z" fill="url(#paint112_linear_185_3664)"/>
<path d="M1259.75 101.61H1251.49H1243.31L1224 191L1251.49 193.451L1278.97 191L1259.75 101.61Z" fill="url(#paint113_linear_185_3664)"/>
<path d="M1325.73 192.62C1319.35 188.943 1308.96 188.943 1302.58 192.62C1296.2 196.297 1296.28 202.343 1302.66 206.02C1309.04 209.697 1319.43 209.697 1325.81 206.02C1332.2 202.262 1332.11 196.297 1325.73 192.62Z" fill="url(#paint114_linear_185_3664)"/>
<path d="M1289.74 86.97L1243.93 60.578L1276.65 41.7031L1322.46 68.0952L1289.74 86.97Z" fill="#424242"/>
<path d="M1322.46 68.0952V71.6087L1289.74 90.4018V86.97L1322.46 68.0952Z" fill="#1A1A1A"/>
<path d="M1289.74 86.9702V90.402L1243.93 64.0099V60.5781L1289.74 86.9702Z" fill="#5C5C5C"/>
<path d="M1329 124.72V86.97L1361.73 68.0952V105.845L1329 124.72Z" fill="#1A1A1A"/>
<path d="M1329 86.97L1296.28 68.0952V105.845L1329 124.72V86.97Z" fill="#5C5C5C"/>
<path d="M1361.73 68.095L1328.92 49.2202L1296.28 68.095L1329 86.9698L1361.73 68.095Z" fill="#424242"/>
<path d="M1328.92 79.5342L1348.64 68.0949L1335.55 53.0605L1329 56.8191L1328.92 79.5342Z" fill="#1A1A1A"/>
<path d="M1328.92 79.5346L1309.29 68.0953V45.4619L1329 56.8195L1328.92 79.5346Z" fill="#5C5C5C"/>
<path d="M1381.28 132.319L1335.55 105.845L1368.27 86.9702L1414 113.444L1381.28 132.319Z" fill="#424242"/>
<path d="M1414 113.444V116.876L1381.28 135.75V132.319L1414 113.444Z" fill="#1A1A1A"/>
<path d="M1381.28 132.318V135.75L1335.55 109.358V105.845L1381.28 132.318Z" fill="#5C5C5C"/>
<path d="M1381.36 94.5688L1348.64 113.444V117.202" stroke="white" stroke-width="2" stroke-miterlimit="10" stroke-linecap="round"/>
<path d="M1387.9 98.3276L1355.1 117.202V120.961" stroke="white" stroke-width="2" stroke-miterlimit="10" stroke-linecap="round"/>
<path d="M1394.45 102.086L1361.73 120.961V124.72" stroke="white" stroke-width="2" stroke-miterlimit="10" stroke-linecap="round"/>
<path d="M1400.99 105.845L1368.27 124.72V128.478" stroke="white" stroke-width="2" stroke-miterlimit="10" stroke-linecap="round"/>
<path d="M1289.74 49.2202L1257.02 68.095V71.8536" stroke="white" stroke-width="2" stroke-miterlimit="10" stroke-linecap="round"/>
<path d="M1296.28 53.0605L1263.48 71.8536V75.694" stroke="white" stroke-width="2" stroke-miterlimit="10" stroke-linecap="round"/>
<path d="M1302.83 56.8193L1270.11 75.6942V79.4528" stroke="white" stroke-width="2" stroke-miterlimit="10" stroke-linecap="round"/>
<path d="M1309.37 60.5776L1276.65 79.4525V83.2111" stroke="white" stroke-width="2" stroke-miterlimit="10" stroke-linecap="round"/>
<path d="M1304.55 77.9003C1326.22 77.9003 1343.73 62.7024 1343.73 43.991C1343.73 25.2796 1326.14 10 1304.55 10V77.9003Z" fill="#1A1A1A"/>
<path d="M1304.55 77.8186C1319.05 77.8186 1330.8 62.6369 1330.8 43.9093C1330.8 25.1817 1319.05 10 1304.55 10C1290.04 10 1278.29 25.1817 1278.29 43.9093C1278.29 62.6369 1290.04 77.8186 1304.55 77.8186Z" fill="#383838"/>
<path d="M1317.06 53.7962C1314.44 53.7962 1312.32 49.3839 1312.32 43.9911C1312.32 38.5983 1314.44 34.186 1317.06 34.186" stroke="white" stroke-width="2" stroke-miterlimit="10"/>
<path d="M1322.79 53.7962C1320.17 53.7962 1318.04 49.3839 1318.04 43.9911C1318.04 38.5983 1320.17 34.186 1322.79 34.186" stroke="white" stroke-width="2" stroke-miterlimit="10"/>
<path d="M1305.12 43.9092H1330.72" stroke="#1A1A1A" stroke-width="2" stroke-miterlimit="10"/>
<path d="M1317.06 34.104C1319.68 34.104 1321.81 38.5163 1321.81 43.9091C1321.81 49.3019 1319.68 53.7142 1317.06 53.7142" stroke="white" stroke-width="2" stroke-miterlimit="10"/>
<path d="M1322.79 34.104C1325.41 34.104 1327.53 38.5163 1327.53 43.9091C1327.53 49.3019 1325.41 53.7142 1322.79 53.7142" stroke="white" stroke-width="2" stroke-miterlimit="10"/>
<path d="M1304.55 50.3646C1308.11 50.3646 1311.01 47.4746 1311.01 43.9096C1311.01 40.3446 1308.11 37.4546 1304.55 37.4546C1300.98 37.4546 1298.08 40.3446 1298.08 43.9096C1298.08 47.4746 1300.98 50.3646 1304.55 50.3646Z" fill="white"/>
<path d="M1302.83 102.086L1309.37 98.3276L1322.46 105.927V113.444L1302.83 102.086Z" fill="#383838"/>
<path d="M1309.37 98.3277L1309.45 83.2116L1302.75 79.5347L1302.83 102.086L1309.37 98.3277Z" fill="#1A1A1A"/>
<path d="M1309.45 83.2114L1264.54 108.459L1292.03 123.984L1322.46 105.926L1309.45 83.2114Z" fill="url(#paint115_linear_185_3664)"/>
<path d="M1322.46 90.8104V105.926L1309.37 98.3275L1309.45 83.2114L1322.46 90.8104Z" fill="url(#paint116_linear_185_3664)"/>
<path d="M770.033 458.91L764.307 468.797L775.432 475.17L764.389 494.208L769.788 497.232L780.831 478.193L775.514 462.015L770.033 458.91Z" fill="url(#paint117_linear_185_3664)"/>
<path d="M749.991 470.921L755.472 474.026L739.029 502.298L733.63 499.193L749.991 470.921Z" fill="url(#paint118_linear_185_3664)"/>
<path d="M775.514 462.015L769.788 471.902L780.831 478.194L769.788 497.232L775.596 500.582L792.366 471.575L775.514 462.015Z" fill="url(#paint119_linear_185_3664)"/>
<path d="M755.39 474.026L761.035 477.213L750.237 495.843L761.117 501.971L755.554 511.694L739.029 502.298L755.39 474.026Z" fill="url(#paint120_linear_185_3664)"/>
<path d="M937.078 441.424L884.805 410.865" stroke="white" stroke-width="2" stroke-miterlimit="10" stroke-linecap="round" stroke-linejoin="round"/>
<path d="M975.527 494.862L962.438 502.38V512.103" stroke="white" stroke-width="2" stroke-miterlimit="10" stroke-linecap="round" stroke-linejoin="round"/>
<path d="M962.029 523.87C959.493 522.399 957.366 518.803 957.366 515.861C957.366 512.92 959.493 511.695 962.029 513.247C964.565 514.718 966.692 518.313 966.692 521.254C966.692 524.196 964.565 525.34 962.029 523.87ZM962.029 511.205C958.511 509.162 955.648 510.796 955.648 514.882C955.648 518.967 958.511 523.87 962.029 525.912C965.547 527.955 968.41 526.321 968.41 522.235C968.41 518.15 965.547 513.247 962.029 511.205Z" fill="white"/>
<path d="M1008.25 513.247L995.242 520.764V530.487" stroke="white" stroke-width="2" stroke-miterlimit="10" stroke-linecap="round" stroke-linejoin="round"/>
<path d="M994.751 542.254C992.215 540.784 990.088 537.187 990.088 534.246C990.088 531.304 992.215 530.161 994.751 531.632C997.287 533.103 999.414 536.697 999.414 539.639C999.414 542.499 997.287 543.725 994.751 542.254ZM994.832 529.589C991.315 527.547 988.452 529.181 988.452 533.266C988.452 537.352 991.315 542.254 994.832 544.297C998.35 546.34 1001.21 544.706 1001.21 540.62C1001.13 536.535 998.35 531.632 994.832 529.589Z" fill="white"/>
<path d="M1318.3 199.572L1297.48 163.789C1296.99 162.936 1296.87 161.943 1297.15 161.012C1297.28 160.566 1297.51 160.146 1297.82 159.777C1298.13 159.402 1298.52 159.09 1298.97 158.859C1299.4 158.638 1299.88 158.501 1300.37 158.457C1300.86 158.413 1301.36 158.462 1301.83 158.603C1302.3 158.741 1302.73 158.961 1303.1 159.25C1303.49 159.555 1303.81 159.926 1304.05 160.344L1304.91 161.852L1313.9 146.144C1313.91 146.134 1313.91 146.122 1313.92 146.112C1313.92 146.101 1313.93 146.09 1313.94 146.079C1313.94 146.068 1313.95 146.058 1313.96 146.047C1313.96 146.036 1313.97 146.025 1313.98 146.014L1306.43 131.91C1306.19 131.475 1306.04 131.005 1305.99 130.523C1305.94 130.073 1305.98 129.619 1306.11 129.182C1306.23 128.768 1306.45 128.38 1306.74 128.044C1307.04 127.712 1307.41 127.444 1307.83 127.263C1308.26 127.082 1308.72 126.992 1309.19 127.001C1309.66 127.01 1310.12 127.106 1310.54 127.281C1310.99 127.464 1311.4 127.719 1311.74 128.033C1312.11 128.368 1312.42 128.76 1312.64 129.189L1331.61 165.521C1331.82 165.909 1331.94 166.326 1331.98 166.754C1332.02 167.171 1331.99 167.592 1331.88 167.999C1331.77 168.398 1331.59 168.778 1331.34 169.121C1331.1 169.461 1330.78 169.752 1330.41 169.979C1330.06 170.196 1329.66 170.338 1329.24 170.395C1328.84 170.447 1328.43 170.418 1328.04 170.308C1327.64 170.194 1327.28 170.004 1326.96 169.751C1326.62 169.473 1326.34 169.137 1326.15 168.76L1326.05 168.576L1317.51 184.095L1324.06 195.664C1324.27 196.047 1324.41 196.463 1324.45 196.891C1324.49 197.322 1324.46 197.758 1324.34 198.179C1324.23 198.606 1324.04 199.013 1323.78 199.384C1323.52 199.76 1323.19 200.091 1322.8 200.361C1322.68 200.445 1322.55 200.523 1322.42 200.594C1322.29 200.661 1322.16 200.721 1322.02 200.774C1321.89 200.824 1321.75 200.866 1321.62 200.901C1321.48 200.934 1321.35 200.959 1321.21 200.976C1320.93 201.011 1320.64 201.007 1320.36 200.964C1320.08 200.921 1319.81 200.839 1319.56 200.72C1319.3 200.599 1319.06 200.442 1318.85 200.254C1318.63 200.053 1318.45 199.823 1318.3 199.572ZM1312.65 175.527L1321.27 159.71L1321.28 159.702C1321.28 159.702 1321.28 159.698 1321.28 159.695C1321.28 159.693 1321.28 159.69 1321.28 159.688C1321.28 159.686 1321.28 159.683 1321.29 159.681L1318.97 155.341L1310 170.856L1312.65 175.527Z" fill="white"/>
<path d="M1318.97 202.446C1319.12 202.429 1319.27 202.402 1319.41 202.366C1319.55 202.33 1319.69 202.286 1319.83 202.232C1319.97 202.179 1320.11 202.116 1320.24 202.046C1320.37 201.976 1320.5 201.898 1320.63 201.812C1320.84 201.665 1321.04 201.499 1321.22 201.318C1321.4 201.137 1321.56 200.942 1321.69 200.734C1321.83 200.526 1321.94 200.307 1322.03 200.079C1322.12 199.852 1322.19 199.616 1322.23 199.376C1322.26 199.205 1322.27 199.036 1322.27 198.87C1322.27 198.702 1322.26 198.537 1322.23 198.375C1322.2 198.214 1322.16 198.055 1322.11 197.902C1322.05 197.747 1321.98 197.597 1321.9 197.452L1314.58 184.63L1314.39 184.289L1314.59 183.929L1324.12 166.728L1324.37 166.275L1324.62 166.733L1324.72 166.936C1324.87 167.199 1325.04 167.435 1325.24 167.642C1325.44 167.849 1325.67 168.026 1325.91 168.17C1326.16 168.314 1326.42 168.424 1326.7 168.496C1326.97 168.569 1327.26 168.605 1327.56 168.6C1327.69 168.597 1327.83 168.586 1327.96 168.565C1328.1 168.544 1328.23 168.514 1328.37 168.476C1328.5 168.438 1328.63 168.391 1328.75 168.336C1328.88 168.281 1329 168.218 1329.12 168.146C1329.33 168.023 1329.52 167.88 1329.69 167.72C1329.86 167.56 1330.01 167.384 1330.14 167.194C1330.27 167.004 1330.37 166.801 1330.46 166.588C1330.55 166.374 1330.61 166.151 1330.65 165.92C1330.67 165.757 1330.69 165.594 1330.69 165.431C1330.69 165.269 1330.67 165.107 1330.65 164.947C1330.62 164.787 1330.58 164.629 1330.53 164.473C1330.47 164.317 1330.41 164.164 1330.33 164.016L1309.16 123.746C1309 123.452 1308.81 123.179 1308.59 122.933C1308.37 122.686 1308.12 122.467 1307.85 122.28C1307.57 122.092 1307.28 121.936 1306.97 121.817C1306.66 121.698 1306.33 121.616 1306 121.576C1305.84 121.558 1305.68 121.549 1305.53 121.551C1305.38 121.552 1305.22 121.563 1305.07 121.584C1304.92 121.605 1304.77 121.635 1304.62 121.674C1304.48 121.714 1304.34 121.763 1304.2 121.822C1303.96 121.924 1303.74 122.049 1303.54 122.196C1303.34 122.343 1303.17 122.511 1303.01 122.697C1302.86 122.884 1302.73 123.088 1302.63 123.307C1302.53 123.526 1302.46 123.76 1302.41 124.006C1302.38 124.179 1302.37 124.354 1302.37 124.53C1302.37 124.706 1302.38 124.884 1302.41 125.061C1302.45 125.238 1302.49 125.415 1302.55 125.59C1302.62 125.765 1302.69 125.939 1302.79 126.11L1311.18 141.734L1311.38 142.098L1311.18 142.436C1311.17 142.449 1311.17 142.46 1311.16 142.473C1311.15 142.485 1311.14 142.497 1311.14 142.509C1311.13 142.521 1311.12 142.534 1311.12 142.546C1311.11 142.558 1311.1 142.57 1311.1 142.583L1301.09 159.981L1300.81 160.478L1300.52 159.977L1299.57 158.305C1299.4 158.019 1299.2 157.758 1298.97 157.528C1298.73 157.298 1298.47 157.098 1298.18 156.934C1297.89 156.769 1297.58 156.639 1297.25 156.55C1296.93 156.46 1296.58 156.409 1296.23 156.403C1296.06 156.4 1295.9 156.408 1295.73 156.425C1295.57 156.441 1295.41 156.468 1295.25 156.504C1295.09 156.541 1294.93 156.587 1294.78 156.642C1294.62 156.698 1294.47 156.763 1294.33 156.837C1294.07 156.965 1293.84 157.116 1293.64 157.287C1293.43 157.458 1293.24 157.649 1293.08 157.856C1292.92 158.063 1292.78 158.286 1292.68 158.52C1292.57 158.756 1292.49 159.004 1292.44 159.261C1292.41 159.443 1292.39 159.625 1292.39 159.807C1292.39 159.989 1292.41 160.171 1292.44 160.351C1292.48 160.531 1292.53 160.709 1292.59 160.884C1292.66 161.059 1292.74 161.23 1292.84 161.398L1316 201.042C1316.14 201.296 1316.33 201.52 1316.54 201.711C1316.75 201.902 1316.99 202.06 1317.24 202.181C1317.5 202.302 1317.78 202.386 1318.07 202.432C1318.36 202.477 1318.66 202.483 1318.97 202.446ZM1316.48 151.594L1316.74 152.068L1319.32 156.877L1319.5 157.203L1319.33 157.538C1319.33 157.544 1319.32 157.551 1319.32 157.558C1319.32 157.564 1319.31 157.57 1319.31 157.576C1319.31 157.582 1319.3 157.588 1319.3 157.593C1319.3 157.599 1319.29 157.604 1319.29 157.609L1309.71 175.116L1309.44 175.613L1309.17 175.136L1306.21 169.957L1306.01 169.599L1306.22 169.239L1316.22 152.044L1316.48 151.594ZM1318.97 202.974C1318.65 203.013 1318.33 203.008 1318.02 202.961C1317.71 202.913 1317.41 202.822 1317.13 202.691C1316.84 202.559 1316.58 202.387 1316.35 202.174C1316.11 201.961 1315.9 201.708 1315.73 201.417L1292.54 161.766C1292.25 161.276 1292.08 160.755 1292.02 160.232C1291.96 159.709 1292.02 159.184 1292.17 158.689C1292.32 158.193 1292.57 157.726 1292.91 157.318C1293.25 156.911 1293.68 156.562 1294.19 156.302C1294.36 156.22 1294.52 156.149 1294.69 156.089C1294.86 156.029 1295.03 155.981 1295.2 155.943C1295.37 155.904 1295.54 155.877 1295.71 155.86C1295.88 155.843 1296.06 155.836 1296.23 155.839C1296.6 155.846 1296.96 155.901 1297.31 155.997C1297.66 156.093 1298 156.232 1298.31 156.412C1298.63 156.591 1298.92 156.811 1299.18 157.068C1299.44 157.325 1299.67 157.619 1299.85 157.947L1300.81 159.619L1310.83 142.213C1310.84 142.201 1310.84 142.189 1310.85 142.177C1310.86 142.165 1310.86 142.153 1310.87 142.14C1310.88 142.128 1310.89 142.116 1310.89 142.104C1310.9 142.092 1310.91 142.08 1310.91 142.068L1302.5 126.439C1302.23 125.937 1302.07 125.416 1302.02 124.903C1301.96 124.389 1302.01 123.885 1302.15 123.417C1302.29 122.95 1302.53 122.52 1302.86 122.156C1303.18 121.793 1303.59 121.494 1304.07 121.289C1304.22 121.224 1304.38 121.17 1304.54 121.128C1304.7 121.085 1304.86 121.053 1305.02 121.032C1305.18 121.011 1305.35 121.001 1305.51 121C1305.67 120.999 1305.83 121.009 1306 121.028C1306.34 121.07 1306.69 121.156 1307.02 121.283C1307.35 121.411 1307.67 121.579 1307.97 121.784C1308.27 121.988 1308.54 122.23 1308.79 122.506C1309.03 122.78 1309.25 123.088 1309.43 123.425L1330.57 163.685C1330.8 164.121 1330.93 164.585 1330.98 165.051C1331.03 165.516 1330.99 165.986 1330.87 166.431C1330.75 166.877 1330.55 167.299 1330.27 167.674C1330 168.049 1329.65 168.375 1329.23 168.625C1329.1 168.705 1328.96 168.775 1328.83 168.834C1328.69 168.894 1328.55 168.945 1328.41 168.984C1328.27 169.025 1328.13 169.055 1327.98 169.078C1327.84 169.099 1327.7 169.111 1327.56 169.114C1327.25 169.12 1326.94 169.084 1326.65 169.007C1326.35 168.929 1326.07 168.811 1325.8 168.655C1325.53 168.499 1325.28 168.304 1325.06 168.074C1324.84 167.843 1324.64 167.576 1324.48 167.274L1324.37 167.07L1314.85 184.267L1322.15 197.088C1322.39 197.511 1322.53 197.973 1322.58 198.447C1322.63 198.92 1322.59 199.405 1322.46 199.874C1322.33 200.344 1322.12 200.799 1321.84 201.21C1321.55 201.623 1321.18 201.993 1320.74 202.292C1320.6 202.388 1320.46 202.474 1320.32 202.55C1320.17 202.627 1320.02 202.693 1319.87 202.75C1319.73 202.807 1319.58 202.854 1319.43 202.891C1319.28 202.928 1319.12 202.956 1318.97 202.974ZM1316.48 152.404L1306.49 169.597L1309.44 174.775L1319.04 157.245C1319.05 157.242 1319.05 157.239 1319.05 157.237C1319.05 157.234 1319.05 157.232 1319.05 157.229C1319.06 157.227 1319.06 157.224 1319.06 157.222C1319.06 157.219 1319.06 157.216 1319.06 157.214L1316.48 152.404Z" fill="white"/>
</g>
</g>
<defs>
<filter id="filter0_f_185_3664" x="260" y="164.639" width="1202" height="743.954" filterUnits="userSpaceOnUse" color-interpolation-filters="sRGB">
<feFlood flood-opacity="0" result="BackgroundImageFix"/>
<feBlend mode="normal" in="SourceGraphic" in2="BackgroundImageFix" result="shape"/>
<feGaussianBlur stdDeviation="24" result="effect1_foregroundBlur_185_3664"/>
</filter>
<radialGradient id="paint0_radial_185_3664" cx="0" cy="0" r="1" gradientUnits="userSpaceOnUse" gradientTransform="translate(855.468 546.908) rotate(-180) scale(547.468 308.43)">
<stop stop-color="#A2163B"/>
<stop offset="1" stop-color="#FC7B90" stop-opacity="0"/>
</radialGradient>
<linearGradient id="paint1_linear_185_3664" x1="939.573" y1="241.6" x2="939.573" y2="297.413" gradientUnits="userSpaceOnUse">
<stop stop-color="#F7C6B8" stop-opacity="0"/>
<stop offset="1" stop-color="#EE6D93"/>
</linearGradient>
<linearGradient id="paint2_linear_185_3664" x1="939.573" y1="254.673" x2="939.573" y2="310.486" gradientUnits="userSpaceOnUse">
<stop stop-color="#F7C6B8" stop-opacity="0"/>
<stop offset="1" stop-color="#EE6D93"/>
</linearGradient>
<linearGradient id="paint3_linear_185_3664" x1="1186.86" y1="695.311" x2="1232.84" y2="310.372" gradientUnits="userSpaceOnUse">
<stop stop-color="#EE6D93"/>
<stop offset="1" stop-color="#F7C6B8" stop-opacity="0"/>
</linearGradient>
<linearGradient id="paint4_linear_185_3664" x1="783.068" y1="403.305" x2="783.068" y2="451.243" gradientUnits="userSpaceOnUse">
<stop stop-color="#CDCDCD" stop-opacity="0"/>
<stop offset="1" stop-color="#FDFFFE"/>
</linearGradient>
<linearGradient id="paint5_linear_185_3664" x1="783.068" y1="386.963" x2="783.068" y2="434.902" gradientUnits="userSpaceOnUse">
<stop stop-color="#CDCDCD" stop-opacity="0"/>
<stop offset="1" stop-color="#FDFFFE"/>
</linearGradient>
<linearGradient id="paint6_linear_185_3664" x1="1185.03" y1="421.509" x2="1185.03" y2="310.525" gradientUnits="userSpaceOnUse">
<stop stop-color="#2E2E2E"/>
<stop offset="1" stop-color="#B6B6B6"/>
</linearGradient>
<linearGradient id="paint7_linear_185_3664" x1="1263.56" y1="552.675" x2="1263.56" y2="343.357" gradientUnits="userSpaceOnUse">
<stop stop-color="#626262"/>
<stop offset="1" stop-color="#737373"/>
</linearGradient>
<linearGradient id="paint8_linear_185_3664" x1="1219.6" y1="248.494" x2="1216.92" y2="205.844" gradientUnits="userSpaceOnUse">
<stop stop-color="#FD7C92"/>
<stop offset="1" stop-color="#A1153A"/>
</linearGradient>
<linearGradient id="paint9_linear_185_3664" x1="1222.13" y1="232.251" x2="1230.16" y2="213.118" gradientUnits="userSpaceOnUse">
<stop stop-color="#FB7A90"/>
<stop offset="1" stop-color="#A3173C"/>
</linearGradient>
<linearGradient id="paint10_linear_185_3664" x1="1126.6" y1="124.326" x2="1142.72" y2="154.142" gradientUnits="userSpaceOnUse">
<stop stop-color="#707070"/>
<stop offset="1" stop-color="#2B2B2C"/>
</linearGradient>
<linearGradient id="paint11_linear_185_3664" x1="1126.13" y1="124.678" x2="1152.32" y2="124.678" gradientUnits="userSpaceOnUse">
<stop stop-color="#FC7B91"/>
<stop offset="1" stop-color="#A2173B"/>
</linearGradient>
<linearGradient id="paint12_linear_185_3664" x1="956.063" y1="183.374" x2="916.549" y2="187.187" gradientUnits="userSpaceOnUse">
<stop stop-color="#474747"/>
<stop offset="1" stop-color="#5E5E5E"/>
</linearGradient>
<linearGradient id="paint13_linear_185_3664" x1="798.586" y1="405.786" x2="909.284" y2="319.076" gradientUnits="userSpaceOnUse">
<stop stop-color="#F5F5F5" stop-opacity="0"/>
<stop offset="1" stop-color="white"/>
</linearGradient>
<linearGradient id="paint14_linear_185_3664" x1="1325.07" y1="421.847" x2="1344.73" y2="437.332" gradientUnits="userSpaceOnUse">
<stop stop-color="white" stop-opacity="0.5"/>
<stop offset="1" stop-color="#DCDCDC" stop-opacity="0"/>
</linearGradient>
<linearGradient id="paint15_linear_185_3664" x1="1325.07" y1="444.599" x2="1344.73" y2="460.084" gradientUnits="userSpaceOnUse">
<stop stop-color="#D3D3D3" stop-opacity="0.5"/>
<stop offset="1" stop-color="white" stop-opacity="0"/>
</linearGradient>
<linearGradient id="paint16_linear_185_3664" x1="948.904" y1="185.12" x2="913.544" y2="185.12" gradientUnits="userSpaceOnUse">
<stop stop-color="white"/>
<stop offset="1" stop-color="#454545"/>
</linearGradient>
<linearGradient id="paint17_linear_185_3664" x1="839.112" y1="392.798" x2="854.878" y2="392.798" gradientUnits="userSpaceOnUse">
<stop stop-color="#FD7C91"/>
<stop offset="1" stop-color="#A2163B"/>
</linearGradient>
<linearGradient id="paint18_linear_185_3664" x1="832.517" y1="421.782" x2="846.995" y2="421.782" gradientUnits="userSpaceOnUse">
<stop stop-color="#FD7D92"/>
<stop offset="1" stop-color="#A3173C"/>
</linearGradient>
<linearGradient id="paint19_linear_185_3664" x1="835.415" y1="433.761" x2="827.959" y2="441.225" gradientUnits="userSpaceOnUse">
<stop stop-color="#FC7B91"/>
<stop offset="1" stop-color="#A2163B"/>
</linearGradient>
<linearGradient id="paint20_linear_185_3664" x1="853.168" y1="442.966" x2="853.249" y2="457.877" gradientUnits="userSpaceOnUse">
<stop stop-color="#A2163B"/>
<stop offset="1" stop-color="#A2163B"/>
</linearGradient>
<linearGradient id="paint21_linear_185_3664" x1="858.238" y1="426.923" x2="836.082" y2="427.737" gradientUnits="userSpaceOnUse">
<stop stop-color="#FC7B90"/>
<stop offset="1" stop-color="#A2163B"/>
</linearGradient>
<linearGradient id="paint22_linear_185_3664" x1="835.734" y1="391.079" x2="847.558" y2="391.079" gradientUnits="userSpaceOnUse">
<stop stop-color="#FC7B90"/>
<stop offset="1" stop-color="#A2163B"/>
</linearGradient>
<linearGradient id="paint23_linear_185_3664" x1="831.792" y1="391.079" x2="843.616" y2="391.079" gradientUnits="userSpaceOnUse">
<stop stop-color="#FB7A8F"/>
<stop offset="1" stop-color="#A4183D"/>
</linearGradient>
<linearGradient id="paint24_linear_185_3664" x1="846.767" y1="382.245" x2="846.767" y2="365.493" gradientUnits="userSpaceOnUse">
<stop stop-color="#F7C6B8"/>
<stop offset="1" stop-color="#EE6D93"/>
</linearGradient>
<linearGradient id="paint25_linear_185_3664" x1="846.767" y1="369.645" x2="846.767" y2="380.426" gradientUnits="userSpaceOnUse">
<stop stop-color="#FD7C91"/>
<stop offset="1" stop-color="#A3173C"/>
</linearGradient>
<linearGradient id="paint26_linear_185_3664" x1="762.955" y1="516.278" x2="762.955" y2="464.902" gradientUnits="userSpaceOnUse">
<stop stop-color="#B0B0B0"/>
<stop offset="1" stop-color="white"/>
</linearGradient>
<linearGradient id="paint27_linear_185_3664" x1="782.531" y1="541.608" x2="782.531" y2="482.572" gradientUnits="userSpaceOnUse">
<stop stop-color="#BBBBBB"/>
<stop offset="1" stop-color="white"/>
</linearGradient>
<linearGradient id="paint28_linear_185_3664" x1="762.856" y1="528.219" x2="762.856" y2="435.084" gradientUnits="userSpaceOnUse">
<stop stop-color="white"/>
<stop offset="1" stop-color="#D2D2D2" stop-opacity="0"/>
</linearGradient>
<linearGradient id="paint29_linear_185_3664" x1="955.237" y1="182.383" x2="948.132" y2="186.311" gradientUnits="userSpaceOnUse">
<stop stop-color="#F7C6B8"/>
<stop offset="1" stop-color="#EE6D93"/>
</linearGradient>
<linearGradient id="paint30_linear_185_3664" x1="1271.1" y1="414.567" x2="1254.36" y2="425.103" gradientUnits="userSpaceOnUse">
<stop stop-color="#FC7B90"/>
<stop offset="1" stop-color="#A2163B"/>
</linearGradient>
<linearGradient id="paint31_linear_185_3664" x1="988.698" y1="243.719" x2="1165.4" y2="243.719" gradientUnits="userSpaceOnUse">
<stop stop-color="#FB7A90"/>
<stop offset="0.8" stop-color="#A3183C" stop-opacity="0"/>
</linearGradient>
<linearGradient id="paint32_linear_185_3664" x1="927.618" y1="232.313" x2="906.979" y2="247.4" gradientUnits="userSpaceOnUse">
<stop stop-color="#EE6D93"/>
<stop offset="1" stop-color="#F7C6B8" stop-opacity="0"/>
</linearGradient>
<linearGradient id="paint33_linear_185_3664" x1="1159.48" y1="195.854" x2="1072.4" y2="195.854" gradientUnits="userSpaceOnUse">
<stop stop-color="#A3173C"/>
<stop offset="1" stop-color="#FD7C91" stop-opacity="0"/>
</linearGradient>
<linearGradient id="paint34_linear_185_3664" x1="1096.68" y1="177.589" x2="1116.29" y2="177.589" gradientUnits="userSpaceOnUse">
<stop stop-color="#FC7B90"/>
<stop offset="1" stop-color="#A2163B"/>
</linearGradient>
<linearGradient id="paint35_linear_185_3664" x1="1251" y1="71.867" x2="1212.83" y2="93.1247" gradientUnits="userSpaceOnUse">
<stop offset="0.00122196" stop-color="#F04E20" stop-opacity="0"/>
<stop offset="1" stop-color="#EE6D93"/>
</linearGradient>
<linearGradient id="paint36_linear_185_3664" x1="1218.36" y1="52.9567" x2="1180.19" y2="74.2145" gradientUnits="userSpaceOnUse">
<stop offset="0.00122196" stop-color="#F7C6B8" stop-opacity="0"/>
<stop offset="1" stop-color="#EE6D93"/>
</linearGradient>
<linearGradient id="paint37_linear_185_3664" x1="1172.81" y1="62.8237" x2="1180.12" y2="75.9793" gradientUnits="userSpaceOnUse">
<stop stop-color="#696969"/>
<stop offset="1" stop-color="#595959"/>
</linearGradient>
<linearGradient id="paint38_linear_185_3664" x1="1167.24" y1="83.0387" x2="1159.17" y2="87.4989" gradientUnits="userSpaceOnUse">
<stop stop-color="#FC7B90"/>
<stop offset="1" stop-color="#A2163B"/>
</linearGradient>
<linearGradient id="paint39_linear_185_3664" x1="1205.24" y1="81.0897" x2="1212.54" y2="94.2454" gradientUnits="userSpaceOnUse">
<stop stop-color="#6B6B6B"/>
<stop offset="1" stop-color="#656565"/>
</linearGradient>
<linearGradient id="paint40_linear_185_3664" x1="1199.67" y1="101.304" x2="1191.6" y2="105.765" gradientUnits="userSpaceOnUse">
<stop stop-color="#FC7B90"/>
<stop offset="1" stop-color="#A2163B"/>
</linearGradient>
<linearGradient id="paint41_linear_185_3664" x1="939.273" y1="238.841" x2="920.446" y2="237.858" gradientUnits="userSpaceOnUse">
<stop stop-color="#F7C6B8"/>
<stop offset="1" stop-color="#EE6D93"/>
</linearGradient>
<linearGradient id="paint42_linear_185_3664" x1="1060.69" y1="132.992" x2="1060.69" y2="148.96" gradientUnits="userSpaceOnUse">
<stop stop-color="#F7C6B8"/>
<stop offset="1" stop-color="#EE6D93"/>
</linearGradient>
<linearGradient id="paint43_linear_185_3664" x1="1054.14" y1="132.992" x2="1054.14" y2="148.96" gradientUnits="userSpaceOnUse">
<stop stop-color="#F7C6B8"/>
<stop offset="1" stop-color="#EE6D93"/>
</linearGradient>
<linearGradient id="paint44_linear_185_3664" x1="1045.96" y1="132.992" x2="1045.96" y2="148.959" gradientUnits="userSpaceOnUse">
<stop stop-color="#F7C6B8"/>
<stop offset="1" stop-color="#EE6D93"/>
</linearGradient>
<linearGradient id="paint45_linear_185_3664" x1="963.339" y1="132.992" x2="963.339" y2="148.959" gradientUnits="userSpaceOnUse">
<stop stop-color="#F7C6B8"/>
<stop offset="1" stop-color="#EE6D93"/>
</linearGradient>
<linearGradient id="paint46_linear_185_3664" x1="969.883" y1="132.992" x2="969.883" y2="148.959" gradientUnits="userSpaceOnUse">
<stop stop-color="#F7C6B8"/>
<stop offset="1" stop-color="#EE6D93"/>
</linearGradient>
<linearGradient id="paint47_linear_185_3664" x1="976.427" y1="132.992" x2="976.427" y2="148.959" gradientUnits="userSpaceOnUse">
<stop stop-color="#F7C6B8"/>
<stop offset="1" stop-color="#EE6D93"/>
</linearGradient>
<linearGradient id="paint48_linear_185_3664" x1="1009.97" y1="149.389" x2="1009.97" y2="123.484" gradientUnits="userSpaceOnUse">
<stop stop-color="#FD7C91"/>
<stop offset="1" stop-color="#A2173B"/>
</linearGradient>
<linearGradient id="paint49_linear_185_3664" x1="1010.38" y1="125.678" x2="1010.38" y2="108.925" gradientUnits="userSpaceOnUse">
<stop stop-color="#FF8594"/>
<stop offset="1" stop-color="#C4204A"/>
</linearGradient>
<linearGradient id="paint50_linear_185_3664" x1="1010.38" y1="113.895" x2="1010.38" y2="124.676" gradientUnits="userSpaceOnUse">
<stop stop-color="#FC7B90"/>
<stop offset="1" stop-color="#A2163B"/>
</linearGradient>
<linearGradient id="paint51_linear_185_3664" x1="1027.16" y1="168.954" x2="993.966" y2="168.954" gradientUnits="userSpaceOnUse">
<stop stop-color="#FC7B90"/>
<stop offset="1" stop-color="#A2163B"/>
</linearGradient>
<linearGradient id="paint52_linear_185_3664" x1="1016.46" y1="147.711" x2="1003.48" y2="147.711" gradientUnits="userSpaceOnUse">
<stop stop-color="#FC7B90"/>
<stop offset="1" stop-color="#A2163B"/>
</linearGradient>
<linearGradient id="paint53_linear_185_3664" x1="1056.19" y1="122.79" x2="1058.64" y2="122.79" gradientUnits="userSpaceOnUse">
<stop stop-color="#F7C6B8"/>
<stop offset="1" stop-color="#EE6D93"/>
</linearGradient>
<linearGradient id="paint54_linear_185_3664" x1="1052.1" y1="122.79" x2="1054.55" y2="122.79" gradientUnits="userSpaceOnUse">
<stop stop-color="#F7C6B8"/>
<stop offset="1" stop-color="#EE6D93"/>
</linearGradient>
<linearGradient id="paint55_linear_185_3664" x1="1048.01" y1="122.79" x2="1050.46" y2="122.79" gradientUnits="userSpaceOnUse">
<stop stop-color="#F7C6B8"/>
<stop offset="1" stop-color="#EE6D93"/>
</linearGradient>
<linearGradient id="paint56_linear_185_3664" x1="1255.84" y1="408.32" x2="1242.68" y2="408.482" gradientUnits="userSpaceOnUse">
<stop stop-color="#FC7B90"/>
<stop offset="1" stop-color="#A2163B"/>
</linearGradient>
<linearGradient id="paint57_linear_185_3664" x1="1246.79" y1="401.267" x2="1240.59" y2="405.612" gradientUnits="userSpaceOnUse">
<stop stop-color="#FC7B90"/>
<stop offset="1" stop-color="#A2163B"/>
</linearGradient>
<linearGradient id="paint58_linear_185_3664" x1="1248.34" y1="408.038" x2="1239.78" y2="412.79" gradientUnits="userSpaceOnUse">
<stop stop-color="#FB7A90"/>
<stop offset="1" stop-color="#A3173B"/>
</linearGradient>
<linearGradient id="paint59_linear_185_3664" x1="1253.7" y1="412.068" x2="1246.84" y2="415.196" gradientUnits="userSpaceOnUse">
<stop stop-color="#FC7B90"/>
<stop offset="1" stop-color="#A2163B"/>
</linearGradient>
<linearGradient id="paint60_linear_185_3664" x1="1256.76" y1="408.438" x2="1252.82" y2="408.885" gradientUnits="userSpaceOnUse">
<stop stop-color="#FC7B90"/>
<stop offset="1" stop-color="#A2163B"/>
</linearGradient>
<linearGradient id="paint61_linear_185_3664" x1="1269.76" y1="433.947" x2="1262.36" y2="434.039" gradientUnits="userSpaceOnUse">
<stop stop-color="#FC7B90"/>
<stop offset="1" stop-color="#A2163B"/>
</linearGradient>
<linearGradient id="paint62_linear_185_3664" x1="1264.67" y1="429.978" x2="1261.18" y2="432.424" gradientUnits="userSpaceOnUse">
<stop stop-color="#FC7B90"/>
<stop offset="1" stop-color="#A2163B"/>
</linearGradient>
<linearGradient id="paint63_linear_185_3664" x1="1265.54" y1="433.789" x2="1260.73" y2="436.464" gradientUnits="userSpaceOnUse">
<stop stop-color="#FC7B90"/>
<stop offset="1" stop-color="#A2163B"/>
</linearGradient>
<linearGradient id="paint64_linear_185_3664" x1="1268.56" y1="436.057" x2="1264.7" y2="437.818" gradientUnits="userSpaceOnUse">
<stop stop-color="#FC7B90"/>
<stop offset="1" stop-color="#A2163B"/>
</linearGradient>
<linearGradient id="paint65_linear_185_3664" x1="1270.29" y1="434.014" x2="1268.07" y2="434.265" gradientUnits="userSpaceOnUse">
<stop stop-color="#F7C6B8"/>
<stop offset="1" stop-color="#EE6D93"/>
</linearGradient>
<linearGradient id="paint66_linear_185_3664" x1="1248.3" y1="433.947" x2="1240.89" y2="434.039" gradientUnits="userSpaceOnUse">
<stop stop-color="#F7C6B8"/>
<stop offset="1" stop-color="#EE6D93"/>
</linearGradient>
<linearGradient id="paint67_linear_185_3664" x1="1243.21" y1="429.978" x2="1239.72" y2="432.424" gradientUnits="userSpaceOnUse">
<stop stop-color="#F7C6B8"/>
<stop offset="1" stop-color="#EE6D93"/>
</linearGradient>
<linearGradient id="paint68_linear_185_3664" x1="1244.08" y1="433.789" x2="1239.26" y2="436.464" gradientUnits="userSpaceOnUse">
<stop stop-color="#F7C6B8"/>
<stop offset="1" stop-color="#EE6D93"/>
</linearGradient>
<linearGradient id="paint69_linear_185_3664" x1="1247.09" y1="436.057" x2="1243.23" y2="437.818" gradientUnits="userSpaceOnUse">
<stop stop-color="#F7C6B8"/>
<stop offset="1" stop-color="#EE6D93"/>
</linearGradient>
<linearGradient id="paint70_linear_185_3664" x1="1248.82" y1="434.014" x2="1246.6" y2="434.265" gradientUnits="userSpaceOnUse">
<stop stop-color="#F7C6B8"/>
<stop offset="1" stop-color="#EE6D93"/>
</linearGradient>
<linearGradient id="paint71_linear_185_3664" x1="1257.51" y1="406.453" x2="1262.42" y2="406.453" gradientUnits="userSpaceOnUse">
<stop stop-color="#FC7B90"/>
<stop offset="1" stop-color="#A2163B"/>
</linearGradient>
<linearGradient id="paint72_linear_185_3664" x1="1252.89" y1="426.709" x2="1257.79" y2="426.709" gradientUnits="userSpaceOnUse">
<stop stop-color="#FC7B90"/>
<stop offset="1" stop-color="#A2163B"/>
</linearGradient>
<linearGradient id="paint73_linear_185_3664" x1="1229.19" y1="404.001" x2="1232.47" y2="404.001" gradientUnits="userSpaceOnUse">
<stop stop-color="#F7C6B8"/>
<stop offset="1" stop-color="#EE6D93"/>
</linearGradient>
<linearGradient id="paint74_linear_185_3664" x1="1263.77" y1="449.944" x2="1267.04" y2="449.944" gradientUnits="userSpaceOnUse">
<stop stop-color="#F7C6B8"/>
<stop offset="1" stop-color="#EE6D93"/>
</linearGradient>
<linearGradient id="paint75_linear_185_3664" x1="1216.12" y1="436.148" x2="1219.39" y2="436.148" gradientUnits="userSpaceOnUse">
<stop stop-color="#F7C6B8"/>
<stop offset="1" stop-color="#EE6D93"/>
</linearGradient>
<linearGradient id="paint76_linear_185_3664" x1="779.232" y1="482.591" x2="779.232" y2="476.851" gradientUnits="userSpaceOnUse">
<stop stop-color="#F7C6B8"/>
<stop offset="1" stop-color="#EE6D93"/>
</linearGradient>
<linearGradient id="paint77_linear_185_3664" x1="923.062" y1="245.978" x2="923.062" y2="242.152" gradientUnits="userSpaceOnUse">
<stop stop-color="#F7C6B8"/>
<stop offset="1" stop-color="#EE6D93"/>
</linearGradient>
<linearGradient id="paint78_linear_185_3664" x1="1106.49" y1="212.552" x2="1106.49" y2="208.726" gradientUnits="userSpaceOnUse">
<stop stop-color="#FC7B90"/>
<stop offset="1" stop-color="#A2163B"/>
</linearGradient>
<linearGradient id="paint79_linear_185_3664" x1="1077.05" y1="181.644" x2="1077.05" y2="177.817" gradientUnits="userSpaceOnUse">
<stop stop-color="#F7C6B8"/>
<stop offset="1" stop-color="#EE6D93"/>
</linearGradient>
<linearGradient id="paint80_linear_185_3664" x1="1089.32" y1="207.096" x2="1089.32" y2="203.269" gradientUnits="userSpaceOnUse">
<stop stop-color="#FC7B90"/>
<stop offset="1" stop-color="#A2163B"/>
</linearGradient>
<linearGradient id="paint81_linear_185_3664" x1="1065.59" y1="209.284" x2="1065.59" y2="205.457" gradientUnits="userSpaceOnUse">
<stop stop-color="#F7C6B8"/>
<stop offset="1" stop-color="#EE6D93"/>
</linearGradient>
<linearGradient id="paint82_linear_185_3664" x1="1091.77" y1="154.38" x2="1091.77" y2="148.64" gradientUnits="userSpaceOnUse">
<stop stop-color="#F7C6B8"/>
<stop offset="1" stop-color="#EE6D93"/>
</linearGradient>
<linearGradient id="paint83_linear_185_3664" x1="1096.68" y1="171.161" x2="1096.68" y2="165.422" gradientUnits="userSpaceOnUse">
<stop stop-color="#F7C6B8"/>
<stop offset="1" stop-color="#EE6D93"/>
</linearGradient>
<linearGradient id="paint84_linear_185_3664" x1="910.083" y1="246.695" x2="910.083" y2="243.825" gradientUnits="userSpaceOnUse">
<stop stop-color="#F7C6B8"/>
<stop offset="1" stop-color="#EE6D93"/>
</linearGradient>
<linearGradient id="paint85_linear_185_3664" x1="917.367" y1="231.872" x2="917.367" y2="229.959" gradientUnits="userSpaceOnUse">
<stop stop-color="#F7C6B8"/>
<stop offset="1" stop-color="#EE6D93"/>
</linearGradient>
<linearGradient id="paint86_linear_185_3664" x1="913.34" y1="238.916" x2="913.34" y2="237.959" gradientUnits="userSpaceOnUse">
<stop stop-color="#F7C6B8"/>
<stop offset="1" stop-color="#EE6D93"/>
</linearGradient>
<linearGradient id="paint87_linear_185_3664" x1="909.914" y1="252.908" x2="909.914" y2="251.951" gradientUnits="userSpaceOnUse">
<stop stop-color="#F7C6B8"/>
<stop offset="1" stop-color="#EE6D93"/>
</linearGradient>
<linearGradient id="paint88_linear_185_3664" x1="755.474" y1="487.493" x2="755.474" y2="481.753" gradientUnits="userSpaceOnUse">
<stop stop-color="#FC7B90"/>
<stop offset="1" stop-color="#A2163B"/>
</linearGradient>
<linearGradient id="paint89_linear_185_3664" x1="770.562" y1="507.881" x2="770.562" y2="502.142" gradientUnits="userSpaceOnUse">
<stop stop-color="#FC7B90"/>
<stop offset="1" stop-color="#A2163B"/>
</linearGradient>
<linearGradient id="paint90_linear_185_3664" x1="746.099" y1="471.054" x2="746.099" y2="467.228" gradientUnits="userSpaceOnUse">
<stop stop-color="#FC7B90"/>
<stop offset="1" stop-color="#A2163B"/>
</linearGradient>
<linearGradient id="paint91_linear_185_3664" x1="798.873" y1="492.827" x2="798.873" y2="489" gradientUnits="userSpaceOnUse">
<stop stop-color="#FC7B90"/>
<stop offset="1" stop-color="#A2163B"/>
</linearGradient>
<linearGradient id="paint92_linear_185_3664" x1="785.785" y1="454.713" x2="785.785" y2="452.801" gradientUnits="userSpaceOnUse">
<stop stop-color="#FC7B90"/>
<stop offset="1" stop-color="#A2163B"/>
</linearGradient>
<linearGradient id="paint93_linear_185_3664" x1="766.189" y1="465.133" x2="766.189" y2="463.219" gradientUnits="userSpaceOnUse">
<stop stop-color="#F9788E"/>
<stop offset="1" stop-color="#A3173C"/>
</linearGradient>
<linearGradient id="paint94_linear_185_3664" x1="733.599" y1="457.306" x2="733.599" y2="455.394" gradientUnits="userSpaceOnUse">
<stop stop-color="#FD7C92"/>
<stop offset="1" stop-color="#A2173B"/>
</linearGradient>
<linearGradient id="paint95_linear_185_3664" x1="761.741" y1="437.192" x2="761.741" y2="435.278" gradientUnits="userSpaceOnUse">
<stop stop-color="#FD7C92"/>
<stop offset="1" stop-color="#A2163B"/>
</linearGradient>
<linearGradient id="paint96_linear_185_3664" x1="1269.34" y1="408.167" x2="1263.74" y2="418.672" gradientUnits="userSpaceOnUse">
<stop stop-color="#FC7B91"/>
<stop offset="1" stop-color="#A2163B"/>
</linearGradient>
<linearGradient id="paint97_linear_185_3664" x1="1267.72" y1="420.709" x2="1278.33" y2="420.709" gradientUnits="userSpaceOnUse">
<stop stop-color="#FD7D92"/>
<stop offset="1" stop-color="#A3173B"/>
</linearGradient>
<linearGradient id="paint98_linear_185_3664" x1="1261.88" y1="420.603" x2="1269.76" y2="420.603" gradientUnits="userSpaceOnUse">
<stop stop-color="#FD7C91"/>
<stop offset="1" stop-color="#A2173B"/>
</linearGradient>
<linearGradient id="paint99_linear_185_3664" x1="1225.77" y1="415.637" x2="1221.85" y2="423.003" gradientUnits="userSpaceOnUse">
<stop stop-color="#FD7C91"/>
<stop offset="1" stop-color="#A2173B"/>
</linearGradient>
<linearGradient id="paint100_linear_185_3664" x1="1224.63" y1="424.432" x2="1232.07" y2="424.432" gradientUnits="userSpaceOnUse">
<stop stop-color="#FC7B91"/>
<stop offset="1" stop-color="#A3173B"/>
</linearGradient>
<linearGradient id="paint101_linear_185_3664" x1="1220.54" y1="424.358" x2="1226.06" y2="424.358" gradientUnits="userSpaceOnUse">
<stop stop-color="#FB7A90"/>
<stop offset="1" stop-color="#A2163B"/>
</linearGradient>
<linearGradient id="paint102_linear_185_3664" x1="1263.56" y1="362.478" x2="1289.8" y2="362.478" gradientUnits="userSpaceOnUse">
<stop stop-color="#FD7C91"/>
<stop offset="1" stop-color="#A4193D"/>
</linearGradient>
<linearGradient id="paint103_linear_185_3664" x1="1230.86" y1="370.193" x2="1257.08" y2="370.193" gradientUnits="userSpaceOnUse">
<stop stop-color="#FE7D92"/>
<stop offset="1" stop-color="#A2163B"/>
</linearGradient>
<linearGradient id="paint104_linear_185_3664" x1="1178.38" y1="370.057" x2="1217.69" y2="370.057" gradientUnits="userSpaceOnUse">
<stop stop-color="#FC7B90"/>
<stop offset="1" stop-color="#A2163B"/>
</linearGradient>
<linearGradient id="paint105_linear_185_3664" x1="1152.33" y1="370.193" x2="1191.65" y2="370.193" gradientUnits="userSpaceOnUse">
<stop stop-color="#FC7B90"/>
<stop offset="1" stop-color="#A2163B"/>
</linearGradient>
<linearGradient id="paint106_linear_185_3664" x1="782.975" y1="399.18" x2="783.06" y2="346.07" gradientUnits="userSpaceOnUse">
<stop stop-color="#D6D6D6"/>
<stop offset="1" stop-color="white"/>
</linearGradient>
<linearGradient id="paint107_linear_185_3664" x1="788.152" y1="346.922" x2="830.91" y2="346.922" gradientUnits="userSpaceOnUse">
<stop stop-color="#EBEBEB"/>
<stop offset="1" stop-color="#A9A9A9"/>
</linearGradient>
<linearGradient id="paint108_linear_185_3664" x1="778.964" y1="410.195" x2="778.964" y2="266.939" gradientUnits="userSpaceOnUse">
<stop stop-color="white"/>
<stop offset="1" stop-color="white" stop-opacity="0"/>
</linearGradient>
<linearGradient id="paint109_linear_185_3664" x1="769.764" y1="380.567" x2="769.764" y2="282.223" gradientUnits="userSpaceOnUse">
<stop stop-color="white"/>
<stop offset="1" stop-color="white" stop-opacity="0"/>
</linearGradient>
<linearGradient id="paint110_linear_185_3664" x1="794.204" y1="390.089" x2="794.204" y2="280.432" gradientUnits="userSpaceOnUse">
<stop stop-color="white"/>
<stop offset="1" stop-color="white" stop-opacity="0"/>
</linearGradient>
<linearGradient id="paint111_linear_185_3664" x1="783.068" y1="338.583" x2="783.068" y2="358.789" gradientUnits="userSpaceOnUse">
<stop stop-color="#FC7B90"/>
<stop offset="1" stop-color="#A2163B"/>
</linearGradient>
<linearGradient id="paint112_linear_185_3664" x1="1314.2" y1="227.147" x2="1314.2" y2="150.491" gradientUnits="userSpaceOnUse">
<stop stop-color="#E4E7E6" stop-opacity="0"/>
<stop offset="1" stop-color="white"/>
</linearGradient>
<linearGradient id="paint113_linear_185_3664" x1="1314.22" y1="199.605" x2="1314.22" y2="113.665" gradientUnits="userSpaceOnUse">
<stop stop-color="#EEEEEE" stop-opacity="0"/>
<stop offset="1" stop-color="white"/>
</linearGradient>
<linearGradient id="paint114_linear_185_3664" x1="1314.2" y1="215.744" x2="1314.2" y2="170.447" gradientUnits="userSpaceOnUse">
<stop stop-color="white" stop-opacity="0"/>
<stop offset="1" stop-color="#E9E9E9"/>
</linearGradient>
<linearGradient id="paint115_linear_185_3664" x1="1322.04" y1="86.3412" x2="1292.32" y2="108.068" gradientUnits="userSpaceOnUse">
<stop stop-color="#EE6D93"/>
<stop offset="1" stop-color="#F7C6B8" stop-opacity="0"/>
</linearGradient>
<linearGradient id="paint116_linear_185_3664" x1="1309.37" y1="94.5444" x2="1322.42" y2="94.5444" gradientUnits="userSpaceOnUse">
<stop stop-color="#FD7C91"/>
<stop offset="1" stop-color="#A3173B"/>
</linearGradient>
<linearGradient id="paint117_linear_185_3664" x1="777.467" y1="492.772" x2="797.472" y2="531.807" gradientUnits="userSpaceOnUse">
<stop stop-color="#FC7B90"/>
<stop offset="1" stop-color="#A2163B"/>
</linearGradient>
<linearGradient id="paint118_linear_185_3664" x1="753.899" y1="504.85" x2="773.904" y2="543.885" gradientUnits="userSpaceOnUse">
<stop stop-color="#FC7B90"/>
<stop offset="1" stop-color="#A2163B"/>
</linearGradient>
<linearGradient id="paint119_linear_185_3664" x1="773.449" y1="461.402" x2="784.061" y2="493.481" gradientUnits="userSpaceOnUse">
<stop stop-color="#FD7C92"/>
<stop offset="1" stop-color="#A2173B"/>
</linearGradient>
<linearGradient id="paint120_linear_185_3664" x1="743.89" y1="471.181" x2="754.502" y2="503.259" gradientUnits="userSpaceOnUse">
<stop stop-color="#FB7A90"/>
<stop offset="1" stop-color="#A2163B"/>
</linearGradient>
<clipPath id="clip0_185_3664">
<rect width="1415" height="544" fill="white"/>
</clipPath>
<clipPath id="clip1_185_3664">
<rect width="1106" height="545" fill="white" transform="translate(309 13)"/>
</clipPath>
</defs>
</svg>
