<svg width="137" height="35" viewBox="0 0 137 35" fill="none" xmlns="http://www.w3.org/2000/svg">
<path d="M17.553 34.7512C16.7204 34.7512 15.9586 34.4636 15.5661 34.0006L1.12806 16.93C0.904588 16.6652 0.826859 16.3723 0.903616 16.0837C1.01244 15.6757 1.40982 15.3196 1.99278 15.1078C2.33382 14.9844 2.72052 14.9193 3.11013 14.9193C3.94474 14.9193 4.70648 15.2074 5.099 15.6708L5.67905 16.3558L5.86851 16.5797L6.05798 16.3558L12.3501 8.91913C12.3666 8.90019 12.3841 8.87978 12.4026 8.85938L12.5444 8.69809L12.4055 8.53389L7.09857 2.2583C6.8751 1.99451 6.7964 1.70351 6.87315 1.4164C6.981 1.00784 7.37839 0.651265 7.96329 0.438484C8.3053 0.314604 8.692 0.248535 9.08258 0.248535C9.91622 0.248535 10.678 0.537102 11.0695 1.00104L25.5066 18.0692C25.7301 18.334 25.8088 18.6259 25.732 18.914C25.6232 19.3231 25.2258 19.6792 24.6409 19.8919C24.2989 20.0158 23.9132 20.0819 23.5226 20.0819C22.6889 20.0819 21.9272 19.7933 21.5356 19.3294L21.4589 19.2385L21.2723 19.0185L21.0819 19.2342L14.6023 26.5771L14.4604 26.7384L14.5994 26.9026L19.538 32.7409C19.7615 33.0052 19.8382 33.2977 19.7615 33.5862C19.6527 33.9943 19.2553 34.3499 18.6733 34.5607C18.3323 34.6846 17.9446 34.7507 17.553 34.7512ZM15.8751 12.6365L15.6846 12.8522L9.20598 20.197L9.06412 20.3583L9.20306 20.5225L11.0783 22.7392L11.2677 22.9637L11.4572 22.7392L17.7852 15.2569C17.793 15.2491 17.8008 15.2404 17.8076 15.2316L17.9349 15.0718L17.8027 14.9154L16.0606 12.8561L15.8751 12.6365Z" fill="#FC7B90"/>
<path d="M17.553 34.5025C17.9154 34.5021 18.2739 34.4413 18.5887 34.3267C19.0862 34.1464 19.435 33.8457 19.5215 33.5217C19.5768 33.3128 19.5185 33.1039 19.3475 32.9013L14.131 26.735L21.2762 18.6377L21.7251 19.1687C22.0661 19.5724 22.7715 19.8333 23.5225 19.8333C23.884 19.8333 24.2415 19.7725 24.5553 19.6584C25.0557 19.4767 25.4055 19.1745 25.492 18.8505C25.5473 18.6416 25.4881 18.4327 25.3161 18.2296L10.88 1.16193C10.539 0.758232 9.83359 0.497357 9.08254 0.497357C8.72013 0.497357 8.36355 0.558082 8.04875 0.672245C7.54837 0.853935 7.19957 1.1561 7.11309 1.48013C7.05868 1.68806 7.11698 1.8955 7.28895 2.09807L12.8737 8.70207L12.5891 9.02416C12.5725 9.0431 12.556 9.06205 12.5395 9.08148L5.86847 16.9651L4.90852 15.8312C4.56749 15.4285 3.8621 15.1681 3.11008 15.1681C2.74865 15.1681 2.39207 15.2283 2.07824 15.342C1.57981 15.5227 1.23003 15.8244 1.14453 16.148C1.08817 16.3573 1.14744 16.5667 1.31844 16.7698L15.7565 33.8399C16.0975 34.2421 16.8019 34.5025 17.553 34.5025ZM15.8789 12.2562L18.2574 15.0675L18.0019 15.3872C17.9921 15.3993 17.9815 15.411 17.9708 15.4227L11.2677 23.349L8.7347 20.355L9.01938 20.0329L15.8789 12.2562ZM17.553 35C16.6785 35 15.8303 34.6969 15.3766 34.1615L0.938547 17.0909C0.272998 16.3029 0.705362 15.3109 1.90821 14.8742C3.11105 14.4399 4.62384 14.7246 5.28842 15.5101L5.86847 16.1951L12.1606 8.75842C12.179 8.73705 12.1975 8.71567 12.216 8.69478L6.90906 2.41919C6.24156 1.63365 6.67587 0.642126 7.87872 0.204904C9.07962 -0.231832 10.5944 0.0523618 11.2599 0.840819L25.696 17.9085C26.3635 18.6965 25.9292 19.6885 24.7254 20.1257C23.5264 20.5615 22.0107 20.2778 21.3452 19.4898L21.2684 19.3989L14.7888 26.7419L19.7274 32.5802C20.393 33.3682 19.9577 34.3602 18.7578 34.7945C18.375 34.9339 17.9611 34.9995 17.553 35ZM15.8711 13.017L9.39248 20.3618L11.2677 22.5785L17.6006 15.0904C17.6055 15.0855 17.6093 15.0811 17.6132 15.0763L15.8711 13.017Z" fill="#FF97A0"/>
<path d="M37.72 20.688C37.624 20.5493 37.5813 20.4053 37.592 20.256C37.6027 20.096 37.6933 19.9573 37.864 19.84C37.9707 19.7653 38.0933 19.7333 38.232 19.744C38.3813 19.7547 38.5147 19.824 38.632 19.952C38.9307 20.304 39.272 20.5867 39.656 20.8C40.04 21.0027 40.5093 21.104 41.064 21.104C41.32 21.0933 41.576 21.0507 41.832 20.976C42.088 20.9013 42.3013 20.7733 42.472 20.592C42.6533 20.4 42.744 20.1493 42.744 19.84C42.744 19.5413 42.6533 19.3067 42.472 19.136C42.2907 18.9547 42.056 18.8107 41.768 18.704C41.48 18.5867 41.1653 18.4853 40.824 18.4C40.472 18.304 40.1253 18.1973 39.784 18.08C39.4427 17.952 39.1333 17.7973 38.856 17.616C38.5893 17.424 38.3707 17.1893 38.2 16.912C38.04 16.624 37.96 16.2773 37.96 15.872C37.96 15.392 38.088 14.976 38.344 14.624C38.6107 14.272 38.9627 14 39.4 13.808C39.848 13.616 40.3333 13.52 40.856 13.52C41.1547 13.52 41.464 13.5573 41.784 13.632C42.1147 13.696 42.4347 13.8133 42.744 13.984C43.0533 14.144 43.3253 14.368 43.56 14.656C43.656 14.7627 43.7093 14.896 43.72 15.056C43.7307 15.216 43.6613 15.36 43.512 15.488C43.3947 15.5733 43.2613 15.6107 43.112 15.6C42.9733 15.5893 42.856 15.536 42.76 15.44C42.536 15.1733 42.2533 14.9707 41.912 14.832C41.5813 14.6827 41.2133 14.608 40.808 14.608C40.552 14.608 40.3013 14.6453 40.056 14.72C39.8107 14.7947 39.6027 14.9227 39.432 15.104C39.272 15.2747 39.192 15.5147 39.192 15.824C39.2027 16.112 39.2987 16.3467 39.48 16.528C39.6613 16.7093 39.9067 16.8587 40.216 16.976C40.5253 17.0827 40.8667 17.1893 41.24 17.296C41.5813 17.3813 41.9067 17.4827 42.216 17.6C42.536 17.7067 42.824 17.8507 43.08 18.032C43.336 18.2133 43.5387 18.448 43.688 18.736C43.8373 19.0133 43.912 19.3653 43.912 19.792C43.912 20.2827 43.7733 20.7093 43.496 21.072C43.2187 21.424 42.8507 21.696 42.392 21.888C41.944 22.0693 41.4587 22.16 40.936 22.16C40.3493 22.16 39.768 22.048 39.192 21.824C38.6267 21.6 38.136 21.2213 37.72 20.688ZM51.9541 13.728C52.1461 13.728 52.3008 13.792 52.4181 13.92C52.5355 14.0373 52.5941 14.1867 52.5941 14.368V18.736C52.5941 19.8133 52.2901 20.6507 51.6821 21.248C51.0848 21.8347 50.2475 22.128 49.1701 22.128C48.1035 22.128 47.2661 21.8347 46.6581 21.248C46.0608 20.6507 45.7621 19.8133 45.7621 18.736V14.368C45.7621 14.1867 45.8208 14.0373 45.9381 13.92C46.0661 13.792 46.2208 13.728 46.4021 13.728C46.5941 13.728 46.7488 13.792 46.8661 13.92C46.9835 14.0373 47.0421 14.1867 47.0421 14.368V18.736C47.0421 19.4613 47.2288 20.0107 47.6021 20.384C47.9755 20.7573 48.4981 20.944 49.1701 20.944C49.8635 20.944 50.3915 20.7573 50.7541 20.384C51.1275 20.0107 51.3141 19.4613 51.3141 18.736V14.368C51.3141 14.1867 51.3728 14.0373 51.4901 13.92C51.6181 13.792 51.7728 13.728 51.9541 13.728ZM59.0453 13.6C59.7706 13.6 60.4213 13.7813 60.9973 14.144C61.5733 14.5067 62.0266 15.008 62.3573 15.648C62.6986 16.288 62.8693 17.024 62.8693 17.856C62.8693 18.6773 62.6986 19.4133 62.3573 20.064C62.0266 20.704 61.5733 21.2107 60.9973 21.584C60.4319 21.9467 59.7919 22.128 59.0773 22.128C58.6826 22.128 58.3093 22.0693 57.9573 21.952C57.6159 21.824 57.3013 21.664 57.0133 21.472C56.7359 21.2693 56.5013 21.0453 56.3093 20.8C56.1173 20.544 55.9786 20.2933 55.8932 20.048L56.2453 19.824V24.544C56.2453 24.7253 56.1866 24.88 56.0693 25.008C55.9519 25.136 55.7973 25.2 55.6053 25.2C55.4239 25.2 55.2693 25.136 55.1413 25.008C55.0239 24.8907 54.9653 24.736 54.9653 24.544V14.32C54.9653 14.1387 55.0239 13.9893 55.1413 13.872C55.2693 13.744 55.4239 13.68 55.6053 13.68C55.7973 13.68 55.9519 13.744 56.0693 13.872C56.1866 13.9893 56.2453 14.1387 56.2453 14.32V15.744L56.0053 15.616C56.0799 15.3493 56.2079 15.0933 56.3893 14.848C56.5813 14.6027 56.8106 14.3893 57.0773 14.208C57.3546 14.016 57.6586 13.8667 57.9893 13.76C58.3306 13.6533 58.6826 13.6 59.0453 13.6ZM58.9013 14.784C58.3679 14.784 57.8933 14.9173 57.4773 15.184C57.0719 15.4507 56.7519 15.8133 56.5173 16.272C56.2933 16.7307 56.1813 17.2587 56.1813 17.856C56.1813 18.4427 56.2933 18.9707 56.5173 19.44C56.7519 19.9093 57.0719 20.2773 57.4773 20.544C57.8933 20.8107 58.3679 20.944 58.9013 20.944C59.4346 20.944 59.9039 20.8107 60.3093 20.544C60.7146 20.2773 61.0346 19.9093 61.2693 19.44C61.5039 18.9707 61.6213 18.4427 61.6213 17.856C61.6213 17.2587 61.5039 16.7307 61.2693 16.272C61.0346 15.8133 60.7146 15.4507 60.3093 15.184C59.9039 14.9173 59.4346 14.784 58.9013 14.784ZM68.6174 22.16C67.764 22.16 67.0174 21.9787 66.3774 21.616C65.7374 21.2533 65.236 20.7573 64.8734 20.128C64.5214 19.488 64.3454 18.752 64.3454 17.92C64.3454 16.992 64.5267 16.2027 64.8894 15.552C65.2627 14.8907 65.7427 14.3893 66.3294 14.048C66.9267 13.696 67.556 13.52 68.2174 13.52C68.708 13.52 69.1827 13.6107 69.6414 13.792C70.1 13.9733 70.5054 14.24 70.8574 14.592C71.2094 14.9333 71.492 15.3493 71.7054 15.84C71.9187 16.32 72.0307 16.8587 72.0414 17.456C72.0414 17.6267 71.9774 17.7707 71.8494 17.888C71.7214 18.0053 71.572 18.064 71.4014 18.064H65.0814L64.7934 16.96H70.9534L70.6974 17.184V16.832C70.6547 16.3947 70.5054 16.0213 70.2494 15.712C70.004 15.392 69.7 15.1467 69.3374 14.976C68.9854 14.8053 68.612 14.72 68.2174 14.72C67.8974 14.72 67.5774 14.7787 67.2574 14.896C66.948 15.0027 66.6654 15.184 66.4094 15.44C66.164 15.6853 65.9614 16.0053 65.8014 16.4C65.652 16.7947 65.5774 17.2693 65.5774 17.824C65.5774 18.4427 65.7 18.9867 65.9454 19.456C66.2014 19.9253 66.5534 20.2987 67.0014 20.576C67.4494 20.8427 67.972 20.976 68.5694 20.976C68.9427 20.976 69.268 20.928 69.5454 20.832C69.8227 20.736 70.0627 20.6187 70.2654 20.48C70.468 20.3307 70.6387 20.1813 70.7774 20.032C70.916 19.936 71.0494 19.888 71.1774 19.888C71.3374 19.888 71.4654 19.9413 71.5614 20.048C71.668 20.1547 71.7214 20.2827 71.7214 20.432C71.7214 20.6133 71.636 20.7733 71.4654 20.912C71.1667 21.2427 70.7614 21.536 70.2494 21.792C69.7374 22.0373 69.1934 22.16 68.6174 22.16ZM74.6053 22C74.4239 22 74.2693 21.936 74.1413 21.808C74.0239 21.68 73.9653 21.5253 73.9653 21.344V14.368C73.9653 14.1867 74.0239 14.0373 74.1413 13.92C74.2693 13.792 74.4239 13.728 74.6053 13.728C74.7973 13.728 74.9519 13.792 75.0693 13.92C75.1866 14.0373 75.2453 14.1867 75.2453 14.368V16.48L75.0533 16.144C75.1173 15.8133 75.2293 15.4933 75.3893 15.184C75.5599 14.864 75.7733 14.5813 76.0293 14.336C76.2853 14.08 76.5786 13.8827 76.9093 13.744C77.2399 13.5947 77.6026 13.52 77.9973 13.52C78.2319 13.52 78.4453 13.5787 78.6373 13.696C78.8399 13.8027 78.9413 13.9573 78.9413 14.16C78.9413 14.384 78.8826 14.5493 78.7653 14.656C78.6479 14.7627 78.5146 14.816 78.3653 14.816C78.2266 14.816 78.0933 14.7893 77.9653 14.736C77.8373 14.672 77.6773 14.64 77.4852 14.64C77.2186 14.64 76.9519 14.7147 76.6853 14.864C76.4293 15.0027 76.1893 15.2053 75.9653 15.472C75.7519 15.7387 75.5759 16.0427 75.4373 16.384C75.3093 16.7147 75.2453 17.072 75.2453 17.456V21.344C75.2453 21.5253 75.1813 21.68 75.0533 21.808C74.9359 21.936 74.7866 22 74.6053 22Z" fill="white"/>
<path d="M81.2831 10.8C81.4645 10.8 81.6191 10.864 81.7471 10.992C81.8751 11.1093 81.9391 11.264 81.9391 11.456V21.344C81.9391 21.5253 81.8698 21.68 81.7311 21.808C81.6031 21.936 81.4485 22 81.2671 22C81.0645 22 80.9045 21.936 80.7871 21.808C80.6698 21.68 80.6111 21.5253 80.6111 21.344V11.456C80.6111 11.264 80.6751 11.1093 80.8031 10.992C80.9311 10.864 81.0911 10.8 81.2831 10.8ZM88.6591 10.8C88.8511 10.8 89.0058 10.864 89.1231 10.992C89.2511 11.1093 89.3151 11.264 89.3151 11.456V21.344C89.3151 21.5253 89.2511 21.68 89.1231 21.808C88.9951 21.936 88.8351 22 88.6431 22C88.4618 22 88.3071 21.936 88.1791 21.808C88.0511 21.68 87.9871 21.5253 87.9871 21.344V11.456C87.9871 11.264 88.0511 11.1093 88.1791 10.992C88.3178 10.864 88.4778 10.8 88.6591 10.8ZM81.2191 15.68H88.6751L88.6591 16.928H81.1711L81.2191 15.68ZM95.7268 22.16C94.8734 22.16 94.1268 21.9787 93.4868 21.616C92.8468 21.2533 92.3454 20.7573 91.9828 20.128C91.6308 19.488 91.4548 18.752 91.4548 17.92C91.4548 16.992 91.6361 16.2027 91.9988 15.552C92.3721 14.8907 92.8521 14.3893 93.4388 14.048C94.0361 13.696 94.6654 13.52 95.3268 13.52C95.8174 13.52 96.2921 13.6107 96.7508 13.792C97.2094 13.9733 97.6148 14.24 97.9668 14.592C98.3188 14.9333 98.6014 15.3493 98.8148 15.84C99.0281 16.32 99.1401 16.8587 99.1508 17.456C99.1508 17.6267 99.0868 17.7707 98.9588 17.888C98.8308 18.0053 98.6814 18.064 98.5108 18.064H92.1908L91.9028 16.96H98.0628L97.8068 17.184V16.832C97.7641 16.3947 97.6148 16.0213 97.3588 15.712C97.1134 15.392 96.8094 15.1467 96.4468 14.976C96.0948 14.8053 95.7214 14.72 95.3268 14.72C95.0068 14.72 94.6868 14.7787 94.3668 14.896C94.0574 15.0027 93.7748 15.184 93.5188 15.44C93.2734 15.6853 93.0708 16.0053 92.9108 16.4C92.7614 16.7947 92.6868 17.2693 92.6868 17.824C92.6868 18.4427 92.8094 18.9867 93.0548 19.456C93.3108 19.9253 93.6628 20.2987 94.1108 20.576C94.5588 20.8427 95.0814 20.976 95.6788 20.976C96.0521 20.976 96.3774 20.928 96.6548 20.832C96.9321 20.736 97.1721 20.6187 97.3748 20.48C97.5774 20.3307 97.7481 20.1813 97.8868 20.032C98.0254 19.936 98.1588 19.888 98.2868 19.888C98.4468 19.888 98.5748 19.9413 98.6708 20.048C98.7774 20.1547 98.8308 20.2827 98.8308 20.432C98.8308 20.6133 98.7454 20.7733 98.5748 20.912C98.2761 21.2427 97.8708 21.536 97.3588 21.792C96.8468 22.0373 96.3028 22.16 95.7268 22.16ZM101.715 22C101.533 22 101.379 21.936 101.251 21.808C101.133 21.68 101.075 21.5253 101.075 21.344V14.368C101.075 14.1867 101.133 14.0373 101.251 13.92C101.379 13.792 101.533 13.728 101.715 13.728C101.907 13.728 102.061 13.792 102.179 13.92C102.296 14.0373 102.355 14.1867 102.355 14.368V16.48L102.163 16.144C102.227 15.8133 102.339 15.4933 102.499 15.184C102.669 14.864 102.883 14.5813 103.139 14.336C103.395 14.08 103.688 13.8827 104.019 13.744C104.349 13.5947 104.712 13.52 105.107 13.52C105.341 13.52 105.555 13.5787 105.747 13.696C105.949 13.8027 106.051 13.9573 106.051 14.16C106.051 14.384 105.992 14.5493 105.875 14.656C105.757 14.7627 105.624 14.816 105.475 14.816C105.336 14.816 105.203 14.7893 105.075 14.736C104.947 14.672 104.787 14.64 104.595 14.64C104.328 14.64 104.061 14.7147 103.795 14.864C103.539 15.0027 103.299 15.2053 103.075 15.472C102.861 15.7387 102.685 16.0427 102.547 16.384C102.419 16.7147 102.355 17.072 102.355 17.456V21.344C102.355 21.5253 102.291 21.68 102.163 21.808C102.045 21.936 101.896 22 101.715 22ZM114.993 17.84C114.993 18.672 114.806 19.4133 114.433 20.064C114.07 20.7147 113.574 21.2267 112.945 21.6C112.326 21.9733 111.628 22.16 110.849 22.16C110.07 22.16 109.366 21.9733 108.737 21.6C108.108 21.2267 107.606 20.7147 107.233 20.064C106.87 19.4133 106.689 18.672 106.689 17.84C106.689 17.008 106.87 16.2667 107.233 15.616C107.606 14.9653 108.108 14.4533 108.737 14.08C109.366 13.7067 110.07 13.52 110.849 13.52C111.628 13.52 112.326 13.7067 112.945 14.08C113.574 14.4533 114.07 14.9653 114.433 15.616C114.806 16.2667 114.993 17.008 114.993 17.84ZM113.713 17.84C113.713 17.2213 113.585 16.6773 113.329 16.208C113.084 15.7387 112.742 15.3707 112.305 15.104C111.878 14.8373 111.393 14.704 110.849 14.704C110.305 14.704 109.814 14.8373 109.377 15.104C108.95 15.3707 108.609 15.7387 108.353 16.208C108.097 16.6773 107.969 17.2213 107.969 17.84C107.969 18.448 108.097 18.9867 108.353 19.456C108.609 19.9253 108.95 20.2987 109.377 20.576C109.814 20.8427 110.305 20.976 110.849 20.976C111.393 20.976 111.878 20.8427 112.305 20.576C112.742 20.2987 113.084 19.9253 113.329 19.456C113.585 18.9867 113.713 18.448 113.713 17.84ZM120.742 22.16C119.889 22.16 119.142 21.9787 118.502 21.616C117.862 21.2533 117.361 20.7573 116.998 20.128C116.646 19.488 116.47 18.752 116.47 17.92C116.47 16.992 116.652 16.2027 117.014 15.552C117.388 14.8907 117.868 14.3893 118.454 14.048C119.052 13.696 119.681 13.52 120.342 13.52C120.833 13.52 121.308 13.6107 121.766 13.792C122.225 13.9733 122.63 14.24 122.982 14.592C123.334 14.9333 123.617 15.3493 123.83 15.84C124.044 16.32 124.156 16.8587 124.166 17.456C124.166 17.6267 124.102 17.7707 123.974 17.888C123.846 18.0053 123.697 18.064 123.526 18.064H117.206L116.918 16.96H123.078L122.822 17.184V16.832C122.78 16.3947 122.63 16.0213 122.374 15.712C122.129 15.392 121.825 15.1467 121.462 14.976C121.11 14.8053 120.737 14.72 120.342 14.72C120.022 14.72 119.702 14.7787 119.382 14.896C119.073 15.0027 118.79 15.184 118.534 15.44C118.289 15.6853 118.086 16.0053 117.926 16.4C117.777 16.7947 117.702 17.2693 117.702 17.824C117.702 18.4427 117.825 18.9867 118.07 19.456C118.326 19.9253 118.678 20.2987 119.126 20.576C119.574 20.8427 120.097 20.976 120.694 20.976C121.068 20.976 121.393 20.928 121.67 20.832C121.948 20.736 122.188 20.6187 122.39 20.48C122.593 20.3307 122.764 20.1813 122.902 20.032C123.041 19.936 123.174 19.888 123.302 19.888C123.462 19.888 123.59 19.9413 123.686 20.048C123.793 20.1547 123.846 20.2827 123.846 20.432C123.846 20.6133 123.761 20.7733 123.59 20.912C123.292 21.2427 122.886 21.536 122.374 21.792C121.862 22.0373 121.318 22.16 120.742 22.16ZM125.626 20.688C125.53 20.5493 125.488 20.4053 125.498 20.256C125.509 20.096 125.6 19.9573 125.77 19.84C125.877 19.7653 126 19.7333 126.138 19.744C126.288 19.7547 126.421 19.824 126.538 19.952C126.837 20.304 127.178 20.5867 127.562 20.8C127.946 21.0027 128.416 21.104 128.97 21.104C129.226 21.0933 129.482 21.0507 129.738 20.976C129.994 20.9013 130.208 20.7733 130.378 20.592C130.56 20.4 130.65 20.1493 130.65 19.84C130.65 19.5413 130.56 19.3067 130.378 19.136C130.197 18.9547 129.962 18.8107 129.674 18.704C129.386 18.5867 129.072 18.4853 128.73 18.4C128.378 18.304 128.032 18.1973 127.69 18.08C127.349 17.952 127.04 17.7973 126.762 17.616C126.496 17.424 126.277 17.1893 126.106 16.912C125.946 16.624 125.866 16.2773 125.866 15.872C125.866 15.392 125.994 14.976 126.25 14.624C126.517 14.272 126.869 14 127.306 13.808C127.754 13.616 128.24 13.52 128.762 13.52C129.061 13.52 129.37 13.5573 129.69 13.632C130.021 13.696 130.341 13.8133 130.65 13.984C130.96 14.144 131.232 14.368 131.466 14.656C131.562 14.7627 131.616 14.896 131.626 15.056C131.637 15.216 131.568 15.36 131.418 15.488C131.301 15.5733 131.168 15.6107 131.018 15.6C130.88 15.5893 130.762 15.536 130.666 15.44C130.442 15.1733 130.16 14.9707 129.818 14.832C129.488 14.6827 129.12 14.608 128.714 14.608C128.458 14.608 128.208 14.6453 127.962 14.72C127.717 14.7947 127.509 14.9227 127.338 15.104C127.178 15.2747 127.098 15.5147 127.098 15.824C127.109 16.112 127.205 16.3467 127.386 16.528C127.568 16.7093 127.813 16.8587 128.122 16.976C128.432 17.0827 128.773 17.1893 129.146 17.296C129.488 17.3813 129.813 17.4827 130.122 17.6C130.442 17.7067 130.73 17.8507 130.986 18.032C131.242 18.2133 131.445 18.448 131.594 18.736C131.744 19.0133 131.818 19.3653 131.818 19.792C131.818 20.2827 131.68 20.7093 131.402 21.072C131.125 21.424 130.757 21.696 130.298 21.888C129.85 22.0693 129.365 22.16 128.842 22.16C128.256 22.16 127.674 22.048 127.098 21.824C126.533 21.6 126.042 21.2213 125.626 20.688Z" fill="#FC7B90"/>
</svg>
