<svg width="42" height="37" viewBox="0 0 42 37" fill="none" xmlns="http://www.w3.org/2000/svg">
<path d="M15.45 21C14.55 21 13.7917 20.6583 13.175 19.975C12.5583 19.2917 12.3167 18.5 12.45 17.6L13.25 11.6C13.5167 9.7 14.3833 8.125 15.85 6.875C17.3167 5.625 19.0333 5 21 5C22.9667 5 24.6833 5.625 26.15 6.875C27.6167 8.125 28.4833 9.7 28.75 11.6L29.55 17.6C29.6833 18.5 29.4417 19.2917 28.825 19.975C28.2083 20.6583 27.45 21 26.55 21H15.45ZM15.4 18H26.6L25.8 12.05C25.6333 10.8833 25.0917 9.91667 24.175 9.15C23.2583 8.38333 22.2 8 21 8C19.8 8 18.7417 8.38333 17.825 9.15C16.9083 9.91667 16.3667 10.8833 16.2 12.05L15.4 18ZM5 37V32.3C5 31.0333 5.31667 29.95 5.95 29.05C6.58333 28.15 7.4 27.4667 8.4 27C10.6333 26 12.775 25.25 14.825 24.75C16.875 24.25 18.9333 24 21 24C23.0667 24 25.1167 24.2583 27.15 24.775C29.1833 25.2917 31.3167 26.0333 33.55 27C34.5833 27.4667 35.4167 28.15 36.05 29.05C36.6833 29.95 37 31.0333 37 32.3V37H5ZM8 34H34V32.3C34 31.7667 33.8417 31.2583 33.525 30.775C33.2083 30.2917 32.8167 29.9333 32.35 29.7C30.2167 28.6667 28.2667 27.9583 26.5 27.575C24.7333 27.1917 22.9 27 21 27C19.1 27 17.25 27.1917 15.45 27.575C13.65 27.9583 11.7 28.6667 9.6 29.7C9.13333 29.9333 8.75 30.2917 8.45 30.775C8.15 31.2583 8 31.7667 8 32.3V34Z" fill="#b4b4b4"/>
</svg>
