<svg width="42" height="37" viewBox="0 0 42 37" fill="white" xmlns="http://www.w3.org/2000/svg">
<g clip-path="url(#clip0_209_991)">
<path d="M21 21C18.8 21 17 20.3 15.6 18.9C14.2 17.5 13.5 15.7 13.5 13.5C13.5 11.3 14.2 9.5 15.6 8.1C17 6.7 18.8 6 21 6C23.2 6 25 6.7 26.4 8.1C27.8 9.5 28.5 11.3 28.5 13.5C28.5 15.7 27.8 17.5 26.4 18.9C25 20.3 23.2 21 21 21ZM5 37.05V32.35C5 31.0833 5.31667 30 5.95 29.1C6.58333 28.2 7.4 27.5167 8.4 27.05C10.6333 26.05 12.775 25.3 14.825 24.8C16.875 24.3 18.9333 24.05 21 24.05C23.0667 24.05 25.1167 24.3083 27.15 24.825C29.1833 25.3417 31.3167 26.0833 33.55 27.05C34.5833 27.5167 35.4167 28.2 36.05 29.1C36.6833 30 37 31.0833 37 32.35V37.05H5ZM8 34.05H34V32.35C34 31.8167 33.8417 31.3083 33.525 30.825C33.2083 30.3417 32.8167 29.9833 32.35 29.75C30.2167 28.7167 28.2667 28.0083 26.5 27.625C24.7333 27.2417 22.9 27.05 21 27.05C19.1 27.05 17.25 27.2417 15.45 27.625C13.65 28.0083 11.7 28.7167 9.6 29.75C9.13333 29.9833 8.75 30.3417 8.45 30.825C8.15 31.3083 8 31.8167 8 32.35V34.05ZM21 18C22.3 18 23.375 17.575 24.225 16.725C25.075 15.875 25.5 14.8 25.5 13.5C25.5 12.2 25.075 11.125 24.225 10.275C23.375 9.425 22.3 9 21 9C19.7 9 18.625 9.425 17.775 10.275C16.925 11.125 16.5 12.2 16.5 13.5C16.5 14.8 16.925 15.875 17.775 16.725C18.625 17.575 19.7 18 21 18Z" fill="#b4b4b4"/>
</g>
<defs>
<clipPath id="clip0_209_991">
<rect width="42" height="37" fill="white"/>
</clipPath>
</defs>
</svg>
