<svg width="1498" height="542" viewBox="0 0 1498 542" fill="none" xmlns="http://www.w3.org/2000/svg">
<g clip-path="url(#clip0_185_3664)">
<g clip-path="url(#clip1_185_3664)">
<g opacity="0.75" filter="url(#filter0_f_185_3664)">
<path opacity="0.75" d="M551.082 847.789C245.669 847.789 -1.91797 704.07 -1.91797 526.784C-1.91797 349.498 245.669 205.78 551.082 205.78C856.495 205.78 1104.08 349.498 1104.08 526.784C1104.08 704.07 856.495 847.789 551.082 847.789Z" fill="url(#paint0_radial_185_3664)"/>
</g>
<path d="M443.018 247.312L475.822 265.933L501.999 251.117L469.196 232.334L443.018 247.312Z" fill="url(#paint1_linear_185_3664)"/>
<path d="M443.018 260.266L475.822 278.886L501.999 264.071L469.196 245.288L443.018 260.266Z" fill="url(#paint2_linear_185_3664)"/>
<path d="M-1.11025 138.762H488.082V541.94H-1.11025V138.762Z" fill="url(#paint3_linear_185_3664)"/>
<path d="M227.135 148.622L200.876 133.645V118.667L227.135 133.725V148.622Z" fill="#1A1A1A"/>
<path d="M200.876 118.667L220.509 107.495L246.687 122.391L227.135 133.726L200.876 118.667Z" fill="#424242"/>
<path d="M239.161 88.2265L226.89 118.748L207.42 107.495L221.327 78.3491L239.161 88.2265Z" fill="#1A1A1A"/>
<path d="M234.416 85.8784L239.815 88.4694L233.598 114.943L226.89 118.748L234.416 85.8784Z" fill="#383838"/>
<path d="M652.438 593.98V556.172L554.272 500.067V537.471L652.438 593.98Z" fill="#1A1A1A"/>
<path d="M554.272 500.067L652.438 556.172L737.597 507.597L639.349 451.492L554.272 500.067Z" fill="#424242"/>
<path d="M605.973 391.177C618.816 383.89 639.513 383.89 652.274 391.177C665.036 398.463 664.954 410.364 652.111 417.731C639.267 425.018 618.571 425.018 605.809 417.731C593.048 410.364 593.13 398.463 605.973 391.177Z" fill="url(#paint4_linear_185_3664)"/>
<path d="M605.973 374.985C618.816 367.699 639.513 367.699 652.274 374.985C665.036 382.272 664.954 394.173 652.111 401.54C639.267 408.826 618.571 408.826 605.809 401.54C593.048 394.173 593.13 382.272 605.973 374.985Z" fill="url(#paint5_linear_185_3664)"/>
<path d="M17.6333 208.451V290.706L69.9883 320.58V238.325L17.6333 208.451Z" fill="#1A1A1A"/>
<path d="M69.9883 238.325L161.691 185.944V290.706L69.9883 313.132V238.325Z" fill="#5C5C5C"/>
<path d="M69.9883 238.325L17.6333 208.451L109.255 156.07L161.691 185.944L69.9883 238.325Z" fill="#424242"/>
<path d="M194.332 459.102V272.004L181.243 242.049L141.977 219.624V429.147L194.332 459.102Z" fill="#1A1A1A"/>
<path d="M69.9883 260.751L-1.99989 369.237V436.514L69.9883 320.58V260.751Z" fill="#5C5C5C"/>
<path d="M69.9883 260.751L17.6333 230.877L-1.99989 264.556V369.237L69.9883 260.751Z" fill="#424242"/>
<path d="M-1.99983 316.856L40.5386 243.993V221.486L132.242 169.186" stroke="white" stroke-width="2" stroke-miterlimit="10"/>
<path d="M194.332 272.004L259.775 234.601V526.298L194.332 488.895V272.004Z" fill="url(#paint6_linear_185_3664)"/>
<path d="M115.799 346.811L181.243 309.408L180.997 544.595H115.799V346.811Z" fill="url(#paint7_linear_185_3664)"/>
<path d="M115.799 346.811L63.444 316.856V544.595H115.799V346.811Z" fill="#1A1A1A"/>
<path d="M115.799 346.811L63.4441 316.856L128.888 279.453L181.243 309.408L115.799 346.811Z" fill="#424242"/>
<path d="M115.799 488.895L181.243 451.654L259.775 496.343L292.415 477.642L240.142 447.768L272.864 429.066L207.42 391.663L233.598 376.685L299.042 414.088L423.467 343.006L567.443 425.342L384.118 530.022L318.675 492.619L266.401 522.493L305.013 544.676L213.392 544.595L115.799 488.895Z" fill="#424242"/>
<path d="M135.514 479.018L187.869 500.634L155.229 437.162L135.514 479.018Z" fill="#1A1A1A"/>
<path d="M155.229 437.162L174.78 455.864L187.869 500.634L155.229 437.162Z" fill="#5C5C5C"/>
<path d="M207.42 391.663V421.537L246.523 444.124L272.864 429.066L207.42 391.663Z" fill="#1A1A1A"/>
<path d="M240.142 447.768V477.723L266.402 492.7L292.416 477.642L240.142 447.768Z" fill="#1A1A1A"/>
<path d="M292.415 537.552L318.756 522.574L384.2 559.977L384.118 530.022L318.675 492.619L266.401 522.493L292.415 537.552Z" fill="#1A1A1A"/>
<path d="M115.799 518.769L213.474 574.55L213.392 544.595L115.799 488.895V518.769Z" fill="#1A1A1A"/>
<path d="M384.119 559.977L567.361 455.297V425.342L384.037 530.022L384.119 559.977Z" fill="#383838"/>
<path d="M318.757 522.574L318.675 492.619L266.402 522.493L292.415 537.552L318.757 522.574Z" fill="#383838"/>
<path d="M181.243 242.049L246.687 204.727L259.775 234.601L194.332 272.004L181.243 242.049Z" fill="#383838"/>
<path d="M141.976 219.624L181.243 242.049L246.687 204.727L207.42 182.22L141.976 219.624Z" fill="#424242"/>
<path d="M155.065 219.624L181.243 234.601L233.598 204.727L207.42 189.75L155.065 219.624Z" fill="url(#paint8_linear_185_3664)"/>
<path d="M207.42 189.75V219.705L181.243 234.601L155.065 219.624L207.42 189.75Z" fill="url(#paint9_linear_185_3664)"/>
<path d="M469.195 511.402L488.91 522.574L515.006 507.597L495.373 496.424L469.195 511.402Z" fill="#424242"/>
<path d="M488.829 522.574L497.5 544.595H482.284L469.196 511.402L488.829 522.574Z" fill="#1A1A1A"/>
<path d="M529.567 544.595L515.006 507.597L488.829 522.574L497.5 544.595H529.567Z" fill="#383838"/>
<path d="M507.644 488.895L527.359 500.067L553.454 485.009L533.821 473.917L507.644 488.895Z" fill="#424242"/>
<path d="M527.277 500.067L544.783 544.595H529.568L507.644 488.895L527.277 500.067Z" fill="#1A1A1A"/>
<path d="M576.851 544.595L553.454 485.09L527.277 500.067L544.783 544.595H576.851Z" fill="#383838"/>
<path d="M586.912 488.895L645.894 455.216L711.337 492.7L652.438 526.298L586.912 488.895Z" fill="white"/>
<path d="M586.912 488.895L587.076 503.792L652.438 541.195V526.298L586.912 488.895Z" fill="white"/>
<path d="M652.438 526.298V541.195L711.337 507.597V492.7L652.438 526.298Z" fill="white"/>
<path d="M652.438 556.172V593.98L737.597 544.676V507.597L652.438 556.172Z" fill="#383838"/>
<path d="M462.733 402.916L488.91 417.893L488.829 335.558L443.018 309.408L462.733 402.916Z" fill="#1A1A1A"/>
<path d="M488.91 417.893L580.45 365.513V283.177L488.829 335.558L488.91 417.893Z" fill="#383838"/>
<path d="M488.829 335.558L443.018 309.408L534.639 257.027L580.45 283.177L488.829 335.558Z" fill="#424242"/>
<path d="M501.836 343.006V387.938L567.279 350.535V305.684L501.836 343.006Z" fill="white"/>
<path d="M240.142 102.07C243.824 99.9654 247.178 99.9654 249.632 101.666V101.585L314.994 138.907L296.833 203.27L232.125 166.271C229.099 165.057 227.135 161.576 227.135 156.475V125.63C227.054 116.886 232.944 106.199 240.142 102.07Z" fill="url(#paint10_linear_185_3664)"/>
<path d="M311.067 137.854C315.566 137.854 318.675 141.66 318.675 148.217V178.901C318.675 187.807 312.785 198.493 305.668 202.622C303.705 203.756 301.905 204.241 300.187 204.241C295.688 204.241 292.579 200.436 292.579 193.878V163.114C292.579 154.208 298.469 143.522 305.668 139.474C307.549 138.421 309.349 137.854 311.067 137.854Z" fill="#383838"/>
<path d="M272.455 126.035C270.901 126.035 269.592 127.33 269.592 128.868V137.369H275.318V128.868C275.318 127.33 274.009 126.035 272.455 126.035Z" fill="white"/>
<path d="M273.682 134.94C274.582 134.94 275.318 134.212 275.318 133.321V130.083C275.318 129.192 274.582 128.463 273.682 128.463C272.782 128.463 272.046 129.192 272.046 130.083V133.321C272.046 134.212 272.782 134.94 273.682 134.94Z" fill="white"/>
<path opacity="0.5" d="M259.775 113.324C259.775 113.162 259.775 113.081 259.775 112.919C259.775 105.794 265.665 99.9653 272.864 99.9653C280.063 99.9653 285.953 105.794 285.953 112.919C285.953 113 285.953 113 285.953 113.081V129.597C286.035 131.621 284.808 133.564 282.108 135.102C277.036 138.016 268.692 138.016 263.538 135.102C260.921 133.564 259.612 131.621 259.694 129.597V113.324H259.775Z" fill="url(#paint11_linear_185_3664)"/>
<path d="M200.876 103.689L213.965 126.115L200.876 118.667L187.787 96.2412L200.876 103.689Z" fill="#1A1A1A"/>
<path d="M213.965 126.115L220.509 122.391L207.421 99.9653L200.876 103.689L213.965 126.115Z" fill="#383838"/>
<path d="M443.018 204.727V234.601L475.822 253.384V223.348L443.018 204.727Z" fill="#1A1A1A"/>
<path d="M501.999 238.406L475.822 253.384V223.348L501.999 208.451V238.406Z" fill="#383838"/>
<path d="M443.018 204.727L475.822 223.348L501.999 208.451L469.196 189.75L443.018 204.727Z" fill="#424242"/>
<path d="M467.477 211.447C452.975 211.447 441.218 196.405 441.218 177.849C441.218 159.293 452.975 144.25 467.477 144.25C481.98 144.25 493.737 159.293 493.737 177.849C493.737 196.405 481.98 211.447 467.477 211.447Z" fill="url(#paint12_linear_185_3664)"/>
<path d="M567.361 305.765L672.071 365.675L606.628 402.916V447.444L501.917 387.534V343.006L567.361 305.765Z" fill="url(#paint13_linear_185_3664)"/>
<path d="M469.032 459.021L495.373 444.043L456.107 421.537L429.929 436.595L469.032 459.021Z" fill="white"/>
<path d="M478.93 453.354L472.468 449.711C472.468 449.711 468.296 451.087 464.696 448.901C461.342 446.877 462.569 443.882 462.569 443.882L456.025 440.158C456.025 440.158 451.853 441.534 448.253 439.348C444.899 437.324 446.126 434.329 446.126 434.329L439.828 430.928" stroke="#424242" stroke-width="2" stroke-miterlimit="10" stroke-linecap="round" stroke-linejoin="round"/>
<path d="M463.142 447.444L456.025 451.572" stroke="#424242" stroke-width="2" stroke-miterlimit="10" stroke-linecap="round" stroke-linejoin="round"/>
<path d="M482.366 436.433L475.74 440.238" stroke="#424242" stroke-width="2" stroke-miterlimit="10" stroke-linecap="round" stroke-linejoin="round"/>
<path d="M467.15 449.873L460.279 453.758" stroke="#424242" stroke-width="2" stroke-miterlimit="10" stroke-linecap="round" stroke-linejoin="round"/>
<path d="M486.62 438.7L478.685 443.234" stroke="#424242" stroke-width="2" stroke-miterlimit="10" stroke-linecap="round" stroke-linejoin="round"/>
<path d="M446.617 437.729L438.682 442.261" stroke="#424242" stroke-width="2" stroke-miterlimit="10" stroke-linecap="round" stroke-linejoin="round"/>
<path d="M465.514 426.961L459.215 430.523" stroke="#424242" stroke-width="2" stroke-miterlimit="10" stroke-linecap="round" stroke-linejoin="round"/>
<path d="M450.299 440.319L442.936 444.529" stroke="#424242" stroke-width="2" stroke-miterlimit="10" stroke-linecap="round" stroke-linejoin="round"/>
<path d="M469.604 429.309L462.242 433.519" stroke="#424242" stroke-width="2" stroke-miterlimit="10" stroke-linecap="round" stroke-linejoin="round"/>
<path d="M485.557 449.63L479.012 445.905C479.012 445.905 480.076 442.991 476.313 440.481C472.713 438.052 468.214 439.51 468.214 439.51L462.242 435.947C462.242 435.947 463.551 433.033 459.788 430.928C456.025 428.742 452.426 430.037 452.426 430.037L445.472 426.07" stroke="#424242" stroke-width="2" stroke-miterlimit="10" stroke-linecap="round" stroke-linejoin="round"/>
<path d="M86.2676 408.502L56.8997 425.342L69.9885 432.79L92.9756 419.675L86.2676 408.502Z" fill="url(#paint14_linear_185_3664)"/>
<path d="M86.2676 431.09L56.8997 447.848L69.9885 455.297L92.9756 442.181L86.2676 431.09Z" fill="url(#paint15_linear_185_3664)"/>
<path d="M463.06 176.958L494.473 168.781V188.212L463.142 180.116C461.424 179.711 461.424 177.444 463.06 176.958Z" fill="url(#paint16_linear_185_3664)"/>
<path d="M493.737 177.849C493.737 159.309 481.957 144.25 467.478 144.25C487.765 144.25 504.208 159.309 504.208 177.849C504.208 196.388 487.765 211.447 467.478 211.447C481.957 211.528 493.737 196.469 493.737 177.849Z" fill="#383838"/>
<path opacity="0.5" d="M560.817 324.385V317.099L534.558 331.834V339.363L560.817 324.385Z" fill="white"/>
<path opacity="0.5" d="M554.272 342.925V335.72L508.462 361.546V368.994L554.272 342.925Z" fill="white"/>
<path opacity="0.5" d="M528.177 342.763V335.558L515.006 343.087V350.535L528.177 342.763Z" fill="white"/>
<path d="M557.217 372.799C557.217 372.799 562.862 366.646 573.006 372.799L571.288 387.939L573.006 398.382H557.217V372.799Z" fill="url(#paint17_linear_185_3664)"/>
<path d="M579.55 423.075L571.288 417.975L573.006 398.463H565.152L565.643 418.137C565.725 419.432 566.379 420.565 567.443 421.294L577.096 427.528" fill="url(#paint18_linear_185_3664)"/>
<path d="M579.959 422.346C579.959 422.346 585.849 426.232 586.013 427.366C586.095 428.013 583.15 437.081 583.15 437.081C582.986 437.648 582.168 437.648 582.086 437.081L580.286 429.633L576.605 428.175L579.959 422.346Z" fill="url(#paint19_linear_185_3664)"/>
<path d="M562.535 437.081L562.862 448.092L556.645 452.544C555.663 453.273 554.436 452.14 555.009 451.087L557.79 445.825L556.154 438.538L562.535 437.081Z" fill="url(#paint20_linear_185_3664)"/>
<path d="M561.799 437.243L560.571 424.128L567.525 398.463H557.218L555.5 423.561L556.972 438.376L561.799 437.243Z" fill="url(#paint21_linear_185_3664)"/>
<path d="M564.498 373.366H576.36V391.744H564.498V373.366Z" fill="url(#paint22_linear_185_3664)"/>
<path d="M568.425 373.366H580.286V391.744H568.425V373.366Z" fill="url(#paint23_linear_185_3664)"/>
<g opacity="0.5">
<g opacity="0.5">
<path opacity="0.5" d="M565.316 356.769C568.67 356.769 571.451 359.522 571.451 362.841V371.342C571.451 372.718 568.67 373.771 565.316 373.771C561.962 373.771 559.181 372.718 559.181 371.342V362.841C559.181 359.522 561.962 356.769 565.316 356.769Z" fill="url(#paint24_linear_185_3664)"/>
</g>
</g>
<path d="M565.316 360.817C563.762 360.817 562.453 362.113 562.453 363.651V372.152H568.179V363.651C568.179 362.113 566.87 360.817 565.316 360.817Z" fill="url(#paint25_linear_185_3664)"/>
<path d="M556.468 377.766C556.36 374.414 557.334 371.663 558.644 371.622C559.954 371.582 561.102 374.265 561.21 377.617C561.318 380.969 560.343 383.719 559.034 383.76C557.725 383.802 556.575 381.118 556.468 377.766Z" fill="#EE6D93"/>
<path d="M555.854 377.818C555.498 374.438 556.083 371.607 557.162 371.497C558.241 371.385 559.403 374.035 559.76 377.414C560.116 380.794 559.531 383.624 558.453 383.735C557.374 383.847 556.211 381.197 555.854 377.818Z" fill="#FC7B90"/>
<path d="M543.474 353.45L542.002 348.835" stroke="white" stroke-width="4" stroke-miterlimit="10" stroke-linecap="round" stroke-linejoin="round"/>
<path d="M558.854 377.009L547.319 366.403L543.474 353.45" stroke="#EE6D93" stroke-width="4" stroke-miterlimit="10" stroke-linecap="round" stroke-linejoin="round"/>
<path d="M246.441 384.295L220.509 398.868" stroke="white" stroke-width="2" stroke-miterlimit="10" stroke-linecap="round" stroke-linejoin="round"/>
<path d="M252.986 388.343L227.054 402.916" stroke="#EE6D93" stroke-width="1.5" stroke-miterlimit="10" stroke-linecap="round" stroke-linejoin="round"/>
<path d="M17.6333 230.472L69.9883 260.427" stroke="white" stroke-width="2" stroke-miterlimit="10"/>
<path d="M613.172 488.895L652.356 511.24L685.078 492.7L645.894 470.193L613.172 488.895Z" fill="url(#paint26_linear_185_3664)"/>
<path d="M645.894 470.193L645.812 507.597L613.172 488.895L645.894 470.193Z" fill="url(#paint27_linear_185_3664)"/>
<path d="M613.172 488.895V429.066L645.894 410.364L685.242 432.871L685.078 492.7L652.356 511.24L613.172 488.895Z" fill="url(#paint28_linear_185_3664)"/>
<path d="M461.833 181.573C460.116 181.573 458.724 180.196 458.724 178.496C458.724 176.797 460.116 175.42 461.833 175.42C463.55 175.42 464.942 176.797 464.942 178.496C464.942 180.196 463.55 181.573 461.833 181.573Z" fill="url(#paint29_linear_185_3664)"/>
<path opacity="0.5" d="M81.1139 143.926C80.2141 143.926 79.4778 143.201 79.4778 142.307C79.4778 141.413 80.2141 140.688 81.1139 140.688C82.0138 140.688 82.75 141.413 82.75 142.307C82.75 143.201 82.0138 143.926 81.1139 143.926Z" fill="white"/>
<path d="M92.5665 125.549C92.1165 125.549 91.7484 125.187 91.7484 124.739C91.7484 124.292 92.1165 123.93 92.5665 123.93C93.0164 123.93 93.3845 124.292 93.3845 124.739C93.3845 125.187 93.0164 125.549 92.5665 125.549Z" fill="white"/>
<path d="M109.336 145.546C108.887 145.546 108.518 145.183 108.518 144.736C108.518 144.289 108.887 143.927 109.336 143.927C109.786 143.927 110.155 144.289 110.155 144.736C110.155 145.183 109.786 145.546 109.336 145.546Z" fill="white"/>
<path d="M86.3494 156.88C85.8995 156.88 85.5314 156.517 85.5314 156.07C85.5314 155.623 85.8995 155.261 86.3494 155.261C86.7994 155.261 87.1675 155.623 87.1675 156.07C87.1675 156.517 86.7994 156.88 86.3494 156.88Z" fill="white"/>
<path d="M72.8514 179.144C72.4015 179.144 72.0333 178.781 72.0333 178.334C72.0333 177.887 72.4015 177.525 72.8514 177.525C73.3013 177.525 73.6694 177.887 73.6694 178.334C73.6694 178.781 73.3013 179.144 72.8514 179.144Z" fill="white"/>
<path opacity="0.5" d="M109.909 124.739C109.009 124.739 108.273 124.015 108.273 123.12C108.273 122.226 109.009 121.501 109.909 121.501C110.809 121.501 111.545 122.226 111.545 123.12C111.545 124.015 110.809 124.739 109.909 124.739Z" fill="white"/>
<path d="M112.527 160.361C111.627 160.361 110.891 159.637 110.891 158.742C110.891 157.848 111.627 157.123 112.527 157.123C113.427 157.123 114.163 157.848 114.163 158.742C114.163 159.637 113.427 160.361 112.527 160.361Z" fill="white"/>
<path d="M128.888 399.111L168.154 376.847V421.618L128.724 444.125L128.888 399.111Z" fill="url(#paint30_linear_185_3664)"/>
<path d="M300.105 436.838L309.676 431.414L322.683 433.357L326.119 440.805L316.548 446.311L303.541 444.287L300.105 436.838Z" fill="white"/>
<path d="M304.359 437.486L310.822 433.843L319.493 435.219L321.783 440.158L315.403 443.801L306.731 442.505L304.359 437.486Z" fill="white"/>
<path d="M308.776 438.215L311.967 436.353L316.221 437.081L317.366 439.51L314.257 441.291L309.922 440.643L308.776 438.215Z" fill="white"/>
<path d="M316.548 456.43L326.119 450.925V440.805L316.548 446.31V456.43Z" fill="#383838"/>
<path d="M303.541 444.286V454.406L316.548 456.43V446.31L303.541 444.286Z" fill="#424242"/>
<path d="M300.105 446.958L303.541 454.406V444.286L300.105 436.838V446.958Z" fill="#1A1A1A"/>
<path d="M335.527 417.812L345.098 412.307L358.105 414.331L361.541 421.779L352.051 427.285L339.044 425.261L335.527 417.812Z" fill="white"/>
<path d="M339.862 418.46L346.243 414.817L354.996 416.193L357.287 421.132L350.906 424.775L342.153 423.48L339.862 418.46Z" fill="white"/>
<path d="M344.28 419.189L347.47 417.327L351.724 417.974L352.869 420.484L349.679 422.265L345.425 421.618L344.28 419.189Z" fill="white"/>
<path d="M352.051 437.405L361.541 431.9V421.78L352.051 427.285V437.405Z" fill="#383838"/>
<path d="M339.044 425.261V435.381L352.051 437.405V427.285L339.044 425.261Z" fill="#424242"/>
<path d="M335.527 427.932L339.044 435.381V425.261L335.527 417.812V427.932Z" fill="#1A1A1A"/>
<path d="M423.385 200.517L397.207 185.944L220.509 287.144L390.663 384.295V249.902L364.485 264.475V339.282L272.864 287.144L423.385 200.517Z" fill="#424242"/>
<path d="M390.663 421.537L423.385 402.916V200.517L272.864 287.144L299.042 301.716L390.663 249.902V421.537Z" fill="#383838"/>
<path d="M390.663 421.537L220.509 324.385V287.144L390.663 384.295V421.537Z" fill="#1A1A1A"/>
<path d="M364.486 339.282L390.663 384.295V249.902L364.486 264.475V339.282Z" fill="#1A1A1A"/>
<path opacity="0.4" d="M423.385 200.517L397.207 185.944L246.687 272.004L272.864 287.144L423.385 200.517Z" fill="url(#paint31_linear_185_3664)"/>
<path d="M645.976 530.104L639.349 533.747L639.431 541.276" stroke="white" stroke-width="2" stroke-miterlimit="10" stroke-linecap="round" stroke-linejoin="round"/>
<path d="M632.887 522.574L626.261 526.217L626.342 533.747" stroke="white" stroke-width="2" stroke-miterlimit="10" stroke-linecap="round" stroke-linejoin="round"/>
<path d="M619.798 515.126L613.172 518.769L613.254 526.298" stroke="white" stroke-width="2" stroke-miterlimit="10" stroke-linecap="round" stroke-linejoin="round"/>
<path d="M606.709 507.597L600.083 511.321L600.165 518.769" stroke="white" stroke-width="2" stroke-miterlimit="10" stroke-linecap="round" stroke-linejoin="round"/>
<path d="M593.621 500.067L587.076 503.792V511.24" stroke="white" stroke-width="2" stroke-miterlimit="10" stroke-linecap="round" stroke-linejoin="round"/>
<path d="M187.869 500.634L233.516 526.298L423.303 417.894L501.917 462.745V475.861" stroke="white" stroke-width="2" stroke-miterlimit="10" stroke-linecap="round" stroke-linejoin="round"/>
<path d="M494.8 481.042C494.8 475.213 498.972 468.088 504.044 465.174C506.662 463.636 509.034 463.555 510.752 464.607L524.823 472.622L512.716 495.615L497.745 487.033C495.946 486.142 494.8 484.118 494.8 481.042Z" fill="#1A1A1A"/>
<path d="M518.36 476.346C522.041 474.241 525.068 475.941 525.068 480.151C525.068 484.361 522.123 489.462 518.442 491.567C514.761 493.672 511.734 491.971 511.734 487.762C511.652 483.552 514.679 478.451 518.36 476.346Z" fill="white"/>
<path d="M518.36 491.486C522.041 489.381 524.986 484.28 524.986 480.071C524.986 475.861 521.959 474.161 518.278 476.265C514.597 478.37 511.652 483.471 511.652 487.681C511.734 491.891 514.679 493.591 518.36 491.486ZM518.36 473.027C523.677 470.032 527.931 472.46 527.931 478.451C527.931 484.442 523.677 491.81 518.36 494.805C513.043 497.801 508.789 495.372 508.789 489.381C508.789 483.39 513.043 476.023 518.36 473.027Z" fill="#383838"/>
<path d="M371.03 447.768V440.319C371.03 437 374.711 434.895 377.574 436.595" stroke="white" stroke-width="2" stroke-miterlimit="10" stroke-linecap="round" stroke-linejoin="round"/>
<path d="M373.075 444.367C373.075 438.538 377.247 431.414 382.319 428.499C384.937 426.961 387.309 426.88 389.027 427.932L435.574 454.73L423.467 477.723L376.02 450.439C374.22 449.468 373.075 447.444 373.075 444.367Z" fill="#1A1A1A"/>
<path d="M429.111 459.426C432.302 457.564 434.919 459.102 434.919 462.745C434.919 466.389 432.302 470.841 429.111 472.703C425.921 474.565 423.303 473.027 423.303 469.384C423.303 465.66 425.921 461.207 429.111 459.426Z" fill="white"/>
<path d="M429.111 472.622C432.302 470.76 434.919 466.307 434.919 462.664C434.919 459.021 432.302 457.564 429.111 459.345C425.921 461.207 423.303 465.66 423.303 469.303C423.303 472.946 425.921 474.484 429.111 472.622ZM429.111 455.459C434.265 452.544 438.437 454.892 438.437 460.721C438.437 466.55 434.265 473.675 429.193 476.589C424.039 479.504 419.867 477.156 419.867 471.327C419.867 465.498 423.958 458.373 429.111 455.459Z" fill="#383838"/>
<path d="M430.011 466.469L434.101 468.817C435.656 469.708 436.555 471.327 436.555 473.108L436.392 485.171" stroke="white" stroke-width="2" stroke-miterlimit="10" stroke-linecap="round" stroke-linejoin="round"/>
<path d="M169.708 465.579L180.834 476.589" stroke="white" stroke-width="2" stroke-miterlimit="10" stroke-linecap="round" stroke-linejoin="round"/>
<path d="M163.246 452.787L178.134 467.441" stroke="white" stroke-width="2" stroke-miterlimit="10" stroke-linecap="round" stroke-linejoin="round"/>
<path d="M163.246 452.787L148.357 484.28" stroke="white" stroke-width="2" stroke-miterlimit="10" stroke-linecap="round" stroke-linejoin="round"/>
<path d="M158.828 488.652L169.708 465.579" stroke="white" stroke-width="2" stroke-miterlimit="10" stroke-linecap="round" stroke-linejoin="round"/>
<path d="M231.389 232.173L187.869 257.189L141.977 231.12" stroke="white" stroke-width="2" stroke-miterlimit="10" stroke-linejoin="round"/>
<path d="M534.639 302.769C537.83 300.907 540.447 302.445 540.447 306.089C540.447 309.732 537.83 314.185 534.639 316.047C531.449 317.909 528.831 316.37 528.831 312.727C528.831 309.084 531.449 304.631 534.639 302.769Z" fill="white"/>
<path d="M534.639 315.966C537.83 314.104 540.447 309.651 540.447 306.008C540.447 302.364 537.83 300.907 534.639 302.688C531.449 304.55 528.831 309.003 528.831 312.646C528.831 316.289 531.449 317.828 534.639 315.966ZM534.639 298.802C539.793 295.888 543.965 298.235 543.965 304.065C543.965 309.894 539.875 317.018 534.721 319.933C529.567 322.847 525.395 320.499 525.395 314.67C525.313 308.841 529.485 301.717 534.639 298.802Z" fill="#383838"/>
<path d="M493.41 222.862L524.414 240.431L505.108 251.198L483.838 238.568L493.41 222.862Z" fill="url(#paint32_linear_185_3664)"/>
<path d="M312.703 141.498L361.622 168.457V236.787L298.305 200.436L312.703 141.498Z" fill="url(#paint33_linear_185_3664)"/>
<path d="M311.067 141.093C309.922 141.093 308.613 141.498 307.222 142.307C301.005 145.869 295.769 155.423 295.769 163.195V193.959C295.769 197.36 296.915 201.084 300.105 201.084C301.25 201.084 302.559 200.679 303.95 199.869C310.167 196.307 315.403 186.754 315.403 178.982V148.298C315.403 141.579 312.049 141.093 311.067 141.093Z" fill="url(#paint34_linear_185_3664)"/>
<path d="M220.509 429.066V399.111" stroke="white" stroke-width="2" stroke-miterlimit="10" stroke-linecap="round" stroke-linejoin="round"/>
<path d="M227.053 433.114V403.159" stroke="#EE6D93" stroke-width="1.5" stroke-miterlimit="10" stroke-linecap="round" stroke-linejoin="round"/>
<path d="M390.663 402.916L407.024 393.201V225.615L285.953 294.43" stroke="white" stroke-width="2" stroke-miterlimit="10" stroke-linecap="round" stroke-linejoin="round"/>
<path d="M259.448 328.19L390.663 402.916" stroke="white" stroke-width="2" stroke-miterlimit="10" stroke-linejoin="round"/>
<path d="M239.897 316.856L250.204 322.847" stroke="white" stroke-width="2" stroke-miterlimit="10" stroke-linejoin="round"/>
<path d="M252.086 402.349L299.042 429.632L266.32 447.444L318.675 477.399" stroke="white" stroke-width="2" stroke-miterlimit="10" stroke-linecap="round" stroke-linejoin="round"/>
<path d="M386.982 456.188C385.346 455.297 384.364 453.273 384.364 450.439C384.364 444.772 388.373 437.891 393.363 435.057C395.817 433.681 398.026 433.519 399.662 434.329" stroke="white" stroke-width="1.5" stroke-miterlimit="10" stroke-linecap="round" stroke-linejoin="round"/>
<path d="M338.308 466.469V459.021C338.308 455.702 341.989 453.597 344.852 455.297" stroke="white" stroke-width="2" stroke-miterlimit="10" stroke-linecap="round" stroke-linejoin="round"/>
<path d="M340.353 463.069C340.353 457.24 344.525 450.115 349.597 447.201C352.215 445.663 354.587 445.582 356.305 446.634L402.852 473.432L390.745 496.424L343.298 469.141C341.498 468.169 340.353 466.145 340.353 463.069Z" fill="#1A1A1A"/>
<path d="M396.389 478.047C399.58 476.185 402.198 477.723 402.198 481.366C402.198 485.009 399.58 489.462 396.389 491.324C393.199 493.186 390.581 491.648 390.581 488.005C390.581 484.361 393.199 479.909 396.389 478.047Z" fill="white"/>
<path d="M396.389 491.324C399.58 489.462 402.197 485.009 402.197 481.366C402.197 477.723 399.58 476.266 396.389 478.047C393.199 479.909 390.581 484.361 390.581 488.005C390.581 491.648 393.199 493.105 396.389 491.324ZM396.389 474.161C401.543 471.246 405.715 473.594 405.715 479.423C405.715 485.252 401.543 492.376 396.471 495.291C391.317 498.206 387.145 495.858 387.145 490.029C387.063 484.2 391.235 477.075 396.389 474.161Z" fill="#383838"/>
<path d="M397.289 485.171L401.379 487.519C402.934 488.409 403.833 490.028 403.833 491.81L403.67 503.873" stroke="white" stroke-width="2" stroke-miterlimit="10" stroke-linecap="round" stroke-linejoin="round"/>
<path d="M354.342 475.132C352.706 474.241 351.724 472.217 351.724 469.384C351.724 463.717 355.732 456.835 360.723 454.001C363.177 452.625 365.385 452.463 367.021 453.273" stroke="white" stroke-width="1.5" stroke-miterlimit="10" stroke-linecap="round" stroke-linejoin="round"/>
<path d="M377.82 488.49C376.183 487.6 375.202 485.576 375.202 482.742C375.202 477.075 379.21 470.193 384.2 467.36C386.654 465.984 388.863 465.822 390.499 466.631" stroke="white" stroke-width="1.5" stroke-miterlimit="10" stroke-linecap="round" stroke-linejoin="round"/>
<path d="M187.869 73.8154L164.555 60.5381L151.711 68.1483L181.161 85.0688L187.869 73.8154Z" fill="url(#paint35_linear_185_3664)"/>
<path d="M220.509 55.0328L197.195 41.8364L184.352 49.4466L213.801 66.2862L220.509 55.0328Z" fill="url(#paint36_linear_185_3664)"/>
<path d="M210.938 68.4718C210.938 62.6428 215.028 55.5183 220.182 52.6038C222.718 51.1465 225.09 50.9846 226.726 51.9561L256.994 69.2005L243.578 91.4647L213.638 74.4628C212.002 73.4913 210.938 71.3864 210.938 68.4718Z" fill="url(#paint37_linear_185_3664)"/>
<path d="M250.45 69.9292C255.603 67.0146 259.775 69.3624 259.775 75.1915C259.775 81.0206 255.685 88.1455 250.531 91.06C245.378 93.9745 241.206 91.6267 241.206 85.7972C241.206 79.8872 245.296 72.8437 250.45 69.9292Z" fill="#383838"/>
<path d="M250.45 73.3295C253.885 71.3865 256.749 72.9247 256.749 76.8917C256.749 80.8588 253.967 85.6354 250.531 87.5787C247.096 89.5217 244.232 87.9835 244.232 84.0162C244.232 80.1301 247.014 75.2725 250.45 73.3295Z" fill="url(#paint38_linear_185_3664)"/>
<path d="M231.798 84.2589C230.162 83.3683 229.18 81.3444 229.18 78.5108C229.18 72.8436 233.189 65.962 238.179 63.1285C240.633 61.7522 242.842 61.5902 244.478 62.3998" stroke="#EE6D93" stroke-width="1.5" stroke-miterlimit="10" stroke-linecap="round" stroke-linejoin="round"/>
<path d="M224.19 80.3732C222.554 79.4826 221.573 77.4586 221.573 74.625C221.573 68.9579 225.581 62.0763 230.571 59.2427C233.025 57.8664 235.234 57.7045 236.87 58.5141" stroke="#EE6D93" stroke-width="1.5" stroke-miterlimit="10" stroke-linecap="round" stroke-linejoin="round"/>
<path d="M178.543 86.6072C178.543 80.778 182.634 73.6536 187.787 70.739C190.323 69.2818 192.696 69.1198 194.332 70.0914L224.599 87.3358L211.183 109.6L181.243 92.5982C179.525 91.5457 178.543 89.5217 178.543 86.6072Z" fill="url(#paint39_linear_185_3664)"/>
<path d="M218.055 87.9834C223.209 85.0687 227.381 87.4167 227.381 93.2458C227.381 99.0749 223.291 106.199 218.137 109.114C212.983 112.028 208.811 109.681 208.811 103.851C208.729 98.0224 212.901 90.898 218.055 87.9834Z" fill="#383838"/>
<path d="M218.055 91.4648C221.491 89.5217 224.354 91.06 224.354 95.027C224.354 98.994 221.573 103.771 218.137 105.714C214.701 107.657 211.838 106.118 211.838 102.151C211.756 98.1844 214.619 93.4078 218.055 91.4648Z" fill="url(#paint40_linear_185_3664)"/>
<path d="M199.404 102.394C197.767 101.504 196.786 99.4797 196.786 96.6461C196.786 90.9789 200.794 84.0973 205.784 81.2637C208.238 79.8874 210.447 79.7255 212.083 80.5351" stroke="#EE6D93" stroke-width="1.5" stroke-miterlimit="10" stroke-linecap="round" stroke-linejoin="round"/>
<path d="M191.796 98.508C190.16 97.6174 189.178 95.5935 189.178 92.7599C189.178 87.0927 193.186 80.2111 198.176 77.3775C200.63 76.0012 202.839 75.8393 204.475 76.6489" stroke="#EE6D93" stroke-width="1.5" stroke-miterlimit="10" stroke-linecap="round" stroke-linejoin="round"/>
<path d="M227.135 148.622L292.579 185.944L295.851 184.082" stroke="#EE6D93" stroke-width="1.5" stroke-miterlimit="10" stroke-linecap="round" stroke-linejoin="round"/>
<path d="M315.403 172.91L318.757 171.048" stroke="#EE6D93" stroke-width="1.5" stroke-miterlimit="10" stroke-linecap="round" stroke-linejoin="round"/>
<path d="M227.135 141.255L200.876 126.115" stroke="#EE6D93" stroke-width="1.5" stroke-miterlimit="10" stroke-linecap="round" stroke-linejoin="round"/>
<path d="M519.833 519.822L493.655 534.718L473.94 523.546" stroke="white" stroke-width="2" stroke-miterlimit="10" stroke-linejoin="round"/>
<path d="M559.181 498.206L533.003 513.183L513.37 501.93" stroke="white" stroke-width="2" stroke-miterlimit="10" stroke-linejoin="round"/>
<path d="M475.74 410.364L475.822 328.271L567.525 275.647" stroke="white" stroke-width="2" stroke-miterlimit="10" stroke-linecap="round" stroke-linejoin="round"/>
<path d="M488.91 223.429C492.51 221.324 495.455 223.024 495.536 227.153C495.618 231.282 492.591 236.301 488.992 238.406C485.393 240.511 482.448 238.811 482.366 234.682C482.284 230.553 485.229 225.534 488.91 223.429Z" fill="url(#paint41_linear_185_3664)"/>
<path d="M392.299 121.986L387.391 137.369L375.938 130.892" stroke="#EE6D93" stroke-width="4" stroke-miterlimit="10" stroke-linecap="round" stroke-linejoin="round"/>
<path d="M392.299 121.986L387.391 137.369L375.938 130.892" stroke="#EE6D93" stroke-width="4" stroke-miterlimit="10" stroke-linecap="round" stroke-linejoin="round"/>
<path d="M378.638 132.43L375.938 130.892" stroke="white" stroke-width="4" stroke-miterlimit="10" stroke-linecap="round" stroke-linejoin="round"/>
<path opacity="0.5" d="M351.397 113.891H384.119V140.607H351.397V113.891Z" fill="white"/>
<path opacity="0.7" d="M349.761 126.035H353.033V142.227H349.761V126.035Z" fill="url(#paint42_linear_185_3664)"/>
<path opacity="0.7" d="M356.305 134.13H359.577V142.226H356.305V134.13Z" fill="url(#paint43_linear_185_3664)"/>
<path opacity="0.7" d="M364.485 130.892H367.758V142.226H364.485V130.892Z" fill="url(#paint44_linear_185_3664)"/>
<path opacity="0.7" d="M447.108 130.892H450.38V142.226H447.108V130.892Z" fill="url(#paint45_linear_185_3664)"/>
<path opacity="0.7" d="M440.564 130.892H443.836V142.226H440.564V130.892Z" fill="url(#paint46_linear_185_3664)"/>
<path opacity="0.7" d="M434.019 130.892H437.292V142.226H434.019V130.892Z" fill="url(#paint47_linear_185_3664)"/>
<path opacity="0.5" d="M416.022 113.891H448.744V140.607H416.022V113.891Z" fill="white"/>
<path opacity="0.5" d="M429.111 99.3179H443.018V126.035H429.111V99.3179Z" fill="white"/>
<path opacity="0.5" d="M378.392 95.27H392.299V121.987H378.392V95.27Z" fill="white"/>
<path d="M411.114 143.036H393.117V118.586C393.117 118.182 393.363 117.858 393.772 117.777C398.353 116.643 403.097 116.401 407.76 117.21C409.724 117.534 411.114 119.234 411.114 121.177V143.036Z" fill="url(#paint48_linear_185_3664)"/>
<path d="M407.848 127.397C406.56 126.979 406.257 124.403 407.17 121.64C408.084 118.879 409.869 116.978 411.157 117.395C412.445 117.813 412.749 120.39 411.835 123.152C410.921 125.914 409.136 127.815 407.848 127.397Z" fill="#FC7B90"/>
<path d="M391.89 118.1L389.027 119.639L393.117 127.087V118.829C393.117 118.181 392.463 117.776 391.89 118.1Z" fill="#FC7B90"/>
<g opacity="0.5">
<g opacity="0.5">
<path opacity="0.5" d="M401.707 102.556C405.061 102.556 407.842 105.309 407.842 108.628V117.129C407.842 118.505 405.061 119.558 401.707 119.558C398.353 119.558 395.571 118.505 395.571 117.129V108.628C395.571 105.309 398.353 102.556 401.707 102.556Z" fill="url(#paint49_linear_185_3664)"/>
</g>
</g>
<path d="M401.707 107.414C400.152 107.414 398.843 108.709 398.843 110.247V118.748H404.57V110.247C404.57 108.709 403.261 107.414 401.707 107.414Z" fill="url(#paint50_linear_185_3664)"/>
<path d="M410.705 181.896L409.478 194.04L410.132 198.817C410.214 199.303 409.805 199.708 409.314 199.708H403.506C402.852 199.708 402.525 199.06 402.77 198.493L405.306 194.04L404.488 181.896H410.705Z" fill="#FC7B90"/>
<path d="M409.887 181.897L411.114 143.036H393.117L393.444 181.897H397.78L400.48 150.322H403.752L405.388 181.897H409.887Z" fill="url(#paint51_linear_185_3664)"/>
<path d="M398.844 181.896V198.898C398.844 199.384 398.516 199.708 398.025 199.708H387.636C386.818 199.708 386.491 198.655 387.145 198.25L393.526 194.04L392.299 181.896H398.844Z" fill="#FC7B90"/>
<path d="M398.025 118.748L400.889 124.01L404.57 118.748" fill="#FC7B90"/>
<path d="M398.025 118.748L400.889 124.01L404.57 118.748" stroke="#FC7B90" stroke-miterlimit="10" stroke-linecap="round"/>
<path d="M400.889 124.01V130.487L396.798 132.916V136.154" fill="#FC7B90"/>
<path d="M400.889 124.01V130.487L396.798 132.916V136.154" stroke="#FC7B90" stroke-miterlimit="10" stroke-linecap="round"/>
<path d="M400.889 130.487L404.979 132.916V136.154" fill="#FC7B90"/>
<path d="M400.889 130.487L404.979 132.916V136.154" stroke="#FC7B90" stroke-miterlimit="10" stroke-linecap="round"/>
<path d="M393.117 136.154H411.114Z" fill="#FC7B90"/>
<path d="M393.117 136.154H411.114" stroke="#FC7B90" stroke-miterlimit="10"/>
<path d="M409.478 122.796L412.75 138.178L416.922 128.139" stroke="#EE6D93" stroke-width="4" stroke-miterlimit="10" stroke-linecap="round" stroke-linejoin="round"/>
<path d="M416.922 128.14L418.477 124.416" stroke="white" stroke-width="4" stroke-miterlimit="10" stroke-linecap="round" stroke-linejoin="round"/>
<path d="M402.934 116.32C403.834 116.32 404.57 115.591 404.57 114.7V111.462C404.57 110.571 403.834 109.843 402.934 109.843C402.034 109.843 401.298 110.571 401.298 111.462V114.7C401.298 115.591 402.034 116.32 402.934 116.32Z" fill="white"/>
<path d="M407.842 165.705C406.035 165.705 404.57 164.255 404.57 162.466C404.57 160.678 406.035 159.228 407.842 159.228C409.649 159.228 411.114 160.678 411.114 162.466C411.114 164.255 409.649 165.705 407.842 165.705Z" fill="#FC7B90"/>
<path d="M393.935 162.466H399.416" stroke="white" stroke-miterlimit="10"/>
<path d="M393.935 165.705C392.58 165.705 391.481 164.255 391.481 162.466C391.481 160.678 392.58 159.228 393.935 159.228C395.291 159.228 396.389 160.678 396.389 162.466C396.389 164.255 395.291 165.705 393.935 165.705Z" fill="#FC7B90"/>
<path d="M393.117 139.797H411.114V143.036H393.117V139.797Z" fill="url(#paint52_linear_185_3664)"/>
<path d="M433.201 100.937H441.382V102.556H433.201V100.937Z" fill="white"/>
<path d="M431.565 104.175H441.382V105.794H431.565V104.175Z" fill="white"/>
<path d="M436.474 107.414H441.382V109.033H436.474V107.414Z" fill="white"/>
<path d="M431.565 107.414H434.02V109.033H431.565V107.414Z" fill="white"/>
<path opacity="0.7" d="M354.669 117.939C353.991 117.939 353.442 117.395 353.442 116.724C353.442 116.054 353.991 115.51 354.669 115.51C355.346 115.51 355.896 116.054 355.896 116.724C355.896 117.395 355.346 117.939 354.669 117.939Z" fill="url(#paint53_linear_185_3664)"/>
<path opacity="0.7" d="M358.759 117.939C358.081 117.939 357.532 117.395 357.532 116.724C357.532 116.054 358.081 115.51 358.759 115.51C359.436 115.51 359.986 116.054 359.986 116.724C359.986 117.395 359.436 117.939 358.759 117.939Z" fill="url(#paint54_linear_185_3664)"/>
<path opacity="0.7" d="M362.849 117.939C362.171 117.939 361.622 117.395 361.622 116.724C361.622 116.054 362.171 115.51 362.849 115.51C363.527 115.51 364.076 116.054 364.076 116.724C364.076 117.395 363.527 117.939 362.849 117.939Z" fill="url(#paint55_linear_185_3664)"/>
<path opacity="0.5" d="M355.487 121.177H371.848V135.749H355.487V121.177Z" fill="white"/>
<path d="M89.6216 544.595V331.833L155.065 294.43" stroke="white" stroke-width="2" stroke-miterlimit="10"/>
<path d="M115.799 324.385L83.159 305.684L115.799 279.453V324.385Z" fill="#1A1A1A"/>
<path d="M168.154 294.43V249.579L115.799 279.453V324.385L168.154 294.43Z" fill="#383838"/>
<path d="M115.799 301.959V279.453L168.154 249.579V272.004L115.799 301.959Z" fill="white"/>
<path d="M89.6216 492.295L97.6384 509.054L89.5398 516.664L81.6047 502.901L89.6216 492.295Z" fill="white"/>
<path d="M89.5398 516.664L84.2225 507.435L89.6216 492.295L97.6384 509.054L89.5398 516.664Z" fill="white"/>
<path d="M84.2225 507.435L97.6384 509.054L89.5398 516.664L84.2225 507.435Z" fill="white"/>
<path d="M89.6216 408.826C92.1575 410.283 94.2026 413.845 94.2026 416.76C94.2026 419.675 92.1576 420.808 89.5398 419.351C86.9221 417.893 84.9587 414.331 84.9587 411.417C84.9587 408.583 87.0856 407.369 89.6216 408.826Z" fill="white"/>
<path d="M239.897 311.594C242.433 313.051 244.478 316.613 244.478 319.528C244.478 322.442 242.433 323.576 239.815 322.118C237.279 320.661 235.234 317.099 235.234 314.184C235.316 311.351 237.361 310.136 239.897 311.594Z" fill="white"/>
<path d="M234.58 226.182C237.443 227.153 239.897 229.906 240.06 232.335C240.224 234.763 238.097 235.897 235.234 234.844C232.371 233.873 229.917 231.12 229.753 228.691C229.589 226.344 231.716 225.21 234.58 226.182Z" stroke="white" stroke-width="2" stroke-miterlimit="10" stroke-linejoin="round"/>
<path d="M254.867 320.256C257.403 321.713 259.448 325.276 259.448 328.19C259.448 331.105 257.403 332.238 254.785 330.781C252.249 329.324 250.204 325.761 250.204 322.847C250.204 319.932 252.331 318.799 254.867 320.256Z" stroke="white" stroke-width="1.5" stroke-miterlimit="10"/>
<path d="M89.6216 431.414C92.1575 432.871 94.2026 436.433 94.2026 439.348C94.2026 442.262 92.1576 443.396 89.5398 441.939C86.9221 440.481 84.9587 436.919 84.9587 434.005C84.9587 431.09 87.0856 429.876 89.6216 431.414Z" fill="white"/>
<path d="M99.4381 292.568L115.799 301.959V279.453L99.4381 292.568Z" fill="white"/>
<path d="M141.976 197.198L187.787 223.348L168.154 182.22L141.976 197.198Z" fill="#1A1A1A"/>
<path d="M168.154 182.22L187.787 223.348L233.68 197.198L214.047 156.07L168.154 182.22Z" fill="#383838"/>
<path d="M181.243 174.853L200.876 216.061" stroke="white" stroke-width="2" stroke-miterlimit="10"/>
<path d="M191.468 168.7L211.183 210.071" stroke="white" stroke-width="2" stroke-miterlimit="10"/>
<path d="M200.958 163.519L220.591 204.727" stroke="white" stroke-width="2" stroke-miterlimit="10"/>
<path d="M491.692 270.709L490.71 283.177L493.328 290.139L505.844 298.802L514.27 297.345L527.031 289.735V277.105L525.477 269.252L511.489 260.913L503.145 263.099L491.692 270.709Z" fill="white"/>
<path d="M491.692 270.709L493.901 271.681L506.253 265.771L511.489 260.913L503.144 263.099L491.692 270.709Z" fill="white"/>
<path d="M506.253 265.771L515.252 275.648L527.031 277.105L525.477 269.252L511.489 260.913L506.253 265.771Z" fill="white"/>
<path d="M515.252 275.647L508.053 287.791L514.27 297.345L527.031 289.734V277.105L515.252 275.647Z" fill="white"/>
<path d="M508.053 287.792L495.373 284.958L493.328 290.139L505.844 298.802L514.27 297.345L508.053 287.792Z" fill="white"/>
<path d="M495.373 284.958L493.901 271.68L491.692 270.709L490.71 283.177L493.328 290.139L495.373 284.958Z" fill="white"/>
<path d="M157.192 395.468L156.701 401.297L157.929 404.535L163.818 408.583L167.745 407.936L173.635 404.373V398.463L172.981 394.82L166.436 390.934L162.51 391.987L157.192 395.468Z" fill="url(#paint56_linear_185_3664)"/>
<path d="M157.192 395.468L158.256 395.954L163.982 393.201L166.436 390.934L162.51 391.987L157.192 395.468Z" fill="#EE6D93"/>
<path d="M163.982 393.201L168.154 397.816L173.635 398.463L172.981 394.82L166.436 390.934L163.982 393.201Z" fill="url(#paint57_linear_185_3664)"/>
<path d="M168.154 397.815L164.8 403.483L167.745 407.935L173.635 404.373V398.463L168.154 397.815Z" fill="url(#paint58_linear_185_3664)"/>
<path d="M164.8 403.483L158.91 402.188L157.929 404.535L163.818 408.583L167.745 407.936L164.8 403.483Z" fill="url(#paint59_linear_185_3664)"/>
<path d="M158.91 402.187L158.256 395.954L157.192 395.468L156.701 401.297L157.929 404.535L158.91 402.187Z" fill="url(#paint60_linear_185_3664)"/>
<path d="M142.876 422.751L142.631 425.99L143.285 427.852L146.558 430.119L148.766 429.714L152.12 427.69V424.371L151.711 422.347L148.03 420.161L145.821 420.727L142.876 422.751Z" fill="url(#paint61_linear_185_3664)"/>
<path d="M142.877 422.751L143.449 422.994L146.64 421.456L148.03 420.161L145.821 420.727L142.877 422.751Z" fill="#EE6D93"/>
<path d="M146.639 421.456L149.012 424.047L152.12 424.371L151.711 422.347L148.03 420.161L146.639 421.456Z" fill="url(#paint62_linear_185_3664)"/>
<path d="M149.012 424.046L147.13 427.204L148.766 429.714L152.12 427.69V424.37L149.012 424.046Z" fill="url(#paint63_linear_185_3664)"/>
<path d="M147.13 427.204L143.776 426.475L143.285 427.851L146.558 430.118L148.766 429.713L147.13 427.204Z" fill="url(#paint64_linear_185_3664)"/>
<path d="M143.776 426.475L143.449 422.994L142.877 422.751L142.631 425.989L143.286 427.851L143.776 426.475Z" fill="url(#paint65_linear_185_3664)"/>
<path d="M164.309 422.751L164.064 425.99L164.718 427.852L168.072 430.119L170.199 429.714L173.553 427.69V424.371L173.144 422.347L169.545 420.161L167.336 420.727L164.309 422.751Z" fill="url(#paint66_linear_185_3664)"/>
<path d="M164.309 422.751L164.882 422.994L168.154 421.456L169.545 420.161L167.336 420.727L164.309 422.751Z" fill="#EE6D93"/>
<path d="M168.154 421.456L170.526 424.047L173.553 424.371L173.144 422.347L169.545 420.161L168.154 421.456Z" fill="url(#paint67_linear_185_3664)"/>
<path d="M170.526 424.046L168.563 427.204L170.199 429.714L173.553 427.69V424.37L170.526 424.046Z" fill="url(#paint68_linear_185_3664)"/>
<path d="M168.563 427.204L165.291 426.475L164.718 427.851L168.072 430.118L170.199 429.713L168.563 427.204Z" fill="url(#paint69_linear_185_3664)"/>
<path d="M165.291 426.475L164.882 422.994L164.309 422.751L164.064 425.989L164.718 427.851L165.291 426.475Z" fill="url(#paint70_linear_185_3664)"/>
<path d="M299.778 403.807L299.042 413.36L301.005 418.703L310.658 425.423L317.039 424.208L326.855 418.379V408.745L325.71 402.754L314.912 396.277L308.531 397.977L299.778 403.807Z" fill="white"/>
<path d="M299.778 403.807L301.496 404.616L310.985 400.001L314.912 396.277L308.531 397.977L299.778 403.807Z" fill="white"/>
<path d="M310.985 400.001L317.857 407.612L326.855 408.745L325.71 402.754L314.912 396.277L310.985 400.001Z" fill="white"/>
<path d="M317.857 407.612L312.294 416.922L317.039 424.209L326.855 418.379V408.745L317.857 407.612Z" fill="white"/>
<path d="M312.294 416.922L302.559 414.736L301.005 418.703L310.658 425.423L317.039 424.209L312.294 416.922Z" fill="white"/>
<path d="M302.559 414.736L301.496 404.616L299.778 403.807L299.042 413.36L301.005 418.703L302.559 414.736Z" fill="white"/>
<path opacity="0.5" d="M80.2959 173.477C78.9379 173.477 77.8417 172.389 77.8417 171.048C77.8417 169.706 78.9379 168.619 80.2959 168.619C81.6538 168.619 82.75 169.706 82.75 171.048C82.75 172.389 81.6538 173.477 80.2959 173.477Z" fill="white"/>
<path d="M152.12 400.244C150.762 400.244 149.666 399.157 149.666 397.816C149.666 396.474 150.762 395.387 152.12 395.387C153.478 395.387 154.574 396.474 154.574 397.816C154.574 399.157 153.478 400.244 152.12 400.244Z" fill="url(#paint71_linear_185_3664)"/>
<path d="M156.701 420.322C155.343 420.322 154.247 419.235 154.247 417.894C154.247 416.552 155.343 415.465 156.701 415.465C158.059 415.465 159.156 416.552 159.156 417.894C159.156 419.235 158.059 420.322 156.701 420.322Z" fill="url(#paint72_linear_185_3664)"/>
<path d="M181.243 397.006C180.343 397.006 179.607 396.281 179.607 395.387C179.607 394.493 180.343 393.768 181.243 393.768C182.143 393.768 182.879 394.493 182.879 395.387C182.879 396.281 182.143 397.006 181.243 397.006Z" fill="url(#paint73_linear_185_3664)"/>
<path d="M146.639 442.505C145.739 442.505 145.003 441.78 145.003 440.886C145.003 439.992 145.739 439.267 146.639 439.267C147.539 439.267 148.275 439.992 148.275 440.886C148.275 441.78 147.539 442.505 146.639 442.505Z" fill="url(#paint74_linear_185_3664)"/>
<path d="M194.332 428.823C193.432 428.823 192.696 428.099 192.696 427.204C192.696 426.31 193.432 425.585 194.332 425.585C195.232 425.585 195.968 426.31 195.968 427.204C195.968 428.099 195.232 428.823 194.332 428.823Z" fill="url(#paint75_linear_185_3664)"/>
<path d="M632.887 473.513C631.531 473.513 630.433 472.426 630.433 471.084C630.433 469.743 631.531 468.655 632.887 468.655C634.242 468.655 635.341 469.743 635.341 471.084C635.341 472.426 634.242 473.513 632.887 473.513Z" fill="url(#paint76_linear_185_3664)"/>
<path d="M488.992 238.973C488.089 238.973 487.356 238.249 487.356 237.354C487.356 236.459 488.089 235.735 488.992 235.735C489.896 235.735 490.628 236.459 490.628 237.354C490.628 238.249 489.896 238.973 488.992 238.973Z" fill="url(#paint77_linear_185_3664)"/>
<path d="M305.586 205.86C304.682 205.86 303.95 205.135 303.95 204.241C303.95 203.347 304.682 202.622 305.586 202.622C306.489 202.622 307.222 203.347 307.222 204.241C307.222 205.135 306.489 205.86 305.586 205.86Z" fill="url(#paint78_linear_185_3664)"/>
<path d="M335.036 175.258C334.132 175.258 333.4 174.533 333.4 173.639C333.4 172.744 334.132 172.02 335.036 172.02C335.939 172.02 336.672 172.744 336.672 173.639C336.672 174.533 335.939 175.258 335.036 175.258Z" fill="url(#paint79_linear_185_3664)"/>
<path d="M322.765 200.436C321.861 200.436 321.129 199.712 321.129 198.817C321.129 197.923 321.861 197.198 322.765 197.198C323.668 197.198 324.401 197.923 324.401 198.817C324.401 199.712 323.668 200.436 322.765 200.436Z" fill="url(#paint80_linear_185_3664)"/>
<path d="M346.488 202.622C345.584 202.622 344.852 201.897 344.852 201.003C344.852 200.108 345.584 199.384 346.488 199.384C347.392 199.384 348.125 200.108 348.125 201.003C348.125 201.897 347.392 202.622 346.488 202.622Z" fill="url(#paint81_linear_185_3664)"/>
<path d="M320.311 148.298C318.955 148.298 317.857 147.211 317.857 145.87C317.857 144.528 318.955 143.441 320.311 143.441C321.666 143.441 322.765 144.528 322.765 145.87C322.765 147.211 321.666 148.298 320.311 148.298Z" fill="url(#paint82_linear_185_3664)"/>
<path d="M315.403 164.895C314.047 164.895 312.948 163.808 312.948 162.466C312.948 161.125 314.047 160.038 315.403 160.038C316.758 160.038 317.857 161.125 317.857 162.466C317.857 163.808 316.758 164.895 315.403 164.895Z" fill="url(#paint83_linear_185_3664)"/>
<path d="M501.999 239.621C501.322 239.621 500.772 239.077 500.772 238.406C500.772 237.735 501.322 237.192 501.999 237.192C502.677 237.192 503.226 237.735 503.226 238.406C503.226 239.077 502.677 239.621 501.999 239.621Z" fill="url(#paint84_linear_185_3664)"/>
<path d="M494.719 224.886C494.267 224.886 493.901 224.524 493.901 224.077C493.901 223.629 494.267 223.267 494.719 223.267C495.17 223.267 495.537 223.629 495.537 224.077C495.537 224.524 495.17 224.886 494.719 224.886Z" fill="url(#paint85_linear_185_3664)"/>
<path d="M498.727 231.849C498.501 231.849 498.318 231.667 498.318 231.444C498.318 231.22 498.501 231.039 498.727 231.039C498.953 231.039 499.136 231.22 499.136 231.444C499.136 231.667 498.953 231.849 498.727 231.849Z" fill="url(#paint86_linear_185_3664)"/>
<path d="M502.163 245.693C501.937 245.693 501.754 245.512 501.754 245.288C501.754 245.065 501.937 244.883 502.163 244.883C502.389 244.883 502.572 245.065 502.572 245.288C502.572 245.512 502.389 245.693 502.163 245.693Z" fill="url(#paint87_linear_185_3664)"/>
<path d="M656.61 478.37C655.255 478.37 654.156 477.283 654.156 475.941C654.156 474.6 655.255 473.513 656.61 473.513C657.966 473.513 659.064 474.6 659.064 475.941C659.064 477.283 657.966 478.37 656.61 478.37Z" fill="url(#paint88_linear_185_3664)"/>
<path d="M641.558 498.529C640.203 498.529 639.104 497.441 639.104 496.101C639.104 494.759 640.203 493.672 641.558 493.672C642.914 493.672 644.012 494.759 644.012 496.101C644.012 497.441 642.914 498.529 641.558 498.529Z" fill="url(#paint89_linear_185_3664)"/>
<path d="M666.018 462.017C665.114 462.017 664.382 461.292 664.382 460.398C664.382 459.503 665.114 458.778 666.018 458.778C666.922 458.778 667.654 459.503 667.654 460.398C667.654 461.292 666.922 462.017 666.018 462.017Z" fill="url(#paint90_linear_185_3664)"/>
<path d="M613.172 483.552C612.268 483.552 611.536 482.826 611.536 481.933C611.536 481.038 612.268 480.313 613.172 480.313C614.075 480.313 614.808 481.038 614.808 481.933C614.808 482.826 614.075 483.552 613.172 483.552Z" fill="url(#paint91_linear_185_3664)"/>
<path d="M626.261 445.744C625.809 445.744 625.443 445.382 625.443 444.934C625.443 444.487 625.809 444.125 626.261 444.125C626.712 444.125 627.079 444.487 627.079 444.934C627.079 445.382 626.712 445.744 626.261 445.744Z" fill="url(#paint92_linear_185_3664)"/>
<path d="M645.894 456.025C645.442 456.025 645.076 455.663 645.076 455.216C645.076 454.768 645.442 454.406 645.894 454.406C646.345 454.406 646.712 454.768 646.712 455.216C646.712 455.663 646.345 456.025 645.894 456.025Z" fill="url(#paint93_linear_185_3664)"/>
<path d="M678.452 448.253C678 448.253 677.634 447.891 677.634 447.444C677.634 446.997 678 446.634 678.452 446.634C678.904 446.634 679.27 446.997 679.27 447.444C679.27 447.891 678.904 448.253 678.452 448.253Z" fill="url(#paint94_linear_185_3664)"/>
<path d="M650.311 428.337C649.86 428.337 649.493 427.976 649.493 427.528C649.493 427.081 649.86 426.718 650.311 426.718C650.763 426.718 651.129 427.081 651.129 427.528C651.129 427.976 650.763 428.337 650.311 428.337Z" fill="url(#paint95_linear_185_3664)"/>
<path d="M142.304 395.387L144.349 409.393L150.239 406.478L142.304 395.387Z" fill="url(#paint96_linear_185_3664)"/>
<path d="M142.304 395.387L144.349 409.393L133.714 406.721L142.304 395.387Z" fill="#FC7B90"/>
<path d="M133.714 406.721L142.304 417.165L144.349 409.393L133.714 406.721Z" fill="url(#paint97_linear_185_3664)"/>
<path d="M142.304 417.165L150.239 406.478L144.349 409.393L142.304 417.165Z" fill="url(#paint98_linear_185_3664)"/>
<path d="M185.988 404.049L187.46 413.845L191.55 411.821L185.988 404.049Z" fill="url(#paint99_linear_185_3664)"/>
<path d="M185.987 404.049L187.46 413.845L180.016 411.983L185.987 404.049Z" fill="#FC7B90"/>
<path d="M180.016 411.983L185.987 419.351L187.46 413.845L180.016 411.983Z" fill="url(#paint100_linear_185_3664)"/>
<path d="M185.988 419.351L191.55 411.822L187.46 413.846L185.988 419.351Z" fill="url(#paint101_linear_185_3664)"/>
<path d="M122.262 358.064V365.432L148.439 350.535L148.521 343.006L122.262 358.064Z" fill="url(#paint102_linear_185_3664)"/>
<path d="M154.984 365.675V373.123L181.161 358.146L181.243 350.697L154.984 365.675Z" fill="url(#paint103_linear_185_3664)"/>
<path d="M194.332 302.203V309.57L220.509 294.673V287.144L194.332 302.203Z" fill="white"/>
<path d="M233.598 272.247V279.615L259.775 264.718V257.189L233.598 272.247Z" fill="white"/>
<path d="M194.413 369.318V376.685L233.68 354.259V346.811L194.413 369.318Z" fill="url(#paint104_linear_185_3664)"/>
<path d="M220.427 369.48V376.847L259.694 354.421L259.775 346.892L220.427 369.48Z" fill="url(#paint105_linear_185_3664)"/>
<path d="M251.186 401.864C252.413 401.135 252.413 400.002 251.186 399.273C249.959 398.544 247.914 398.544 246.605 399.273C245.378 400.002 245.296 401.135 246.605 401.864C247.914 402.592 249.959 402.592 251.186 401.864ZM245.541 398.544C247.423 397.492 250.532 397.492 252.413 398.544C254.295 399.597 254.295 401.378 252.413 402.511C250.532 403.564 247.423 403.564 245.541 402.511C243.66 401.459 243.578 399.678 245.541 398.544Z" fill="white"/>
<path d="M665.936 356.688L662.5 354.664L652.765 368.427L656.283 370.451L665.936 356.688Z" fill="#8F8F8F"/>
<path d="M656.283 370.451L652.765 368.427L654.238 369.804L657.674 371.747L656.283 370.451Z" fill="#C4C4C4"/>
<path d="M670.844 327.381L667.408 325.357C669.29 326.409 670.435 328.676 670.435 331.915C670.435 339.039 667.49 347.54 662.5 354.583L665.936 356.607C670.926 349.483 673.871 340.982 673.871 333.939C673.871 330.7 672.726 328.433 670.844 327.381Z" fill="#BEBEBE"/>
<path d="M672.48 324.628L669.044 322.604C666.754 321.309 663.563 321.471 660.046 323.495L663.482 325.519C666.999 323.495 670.19 323.252 672.48 324.628Z" fill="#BEBEBE"/>
<path d="M656.856 329.243V331.914L663.482 328.109C669.208 324.871 673.789 327.462 673.871 333.938C673.871 341.063 670.926 349.564 665.936 356.607L656.283 370.37L657.674 371.666L667.327 357.902C672.889 349.968 676.243 340.496 676.162 332.562C676.162 324.628 670.435 321.39 663.482 325.438L656.856 329.243Z" fill="#B4B4B4"/>
<path d="M656.855 329.243L653.42 327.3V329.89L656.855 331.914V329.243Z" fill="#9B9B9B"/>
<path d="M663.482 325.438L660.046 323.495L653.42 327.3L656.855 329.243L663.482 325.438Z" fill="#CACACA"/>
<path d="M629.042 390.61C647.121 390.61 661.764 376.118 661.764 358.226V337.986H596.32V358.226C596.32 376.118 610.963 390.61 629.042 390.61Z" fill="url(#paint106_linear_185_3664)"/>
<path d="M608.263 326.895C619.798 320.337 638.449 320.337 649.902 326.895C661.355 333.453 661.273 344.22 649.738 350.778C638.204 357.336 619.553 357.336 608.1 350.778C596.647 344.22 596.729 333.453 608.263 326.895Z" fill="url(#paint107_linear_185_3664)"/>
<path d="M649.738 350.778C661.273 344.22 661.355 333.453 649.902 326.895C638.449 320.337 619.798 320.337 608.263 326.895C596.729 333.453 596.647 344.22 608.1 350.778C619.553 357.336 638.286 357.336 649.738 350.778ZM605.973 325.6C618.816 318.313 639.513 318.313 652.274 325.6C665.036 332.886 664.954 344.786 652.111 352.153C639.267 359.44 618.571 359.44 605.809 352.153C593.048 344.786 593.13 332.886 605.973 325.6Z" fill="white"/>
<g opacity="0.6">
<path opacity="0.6" d="M657.019 343.411C657.019 343.411 653.256 314.265 663.809 295.24C676.652 272.328 654.892 242.697 654.892 242.697H599.183C599.183 242.697 621.68 277.591 609.736 297.831C591.903 328.11 600.41 343.573 600.41 343.573L657.019 343.411Z" fill="url(#paint108_linear_185_3664)"/>
</g>
<g opacity="0.3">
<path opacity="0.3" d="M657.019 343.411C657.019 343.411 653.256 314.265 663.809 295.24C676.652 272.328 654.892 242.697 654.892 242.697C654.892 242.697 669.781 281.315 646.221 297.831C617.344 318.152 616.771 343.573 616.771 343.573L657.019 343.411Z" fill="url(#paint109_linear_185_3664)"/>
</g>
<g opacity="0.6">
<path opacity="0.6" d="M637.386 343.411C637.386 343.411 612.108 329.972 620.452 302.607C628.715 275.648 599.265 242.697 599.265 242.697C599.265 242.697 621.761 277.591 609.818 297.831C591.984 328.11 600.492 343.573 600.492 343.573L637.386 343.411Z" fill="url(#paint110_linear_185_3664)"/>
</g>
<path d="M608.264 334.505C619.798 327.867 638.449 327.867 649.902 334.505C653.911 336.853 656.447 339.606 657.674 342.601C656.447 345.597 653.829 348.43 649.739 350.778C638.204 357.336 619.553 357.336 608.1 350.778C604.092 348.511 601.474 345.678 600.328 342.682C601.556 339.687 604.173 336.853 608.264 334.505Z" fill="url(#paint111_linear_185_3664)"/>
<path d="M78.3326 181.33C89.2127 175.096 106.719 175.096 117.517 181.33C128.315 187.564 128.234 197.603 117.354 203.755C106.474 209.989 88.9673 209.989 78.1691 203.755C67.3708 197.522 67.5344 187.483 78.3326 181.33Z" fill="url(#paint112_linear_185_3664)"/>
<path d="M152.333 95.7695H160.596H168.776L188.082 184.339L160.596 186.768L133.109 184.339L152.333 95.7695Z" fill="url(#paint113_linear_185_3664)"/>
<path d="M86.3493 185.944C92.7301 182.301 103.119 182.301 109.5 185.944C115.881 189.587 115.799 195.578 109.418 199.222C103.037 202.865 92.6483 202.865 86.2675 199.222C79.8868 195.498 79.9685 189.587 86.3493 185.944Z" fill="url(#paint114_linear_185_3664)"/>
<path d="M122.343 81.2637L168.154 55.1138L135.432 36.4121L89.6215 62.562L122.343 81.2637Z" fill="#424242"/>
<path d="M89.6216 62.5625V66.0438L122.344 84.6645V81.2642L89.6216 62.5625Z" fill="#1A1A1A"/>
<path d="M122.343 81.2642V84.6645L168.154 58.5146V55.1143L122.343 81.2642Z" fill="#5C5C5C"/>
<path d="M83.0771 118.667V81.2642L50.3553 62.5625V99.9657L83.0771 118.667Z" fill="#1A1A1A"/>
<path d="M83.0772 81.2642L115.799 62.5625V99.9657L83.0772 118.667V81.2642Z" fill="#5C5C5C"/>
<path d="M50.3553 62.562L83.159 43.8604L115.799 62.562L83.0772 81.2636L50.3553 62.562Z" fill="#424242"/>
<path d="M83.1589 73.8963L63.444 62.562L76.5328 47.6655L83.0772 51.3896L83.1589 73.8963Z" fill="#1A1A1A"/>
<path d="M83.1589 73.8964L102.792 62.562V40.1362L83.0771 51.3896L83.1589 73.8964Z" fill="#5C5C5C"/>
<path d="M30.8038 126.196L76.5327 99.9653L43.8108 81.2637L-1.91805 107.495L30.8038 126.196Z" fill="#424242"/>
<path d="M-1.91818 107.495V110.895L30.8037 129.597V126.196L-1.91818 107.495Z" fill="#1A1A1A"/>
<path d="M30.8038 126.196V129.597L76.5327 103.447V99.9653L30.8038 126.196Z" fill="#5C5C5C"/>
<path d="M30.722 88.793L63.4438 107.495V111.219" stroke="white" stroke-width="2" stroke-miterlimit="10" stroke-linecap="round"/>
<path d="M24.1778 92.5171L56.9814 111.219V114.943" stroke="white" stroke-width="2" stroke-miterlimit="10" stroke-linecap="round"/>
<path d="M17.6333 96.2412L50.3552 114.943V118.667" stroke="white" stroke-width="2" stroke-miterlimit="10" stroke-linecap="round"/>
<path d="M11.0889 99.9653L43.8108 118.667V122.391" stroke="white" stroke-width="2" stroke-miterlimit="10" stroke-linecap="round"/>
<path d="M122.344 43.8604L155.065 62.562V66.2861" stroke="white" stroke-width="2" stroke-miterlimit="10" stroke-linecap="round"/>
<path d="M115.799 47.6655L148.603 66.2861V70.0913" stroke="white" stroke-width="2" stroke-miterlimit="10" stroke-linecap="round"/>
<path d="M109.255 51.3896L141.977 70.0914V73.8154" stroke="white" stroke-width="2" stroke-miterlimit="10" stroke-linecap="round"/>
<path d="M102.71 55.1138L135.432 73.8154V77.5396" stroke="white" stroke-width="2" stroke-miterlimit="10" stroke-linecap="round"/>
<path d="M107.537 72.2774C85.8586 72.2774 68.3524 57.2189 68.3524 38.6792C68.3524 20.1394 85.9404 5 107.537 5V72.2774Z" fill="#1A1A1A"/>
<path d="M107.537 72.1964C93.0329 72.1964 81.2774 57.154 81.2774 38.5982C81.2774 20.0424 93.0329 5 107.537 5C122.041 5 133.796 20.0424 133.796 38.5982C133.796 57.154 122.041 72.1964 107.537 72.1964Z" fill="#383838"/>
<path d="M95.0207 48.3942C97.6384 48.3942 99.7654 44.0223 99.7654 38.679C99.7654 33.3357 97.6384 28.9639 95.0207 28.9639" stroke="white" stroke-width="2" stroke-miterlimit="10"/>
<path d="M89.2943 48.3942C91.9121 48.3942 94.0391 44.0223 94.0391 38.679C94.0391 33.3357 91.9121 28.9639 89.2943 28.9639" stroke="white" stroke-width="2" stroke-miterlimit="10"/>
<path d="M106.964 38.5981H81.3593" stroke="#1A1A1A" stroke-width="2" stroke-miterlimit="10"/>
<path d="M95.0205 28.8833C92.4028 28.8833 90.2758 33.2551 90.2758 38.5984C90.2758 43.9418 92.4028 48.3136 95.0205 48.3136" stroke="white" stroke-width="2" stroke-miterlimit="10"/>
<path d="M89.2944 28.8833C86.6767 28.8833 84.5497 33.2551 84.5497 38.5984C84.5497 43.9418 86.6767 48.3136 89.2944 48.3136" stroke="white" stroke-width="2" stroke-miterlimit="10"/>
<path d="M107.537 44.9942C103.97 44.9942 101.074 42.1307 101.074 38.5984C101.074 35.0661 103.97 32.2026 107.537 32.2026C111.103 32.2026 113.999 35.0661 113.999 38.5984C113.999 42.1307 111.103 44.9942 107.537 44.9942Z" fill="white"/>
<path d="M109.255 96.2412L102.71 92.5171L89.6215 100.046V107.495L109.255 96.2412Z" fill="#383838"/>
<path d="M102.71 92.5171L102.628 77.5397L109.336 73.8965L109.255 96.2412L102.71 92.5171Z" fill="#1A1A1A"/>
<path d="M102.629 77.54L147.539 102.556L120.053 117.939L89.6216 100.047L102.629 77.54Z" fill="url(#paint115_linear_185_3664)"/>
<path d="M89.6214 85.0693V100.047L102.71 92.5175L102.628 77.54L89.6214 85.0693Z" fill="url(#paint116_linear_185_3664)"/>
<path d="M642.049 449.792L647.775 459.588L636.65 465.902L647.693 484.766L642.294 487.761L631.251 468.898L636.568 452.868L642.049 449.792Z" fill="url(#paint117_linear_185_3664)"/>
<path d="M662.091 461.692L656.61 464.769L673.053 492.781L678.452 489.704L662.091 461.692Z" fill="url(#paint118_linear_185_3664)"/>
<path d="M636.568 452.868L642.294 462.664L631.251 468.898L642.294 487.762L636.486 491.081L619.716 462.34L636.568 452.868Z" fill="url(#paint119_linear_185_3664)"/>
<path d="M656.692 464.769L651.047 467.926L661.846 486.385L650.965 492.457L656.528 502.091L673.053 492.781L656.692 464.769Z" fill="url(#paint120_linear_185_3664)"/>
<path d="M475.004 432.466L527.277 402.188" stroke="white" stroke-width="2" stroke-miterlimit="10" stroke-linecap="round" stroke-linejoin="round"/>
<path d="M436.555 485.414L449.644 492.862V502.496" stroke="white" stroke-width="2" stroke-miterlimit="10" stroke-linecap="round" stroke-linejoin="round"/>
<path d="M450.053 514.155C452.589 512.698 454.716 509.135 454.716 506.221C454.716 503.306 452.589 502.092 450.053 503.631C447.517 505.088 445.39 508.649 445.39 511.564C445.39 514.478 447.517 515.613 450.053 514.155ZM450.053 501.607C453.571 499.583 456.434 501.202 456.434 505.25C456.434 509.298 453.571 514.155 450.053 516.179C446.535 518.203 443.672 516.584 443.672 512.536C443.672 508.488 446.535 503.631 450.053 501.607Z" fill="white"/>
<path d="M403.833 503.63L416.84 511.078V520.712" stroke="white" stroke-width="2" stroke-miterlimit="10" stroke-linecap="round" stroke-linejoin="round"/>
<path d="M417.331 532.371C419.867 530.914 421.994 527.351 421.994 524.436C421.994 521.522 419.867 520.389 417.331 521.847C414.795 523.304 412.669 526.865 412.669 529.78C412.669 532.613 414.795 533.829 417.331 532.371ZM417.25 519.823C420.767 517.799 423.63 519.418 423.63 523.466C423.63 527.514 420.767 532.371 417.25 534.395C413.732 536.419 410.869 534.8 410.869 530.752C410.951 526.704 413.732 521.847 417.25 519.823Z" fill="white"/>
<path d="M93.7823 192.833L114.599 157.378C115.094 156.533 115.214 155.549 114.933 154.627C114.799 154.184 114.572 153.769 114.265 153.403C113.954 153.031 113.562 152.722 113.112 152.494C112.681 152.275 112.204 152.139 111.711 152.095C111.218 152.051 110.72 152.1 110.25 152.24C109.785 152.377 109.355 152.595 108.983 152.881C108.591 153.183 108.268 153.551 108.033 153.965L107.176 155.459L98.1835 139.896C98.1767 139.885 98.1703 139.874 98.164 139.863C98.1577 139.853 98.1508 139.841 98.1439 139.831C98.1371 139.82 98.1313 139.81 98.1255 139.799C98.1197 139.788 98.1128 139.777 98.1059 139.766L105.655 125.791C105.891 125.36 106.038 124.895 106.092 124.418C106.142 123.972 106.101 123.522 105.971 123.089C105.847 122.678 105.632 122.294 105.337 121.961C105.046 121.632 104.674 121.367 104.25 121.188C103.826 121.008 103.362 120.919 102.894 120.927C102.426 120.937 101.965 121.031 101.539 121.205C101.093 121.387 100.686 121.639 100.339 121.95C99.968 122.282 99.6644 122.67 99.4416 123.096L80.4685 159.094C80.2661 159.479 80.1411 159.892 80.0991 160.316C80.0576 160.73 80.092 161.146 80.201 161.55C80.3071 161.945 80.4885 162.321 80.7371 162.661C80.9821 162.998 81.2997 163.287 81.6712 163.511C82.0234 163.726 82.4249 163.867 82.8459 163.923C83.2466 163.975 83.6552 163.946 84.0417 163.837C84.4398 163.724 84.8064 163.536 85.1172 163.286C85.4596 163.01 85.7378 162.677 85.9357 162.304L86.0333 162.121L94.5766 177.498L88.0212 188.961C87.8074 189.34 87.6761 189.753 87.6344 190.176C87.591 190.604 87.6267 191.035 87.74 191.453C87.8546 191.875 88.0446 192.279 88.3025 192.647C88.5622 193.02 88.8943 193.347 89.283 193.614C89.4053 193.698 89.5332 193.775 89.6661 193.845C89.7937 193.912 89.9259 193.972 90.0619 194.024C90.1929 194.074 90.3274 194.116 90.4646 194.149C90.5975 194.182 90.7327 194.207 90.8693 194.224C91.1539 194.259 91.4426 194.255 91.7258 194.212C92.0051 194.169 92.2753 194.088 92.5269 193.971C92.786 193.851 93.0226 193.695 93.2282 193.509C93.4493 193.309 93.636 193.082 93.7823 192.833ZM99.4289 169.009L90.8118 153.337L90.8065 153.329C90.8065 153.329 90.8065 153.324 90.8023 153.322C90.8007 153.319 90.7993 153.317 90.7981 153.315C90.7981 153.313 90.7981 153.31 90.7949 153.308L93.1169 149.008L102.078 164.38L99.4289 169.009Z" fill="white"/>
<path d="M93.1076 195.681C92.9624 195.663 92.8168 195.637 92.6728 195.601C92.5295 195.565 92.388 195.521 92.2492 195.468C92.1104 195.415 91.9739 195.353 91.8407 195.284C91.7075 195.215 91.5781 195.137 91.4531 195.052C91.2376 194.906 91.0397 194.742 90.8618 194.562C90.6836 194.383 90.5254 194.19 90.3891 193.984C90.2536 193.778 90.1393 193.561 90.049 193.335C89.9582 193.11 89.8924 192.876 89.853 192.638C89.825 192.469 89.8111 192.301 89.8111 192.137C89.8111 191.971 89.8245 191.807 89.8525 191.647C89.8794 191.487 89.9209 191.33 89.9764 191.177C90.0314 191.024 90.1004 190.876 90.1829 190.732L97.4987 178.028L97.6935 177.69L97.4938 177.334L87.9595 160.29L87.7087 159.841L87.4654 160.295L87.3572 160.496C87.2164 160.756 87.0421 160.991 86.8415 161.196C86.6421 161.401 86.4162 161.576 86.1706 161.719C85.9255 161.862 85.6617 161.97 85.3856 162.042C85.1089 162.114 84.8212 162.15 84.5269 162.144C84.39 162.142 84.2527 162.131 84.1176 162.11C83.9819 162.089 83.8475 162.06 83.7157 162.022C83.5834 161.984 83.4543 161.938 83.3278 161.883C83.2013 161.829 83.0785 161.766 82.9591 161.695C82.7546 161.573 82.5661 161.431 82.3966 161.273C82.2269 161.115 82.0761 160.94 81.9466 160.752C81.8169 160.564 81.7084 160.363 81.6221 160.151C81.5364 159.939 81.4733 159.718 81.4354 159.49C81.4083 159.328 81.3955 159.166 81.396 159.005C81.396 158.844 81.4093 158.684 81.4354 158.525C81.4625 158.366 81.5019 158.21 81.5546 158.056C81.6073 157.901 81.6723 157.75 81.7513 157.602L102.926 117.702C103.081 117.41 103.272 117.14 103.493 116.896C103.714 116.652 103.964 116.435 104.236 116.249C104.509 116.063 104.804 115.909 105.114 115.791C105.425 115.673 105.751 115.592 106.085 115.552C106.241 115.534 106.397 115.526 106.552 115.527C106.706 115.529 106.86 115.539 107.012 115.56C107.164 115.581 107.312 115.611 107.458 115.649C107.605 115.689 107.747 115.738 107.885 115.796C108.123 115.897 108.342 116.021 108.54 116.167C108.738 116.312 108.916 116.479 109.067 116.663C109.22 116.848 109.348 117.05 109.449 117.267C109.55 117.485 109.624 117.716 109.669 117.96C109.7 118.131 109.715 118.304 109.714 118.479C109.714 118.654 109.699 118.83 109.667 119.005C109.636 119.18 109.589 119.356 109.527 119.529C109.465 119.703 109.388 119.875 109.296 120.045L100.9 135.526L100.704 135.886L100.901 136.221C100.908 136.234 100.916 136.245 100.922 136.257C100.93 136.269 100.937 136.282 100.944 136.293C100.951 136.305 100.958 136.318 100.965 136.33C100.973 136.342 100.98 136.354 100.987 136.366L110.99 153.605L111.275 154.097L111.561 153.601L112.516 151.944C112.679 151.66 112.881 151.403 113.114 151.175C113.348 150.947 113.612 150.749 113.9 150.586C114.189 150.423 114.5 150.294 114.828 150.205C115.157 150.116 115.501 150.066 115.855 150.059C116.02 150.057 116.184 150.064 116.347 150.081C116.511 150.098 116.673 150.124 116.833 150.16C116.993 150.196 117.15 150.242 117.305 150.297C117.459 150.351 117.61 150.416 117.756 150.489C118.007 150.617 118.239 150.766 118.447 150.936C118.656 151.105 118.842 151.294 119.003 151.499C119.165 151.704 119.299 151.925 119.407 152.158C119.514 152.391 119.592 152.637 119.639 152.891C119.672 153.072 119.689 153.252 119.689 153.433C119.689 153.612 119.672 153.793 119.638 153.971C119.605 154.15 119.555 154.326 119.49 154.499C119.425 154.673 119.344 154.843 119.246 155.009L96.0865 194.289C95.9376 194.541 95.7545 194.763 95.5436 194.952C95.3331 195.141 95.0961 195.297 94.8375 195.417C94.5793 195.537 94.3018 195.621 94.011 195.666C93.7206 195.711 93.4171 195.717 93.1076 195.681ZM95.601 145.295L95.3459 145.765L92.7625 150.529L92.5869 150.852L92.7508 151.184C92.7545 151.191 92.7582 151.197 92.7614 151.204C92.7651 151.21 92.7683 151.216 92.7714 151.222C92.7746 151.228 92.7777 151.234 92.7815 151.239C92.7846 151.245 92.7877 151.25 92.7909 151.254L102.37 168.601L102.642 169.093L102.914 168.62L105.869 163.489L106.073 163.134L105.864 162.778L95.8629 145.74L95.601 145.295ZM93.1071 196.203C93.4303 196.242 93.7509 196.237 94.0615 196.19C94.3726 196.143 94.6731 196.053 94.9544 195.923C95.2373 195.793 95.5002 195.621 95.7357 195.411C95.9703 195.199 96.1779 194.949 96.348 194.661L119.544 155.373C119.83 154.888 119.999 154.372 120.058 153.854C120.117 153.335 120.067 152.815 119.916 152.324C119.765 151.833 119.515 151.371 119.172 150.967C118.832 150.563 118.4 150.218 117.888 149.96C117.726 149.878 117.561 149.808 117.393 149.748C117.226 149.689 117.055 149.641 116.885 149.603C116.714 149.565 116.542 149.539 116.37 149.522C116.198 149.505 116.026 149.498 115.855 149.501C115.487 149.508 115.123 149.562 114.771 149.657C114.422 149.752 114.085 149.891 113.769 150.069C113.455 150.246 113.163 150.464 112.903 150.719C112.643 150.973 112.416 151.264 112.229 151.59L111.275 153.246L101.255 136C101.247 135.988 101.24 135.976 101.233 135.964C101.225 135.952 101.218 135.94 101.211 135.927C101.204 135.915 101.197 135.904 101.19 135.892C101.183 135.88 101.176 135.868 101.169 135.856L109.578 120.37C109.85 119.873 110.009 119.357 110.065 118.848C110.12 118.339 110.073 117.84 109.929 117.376C109.787 116.914 109.549 116.488 109.226 116.127C108.902 115.767 108.494 115.471 108.01 115.268C107.857 115.203 107.701 115.15 107.541 115.108C107.383 115.066 107.222 115.034 107.06 115.014C106.899 114.993 106.736 114.982 106.574 114.981C106.411 114.981 106.248 114.99 106.085 115.009C105.738 115.051 105.394 115.136 105.061 115.262C104.73 115.389 104.412 115.555 104.113 115.758C103.815 115.961 103.539 116.2 103.293 116.473C103.047 116.745 102.832 117.05 102.654 117.384L81.5117 157.275C81.2819 157.706 81.1482 158.166 81.101 158.628C81.0544 159.089 81.0942 159.554 81.2145 159.995C81.3351 160.437 81.5364 160.856 81.8109 161.227C82.086 161.598 82.4348 161.922 82.8519 162.17C82.984 162.249 83.1192 162.318 83.2566 162.377C83.3935 162.436 83.5326 162.486 83.6733 162.526C83.8141 162.566 83.956 162.596 84.098 162.618C84.2407 162.64 84.384 162.651 84.5269 162.654C84.8332 162.66 85.1382 162.624 85.4335 162.548C85.7283 162.471 86.0141 162.354 86.2817 162.199C86.5502 162.045 86.7997 161.852 87.0232 161.623C87.2464 161.395 87.444 161.13 87.6065 160.831L87.7154 160.628L97.2353 177.668L89.9308 190.371C89.6899 190.791 89.5491 191.249 89.5 191.717C89.4509 192.186 89.4938 192.667 89.62 193.132C89.7473 193.597 89.9582 194.048 90.2468 194.456C90.5358 194.865 90.902 195.232 91.3396 195.528C91.4787 195.623 91.6216 195.708 91.7667 195.784C91.912 195.86 92.0589 195.925 92.2076 195.982C92.3564 196.038 92.5059 196.084 92.656 196.121C92.8062 196.157 92.9571 196.185 93.1071 196.203ZM95.6063 146.097L105.592 163.132L102.642 168.263L93.0379 150.894C93.0358 150.891 93.0337 150.888 93.0321 150.886C93.0305 150.883 93.0295 150.881 93.0274 150.878C93.0253 150.876 93.0242 150.873 93.0226 150.871C93.0216 150.868 93.02 150.865 93.0189 150.863L95.6063 146.097Z" fill="white"/>
</g>
</g>
<defs>
<filter id="filter0_f_185_3664" x="-49.918" y="157.78" width="1202" height="738.009" filterUnits="userSpaceOnUse" color-interpolation-filters="sRGB">
<feFlood flood-opacity="0" result="BackgroundImageFix"/>
<feBlend mode="normal" in="SourceGraphic" in2="BackgroundImageFix" result="shape"/>
<feGaussianBlur stdDeviation="24" result="effect1_foregroundBlur_185_3664"/>
</filter>
<radialGradient id="paint0_radial_185_3664" cx="0" cy="0" r="1" gradientUnits="userSpaceOnUse" gradientTransform="translate(556.614 536.983) scale(547.468 305.6)">
<stop stop-color="#A2163B"/>
<stop offset="1" stop-color="#FC7B90" stop-opacity="0"/>
</radialGradient>
<linearGradient id="paint1_linear_185_3664" x1="472.509" y1="234.475" x2="472.509" y2="289.776" gradientUnits="userSpaceOnUse">
<stop stop-color="#F7C6B8" stop-opacity="0"/>
<stop offset="1" stop-color="#EE6D93"/>
</linearGradient>
<linearGradient id="paint2_linear_185_3664" x1="472.509" y1="247.429" x2="472.509" y2="302.73" gradientUnits="userSpaceOnUse">
<stop stop-color="#F7C6B8" stop-opacity="0"/>
<stop offset="1" stop-color="#EE6D93"/>
</linearGradient>
<linearGradient id="paint3_linear_185_3664" x1="225.219" y1="684.024" x2="180.073" y2="302.518" gradientUnits="userSpaceOnUse">
<stop stop-color="#EE6D93"/>
<stop offset="1" stop-color="#F7C6B8" stop-opacity="0"/>
</linearGradient>
<linearGradient id="paint4_linear_185_3664" x1="629.014" y1="394.696" x2="629.014" y2="442.195" gradientUnits="userSpaceOnUse">
<stop stop-color="#CDCDCD" stop-opacity="0"/>
<stop offset="1" stop-color="#FDFFFE"/>
</linearGradient>
<linearGradient id="paint5_linear_185_3664" x1="629.014" y1="378.505" x2="629.014" y2="426.004" gradientUnits="userSpaceOnUse">
<stop stop-color="#CDCDCD" stop-opacity="0"/>
<stop offset="1" stop-color="#FDFFFE"/>
</linearGradient>
<linearGradient id="paint6_linear_185_3664" x1="227.053" y1="412.734" x2="227.053" y2="302.767" gradientUnits="userSpaceOnUse">
<stop stop-color="#2E2E2E"/>
<stop offset="1" stop-color="#B6B6B6"/>
</linearGradient>
<linearGradient id="paint7_linear_185_3664" x1="148.521" y1="542.696" x2="148.521" y2="335.299" gradientUnits="userSpaceOnUse">
<stop stop-color="#626262"/>
<stop offset="1" stop-color="#737373"/>
</linearGradient>
<linearGradient id="paint8_linear_185_3664" x1="192.483" y1="241.305" x2="195.111" y2="199.044" gradientUnits="userSpaceOnUse">
<stop stop-color="#FD7C92"/>
<stop offset="1" stop-color="#A1153A"/>
</linearGradient>
<linearGradient id="paint9_linear_185_3664" x1="189.955" y1="225.211" x2="182.047" y2="206.203" gradientUnits="userSpaceOnUse">
<stop stop-color="#FB7A90"/>
<stop offset="1" stop-color="#A3173C"/>
</linearGradient>
<linearGradient id="paint10_linear_185_3664" x1="285.478" y1="118.277" x2="269.588" y2="147.942" gradientUnits="userSpaceOnUse">
<stop stop-color="#707070"/>
<stop offset="1" stop-color="#2B2B2C"/>
</linearGradient>
<linearGradient id="paint11_linear_185_3664" x1="285.953" y1="118.626" x2="259.759" y2="118.626" gradientUnits="userSpaceOnUse">
<stop stop-color="#FC7B91"/>
<stop offset="1" stop-color="#A2173B"/>
</linearGradient>
<linearGradient id="paint12_linear_185_3664" x1="456.019" y1="176.783" x2="495.526" y2="180.631" gradientUnits="userSpaceOnUse">
<stop stop-color="#474747"/>
<stop offset="1" stop-color="#5E5E5E"/>
</linearGradient>
<linearGradient id="paint13_linear_185_3664" x1="613.496" y1="397.155" x2="503.576" y2="310.257" gradientUnits="userSpaceOnUse">
<stop stop-color="#F5F5F5" stop-opacity="0"/>
<stop offset="1" stop-color="white"/>
</linearGradient>
<linearGradient id="paint14_linear_185_3664" x1="87.012" y1="413.069" x2="67.4864" y2="428.587" gradientUnits="userSpaceOnUse">
<stop stop-color="white" stop-opacity="0.5"/>
<stop offset="1" stop-color="#DCDCDC" stop-opacity="0"/>
</linearGradient>
<linearGradient id="paint15_linear_185_3664" x1="87.012" y1="435.611" x2="67.4864" y2="451.129" gradientUnits="userSpaceOnUse">
<stop stop-color="#D3D3D3" stop-opacity="0.5"/>
<stop offset="1" stop-color="white" stop-opacity="0"/>
</linearGradient>
<linearGradient id="paint16_linear_185_3664" x1="463.178" y1="178.513" x2="498.538" y2="178.513" gradientUnits="userSpaceOnUse">
<stop stop-color="white"/>
<stop offset="1" stop-color="#454545"/>
</linearGradient>
<linearGradient id="paint17_linear_185_3664" x1="572.97" y1="384.286" x2="557.204" y2="384.286" gradientUnits="userSpaceOnUse">
<stop stop-color="#FD7C91"/>
<stop offset="1" stop-color="#A2163B"/>
</linearGradient>
<linearGradient id="paint18_linear_185_3664" x1="579.565" y1="413.005" x2="565.087" y2="413.005" gradientUnits="userSpaceOnUse">
<stop stop-color="#FD7D92"/>
<stop offset="1" stop-color="#A3173C"/>
</linearGradient>
<linearGradient id="paint19_linear_185_3664" x1="576.667" y1="424.874" x2="584.055" y2="432.337" gradientUnits="userSpaceOnUse">
<stop stop-color="#FC7B91"/>
<stop offset="1" stop-color="#A2163B"/>
</linearGradient>
<linearGradient id="paint20_linear_185_3664" x1="558.914" y1="433.994" x2="558.835" y2="448.768" gradientUnits="userSpaceOnUse">
<stop stop-color="#A2163B"/>
<stop offset="1" stop-color="#A2163B"/>
</linearGradient>
<linearGradient id="paint21_linear_185_3664" x1="553.844" y1="418.098" x2="575.999" y2="418.919" gradientUnits="userSpaceOnUse">
<stop stop-color="#FC7B90"/>
<stop offset="1" stop-color="#A2163B"/>
</linearGradient>
<linearGradient id="paint22_linear_185_3664" x1="576.348" y1="382.583" x2="564.524" y2="382.583" gradientUnits="userSpaceOnUse">
<stop stop-color="#FC7B90"/>
<stop offset="1" stop-color="#A2163B"/>
</linearGradient>
<linearGradient id="paint23_linear_185_3664" x1="580.29" y1="382.583" x2="568.466" y2="382.583" gradientUnits="userSpaceOnUse">
<stop stop-color="#FB7A8F"/>
<stop offset="1" stop-color="#A4183D"/>
</linearGradient>
<linearGradient id="paint24_linear_185_3664" x1="565.315" y1="373.83" x2="565.315" y2="357.231" gradientUnits="userSpaceOnUse">
<stop stop-color="#F7C6B8"/>
<stop offset="1" stop-color="#EE6D93"/>
</linearGradient>
<linearGradient id="paint25_linear_185_3664" x1="565.315" y1="361.346" x2="565.315" y2="372.028" gradientUnits="userSpaceOnUse">
<stop stop-color="#FD7C91"/>
<stop offset="1" stop-color="#A3173C"/>
</linearGradient>
<linearGradient id="paint26_linear_185_3664" x1="649.127" y1="506.633" x2="649.127" y2="455.728" gradientUnits="userSpaceOnUse">
<stop stop-color="#B0B0B0"/>
<stop offset="1" stop-color="white"/>
</linearGradient>
<linearGradient id="paint27_linear_185_3664" x1="629.551" y1="531.731" x2="629.551" y2="473.236" gradientUnits="userSpaceOnUse">
<stop stop-color="#BBBBBB"/>
<stop offset="1" stop-color="white"/>
</linearGradient>
<linearGradient id="paint28_linear_185_3664" x1="649.226" y1="518.465" x2="649.226" y2="426.184" gradientUnits="userSpaceOnUse">
<stop stop-color="white"/>
<stop offset="1" stop-color="#D2D2D2" stop-opacity="0"/>
</linearGradient>
<linearGradient id="paint29_linear_185_3664" x1="456.845" y1="175.802" x2="463.92" y2="179.749" gradientUnits="userSpaceOnUse">
<stop stop-color="#F7C6B8"/>
<stop offset="1" stop-color="#EE6D93"/>
</linearGradient>
<linearGradient id="paint30_linear_185_3664" x1="140.987" y1="405.856" x2="157.633" y2="416.434" gradientUnits="userSpaceOnUse">
<stop stop-color="#FC7B90"/>
<stop offset="1" stop-color="#A2163B"/>
</linearGradient>
<linearGradient id="paint31_linear_185_3664" x1="423.384" y1="236.575" x2="246.687" y2="236.575" gradientUnits="userSpaceOnUse">
<stop stop-color="#FB7A90"/>
<stop offset="0.8" stop-color="#A3183C" stop-opacity="0"/>
</linearGradient>
<linearGradient id="paint32_linear_185_3664" x1="484.464" y1="225.273" x2="504.97" y2="240.403" gradientUnits="userSpaceOnUse">
<stop stop-color="#EE6D93"/>
<stop offset="1" stop-color="#F7C6B8" stop-opacity="0"/>
</linearGradient>
<linearGradient id="paint33_linear_185_3664" x1="252.601" y1="189.149" x2="339.686" y2="189.149" gradientUnits="userSpaceOnUse">
<stop stop-color="#A3173C"/>
<stop offset="1" stop-color="#FD7C91" stop-opacity="0"/>
</linearGradient>
<linearGradient id="paint34_linear_185_3664" x1="315.402" y1="171.051" x2="295.79" y2="171.051" gradientUnits="userSpaceOnUse">
<stop stop-color="#FC7B90"/>
<stop offset="1" stop-color="#A2163B"/>
</linearGradient>
<linearGradient id="paint35_linear_185_3664" x1="161.078" y1="66.2995" x2="199.084" y2="87.66" gradientUnits="userSpaceOnUse">
<stop offset="0.00122196" stop-color="#F04E20" stop-opacity="0"/>
<stop offset="1" stop-color="#EE6D93"/>
</linearGradient>
<linearGradient id="paint36_linear_185_3664" x1="193.718" y1="47.5624" x2="231.724" y2="68.923" gradientUnits="userSpaceOnUse">
<stop offset="0.00122196" stop-color="#F7C6B8" stop-opacity="0"/>
<stop offset="1" stop-color="#EE6D93"/>
</linearGradient>
<linearGradient id="paint37_linear_185_3664" x1="239.267" y1="57.339" x2="232.069" y2="70.4302" gradientUnits="userSpaceOnUse">
<stop stop-color="#696969"/>
<stop offset="1" stop-color="#595959"/>
</linearGradient>
<linearGradient id="paint38_linear_185_3664" x1="244.838" y1="77.3686" x2="252.881" y2="81.8506" gradientUnits="userSpaceOnUse">
<stop stop-color="#FC7B90"/>
<stop offset="1" stop-color="#A2163B"/>
</linearGradient>
<linearGradient id="paint39_linear_185_3664" x1="206.84" y1="75.4374" x2="199.642" y2="88.5287" gradientUnits="userSpaceOnUse">
<stop stop-color="#6B6B6B"/>
<stop offset="1" stop-color="#656565"/>
</linearGradient>
<linearGradient id="paint40_linear_185_3664" x1="212.411" y1="95.4666" x2="220.445" y2="99.9487" gradientUnits="userSpaceOnUse">
<stop stop-color="#FC7B90"/>
<stop offset="1" stop-color="#A2163B"/>
</linearGradient>
<linearGradient id="paint41_linear_185_3664" x1="472.809" y1="231.742" x2="491.635" y2="230.749" gradientUnits="userSpaceOnUse">
<stop stop-color="#F7C6B8"/>
<stop offset="1" stop-color="#EE6D93"/>
</linearGradient>
<linearGradient id="paint42_linear_185_3664" x1="351.396" y1="126.864" x2="351.396" y2="142.685" gradientUnits="userSpaceOnUse">
<stop stop-color="#F7C6B8"/>
<stop offset="1" stop-color="#EE6D93"/>
</linearGradient>
<linearGradient id="paint43_linear_185_3664" x1="357.94" y1="126.863" x2="357.94" y2="142.685" gradientUnits="userSpaceOnUse">
<stop stop-color="#F7C6B8"/>
<stop offset="1" stop-color="#EE6D93"/>
</linearGradient>
<linearGradient id="paint44_linear_185_3664" x1="366.121" y1="126.864" x2="366.121" y2="142.685" gradientUnits="userSpaceOnUse">
<stop stop-color="#F7C6B8"/>
<stop offset="1" stop-color="#EE6D93"/>
</linearGradient>
<linearGradient id="paint45_linear_185_3664" x1="448.743" y1="126.864" x2="448.743" y2="142.685" gradientUnits="userSpaceOnUse">
<stop stop-color="#F7C6B8"/>
<stop offset="1" stop-color="#EE6D93"/>
</linearGradient>
<linearGradient id="paint46_linear_185_3664" x1="442.199" y1="126.864" x2="442.199" y2="142.685" gradientUnits="userSpaceOnUse">
<stop stop-color="#F7C6B8"/>
<stop offset="1" stop-color="#EE6D93"/>
</linearGradient>
<linearGradient id="paint47_linear_185_3664" x1="435.655" y1="126.864" x2="435.655" y2="142.685" gradientUnits="userSpaceOnUse">
<stop stop-color="#F7C6B8"/>
<stop offset="1" stop-color="#EE6D93"/>
</linearGradient>
<linearGradient id="paint48_linear_185_3664" x1="402.115" y1="143.111" x2="402.115" y2="117.443" gradientUnits="userSpaceOnUse">
<stop stop-color="#FD7C91"/>
<stop offset="1" stop-color="#A2173B"/>
</linearGradient>
<linearGradient id="paint49_linear_185_3664" x1="401.706" y1="119.617" x2="401.706" y2="103.018" gradientUnits="userSpaceOnUse">
<stop stop-color="#FF8594"/>
<stop offset="1" stop-color="#C4204A"/>
</linearGradient>
<linearGradient id="paint50_linear_185_3664" x1="401.706" y1="107.941" x2="401.706" y2="118.623" gradientUnits="userSpaceOnUse">
<stop stop-color="#FC7B90"/>
<stop offset="1" stop-color="#A2163B"/>
</linearGradient>
<linearGradient id="paint51_linear_185_3664" x1="384.926" y1="162.496" x2="418.116" y2="162.496" gradientUnits="userSpaceOnUse">
<stop stop-color="#FC7B90"/>
<stop offset="1" stop-color="#A2163B"/>
</linearGradient>
<linearGradient id="paint52_linear_185_3664" x1="395.621" y1="141.447" x2="408.6" y2="141.447" gradientUnits="userSpaceOnUse">
<stop stop-color="#FC7B90"/>
<stop offset="1" stop-color="#A2163B"/>
</linearGradient>
<linearGradient id="paint53_linear_185_3664" x1="355.895" y1="116.755" x2="353.441" y2="116.755" gradientUnits="userSpaceOnUse">
<stop stop-color="#F7C6B8"/>
<stop offset="1" stop-color="#EE6D93"/>
</linearGradient>
<linearGradient id="paint54_linear_185_3664" x1="359.985" y1="116.755" x2="357.531" y2="116.755" gradientUnits="userSpaceOnUse">
<stop stop-color="#F7C6B8"/>
<stop offset="1" stop-color="#EE6D93"/>
</linearGradient>
<linearGradient id="paint55_linear_185_3664" x1="364.076" y1="116.755" x2="361.621" y2="116.755" gradientUnits="userSpaceOnUse">
<stop stop-color="#F7C6B8"/>
<stop offset="1" stop-color="#EE6D93"/>
</linearGradient>
<linearGradient id="paint56_linear_185_3664" x1="156.243" y1="399.666" x2="169.397" y2="399.829" gradientUnits="userSpaceOnUse">
<stop stop-color="#FC7B90"/>
<stop offset="1" stop-color="#A2163B"/>
</linearGradient>
<linearGradient id="paint57_linear_185_3664" x1="165.291" y1="392.677" x2="171.457" y2="397.036" gradientUnits="userSpaceOnUse">
<stop stop-color="#FC7B90"/>
<stop offset="1" stop-color="#A2163B"/>
</linearGradient>
<linearGradient id="paint58_linear_185_3664" x1="163.745" y1="399.386" x2="172.268" y2="404.162" gradientUnits="userSpaceOnUse">
<stop stop-color="#FB7A90"/>
<stop offset="1" stop-color="#A3173B"/>
</linearGradient>
<linearGradient id="paint59_linear_185_3664" x1="158.378" y1="403.379" x2="165.217" y2="406.526" gradientUnits="userSpaceOnUse">
<stop stop-color="#FC7B90"/>
<stop offset="1" stop-color="#A2163B"/>
</linearGradient>
<linearGradient id="paint60_linear_185_3664" x1="155.319" y1="399.783" x2="159.261" y2="400.234" gradientUnits="userSpaceOnUse">
<stop stop-color="#FC7B90"/>
<stop offset="1" stop-color="#A2163B"/>
</linearGradient>
<linearGradient id="paint61_linear_185_3664" x1="142.32" y1="425.058" x2="149.723" y2="425.15" gradientUnits="userSpaceOnUse">
<stop stop-color="#FC7B90"/>
<stop offset="1" stop-color="#A2163B"/>
</linearGradient>
<linearGradient id="paint62_linear_185_3664" x1="147.408" y1="421.126" x2="150.878" y2="423.579" gradientUnits="userSpaceOnUse">
<stop stop-color="#FC7B90"/>
<stop offset="1" stop-color="#A2163B"/>
</linearGradient>
<linearGradient id="paint63_linear_185_3664" x1="146.541" y1="424.901" x2="151.336" y2="427.589" gradientUnits="userSpaceOnUse">
<stop stop-color="#FC7B90"/>
<stop offset="1" stop-color="#A2163B"/>
</linearGradient>
<linearGradient id="paint64_linear_185_3664" x1="143.523" y1="427.148" x2="147.37" y2="428.919" gradientUnits="userSpaceOnUse">
<stop stop-color="#FC7B90"/>
<stop offset="1" stop-color="#A2163B"/>
</linearGradient>
<linearGradient id="paint65_linear_185_3664" x1="141.797" y1="425.124" x2="144.013" y2="425.378" gradientUnits="userSpaceOnUse">
<stop stop-color="#F7C6B8"/>
<stop offset="1" stop-color="#EE6D93"/>
</linearGradient>
<linearGradient id="paint66_linear_185_3664" x1="163.786" y1="425.058" x2="171.189" y2="425.15" gradientUnits="userSpaceOnUse">
<stop stop-color="#F7C6B8"/>
<stop offset="1" stop-color="#EE6D93"/>
</linearGradient>
<linearGradient id="paint67_linear_185_3664" x1="168.874" y1="421.126" x2="172.343" y2="423.579" gradientUnits="userSpaceOnUse">
<stop stop-color="#F7C6B8"/>
<stop offset="1" stop-color="#EE6D93"/>
</linearGradient>
<linearGradient id="paint68_linear_185_3664" x1="168.007" y1="424.901" x2="172.801" y2="427.589" gradientUnits="userSpaceOnUse">
<stop stop-color="#F7C6B8"/>
<stop offset="1" stop-color="#EE6D93"/>
</linearGradient>
<linearGradient id="paint69_linear_185_3664" x1="164.988" y1="427.148" x2="168.836" y2="428.919" gradientUnits="userSpaceOnUse">
<stop stop-color="#F7C6B8"/>
<stop offset="1" stop-color="#EE6D93"/>
</linearGradient>
<linearGradient id="paint70_linear_185_3664" x1="163.262" y1="425.124" x2="165.479" y2="425.378" gradientUnits="userSpaceOnUse">
<stop stop-color="#F7C6B8"/>
<stop offset="1" stop-color="#EE6D93"/>
</linearGradient>
<linearGradient id="paint71_linear_185_3664" x1="154.574" y1="397.816" x2="149.666" y2="397.816" gradientUnits="userSpaceOnUse">
<stop stop-color="#FC7B90"/>
<stop offset="1" stop-color="#A2163B"/>
</linearGradient>
<linearGradient id="paint72_linear_185_3664" x1="159.196" y1="417.886" x2="154.288" y2="417.886" gradientUnits="userSpaceOnUse">
<stop stop-color="#FC7B90"/>
<stop offset="1" stop-color="#A2163B"/>
</linearGradient>
<linearGradient id="paint73_linear_185_3664" x1="182.887" y1="395.387" x2="179.615" y2="395.387" gradientUnits="userSpaceOnUse">
<stop stop-color="#F7C6B8"/>
<stop offset="1" stop-color="#EE6D93"/>
</linearGradient>
<linearGradient id="paint74_linear_185_3664" x1="148.316" y1="440.907" x2="145.044" y2="440.907" gradientUnits="userSpaceOnUse">
<stop stop-color="#F7C6B8"/>
<stop offset="1" stop-color="#EE6D93"/>
</linearGradient>
<linearGradient id="paint75_linear_185_3664" x1="195.96" y1="427.238" x2="192.687" y2="427.238" gradientUnits="userSpaceOnUse">
<stop stop-color="#F7C6B8"/>
<stop offset="1" stop-color="#EE6D93"/>
</linearGradient>
<linearGradient id="paint76_linear_185_3664" x1="632.85" y1="473.255" x2="632.85" y2="467.568" gradientUnits="userSpaceOnUse">
<stop stop-color="#F7C6B8"/>
<stop offset="1" stop-color="#EE6D93"/>
</linearGradient>
<linearGradient id="paint77_linear_185_3664" x1="489.02" y1="238.814" x2="489.02" y2="235.022" gradientUnits="userSpaceOnUse">
<stop stop-color="#F7C6B8"/>
<stop offset="1" stop-color="#EE6D93"/>
</linearGradient>
<linearGradient id="paint78_linear_185_3664" x1="305.596" y1="205.694" x2="305.596" y2="201.902" gradientUnits="userSpaceOnUse">
<stop stop-color="#FC7B90"/>
<stop offset="1" stop-color="#A2163B"/>
</linearGradient>
<linearGradient id="paint79_linear_185_3664" x1="335.035" y1="175.069" x2="335.035" y2="171.278" gradientUnits="userSpaceOnUse">
<stop stop-color="#F7C6B8"/>
<stop offset="1" stop-color="#EE6D93"/>
</linearGradient>
<linearGradient id="paint80_linear_185_3664" x1="322.764" y1="200.287" x2="322.764" y2="196.496" gradientUnits="userSpaceOnUse">
<stop stop-color="#FC7B90"/>
<stop offset="1" stop-color="#A2163B"/>
</linearGradient>
<linearGradient id="paint81_linear_185_3664" x1="346.488" y1="202.455" x2="346.488" y2="198.664" gradientUnits="userSpaceOnUse">
<stop stop-color="#F7C6B8"/>
<stop offset="1" stop-color="#EE6D93"/>
</linearGradient>
<linearGradient id="paint82_linear_185_3664" x1="320.31" y1="148.056" x2="320.31" y2="142.368" gradientUnits="userSpaceOnUse">
<stop stop-color="#F7C6B8"/>
<stop offset="1" stop-color="#EE6D93"/>
</linearGradient>
<linearGradient id="paint83_linear_185_3664" x1="315.402" y1="164.682" x2="315.402" y2="158.996" gradientUnits="userSpaceOnUse">
<stop stop-color="#F7C6B8"/>
<stop offset="1" stop-color="#EE6D93"/>
</linearGradient>
<linearGradient id="paint84_linear_185_3664" x1="501.999" y1="239.524" x2="501.999" y2="236.679" gradientUnits="userSpaceOnUse">
<stop stop-color="#F7C6B8"/>
<stop offset="1" stop-color="#EE6D93"/>
</linearGradient>
<linearGradient id="paint85_linear_185_3664" x1="494.715" y1="224.837" x2="494.715" y2="222.941" gradientUnits="userSpaceOnUse">
<stop stop-color="#F7C6B8"/>
<stop offset="1" stop-color="#EE6D93"/>
</linearGradient>
<linearGradient id="paint86_linear_185_3664" x1="498.742" y1="231.816" x2="498.742" y2="230.868" gradientUnits="userSpaceOnUse">
<stop stop-color="#F7C6B8"/>
<stop offset="1" stop-color="#EE6D93"/>
</linearGradient>
<linearGradient id="paint87_linear_185_3664" x1="502.168" y1="245.68" x2="502.168" y2="244.732" gradientUnits="userSpaceOnUse">
<stop stop-color="#F7C6B8"/>
<stop offset="1" stop-color="#EE6D93"/>
</linearGradient>
<linearGradient id="paint88_linear_185_3664" x1="656.608" y1="478.113" x2="656.608" y2="472.425" gradientUnits="userSpaceOnUse">
<stop stop-color="#FC7B90"/>
<stop offset="1" stop-color="#A2163B"/>
</linearGradient>
<linearGradient id="paint89_linear_185_3664" x1="641.52" y1="498.314" x2="641.52" y2="492.627" gradientUnits="userSpaceOnUse">
<stop stop-color="#FC7B90"/>
<stop offset="1" stop-color="#A2163B"/>
</linearGradient>
<linearGradient id="paint90_linear_185_3664" x1="665.983" y1="461.825" x2="665.983" y2="458.033" gradientUnits="userSpaceOnUse">
<stop stop-color="#FC7B90"/>
<stop offset="1" stop-color="#A2163B"/>
</linearGradient>
<linearGradient id="paint91_linear_185_3664" x1="613.209" y1="483.397" x2="613.209" y2="479.606" gradientUnits="userSpaceOnUse">
<stop stop-color="#FC7B90"/>
<stop offset="1" stop-color="#A2163B"/>
</linearGradient>
<linearGradient id="paint92_linear_185_3664" x1="626.297" y1="445.634" x2="626.297" y2="443.738" gradientUnits="userSpaceOnUse">
<stop stop-color="#FC7B90"/>
<stop offset="1" stop-color="#A2163B"/>
</linearGradient>
<linearGradient id="paint93_linear_185_3664" x1="645.893" y1="455.957" x2="645.893" y2="454.061" gradientUnits="userSpaceOnUse">
<stop stop-color="#F9788E"/>
<stop offset="1" stop-color="#A3173C"/>
</linearGradient>
<linearGradient id="paint94_linear_185_3664" x1="678.483" y1="448.202" x2="678.483" y2="446.307" gradientUnits="userSpaceOnUse">
<stop stop-color="#FD7C92"/>
<stop offset="1" stop-color="#A2173B"/>
</linearGradient>
<linearGradient id="paint95_linear_185_3664" x1="650.341" y1="428.273" x2="650.341" y2="426.377" gradientUnits="userSpaceOnUse">
<stop stop-color="#FD7C92"/>
<stop offset="1" stop-color="#A2163B"/>
</linearGradient>
<linearGradient id="paint96_linear_185_3664" x1="142.745" y1="399.514" x2="148.259" y2="409.965" gradientUnits="userSpaceOnUse">
<stop stop-color="#FC7B91"/>
<stop offset="1" stop-color="#A2163B"/>
</linearGradient>
<linearGradient id="paint97_linear_185_3664" x1="144.365" y1="411.941" x2="133.755" y2="411.941" gradientUnits="userSpaceOnUse">
<stop stop-color="#FD7D92"/>
<stop offset="1" stop-color="#A3173B"/>
</linearGradient>
<linearGradient id="paint98_linear_185_3664" x1="150.198" y1="411.835" x2="142.32" y2="411.835" gradientUnits="userSpaceOnUse">
<stop stop-color="#FD7C91"/>
<stop offset="1" stop-color="#A2173B"/>
</linearGradient>
<linearGradient id="paint99_linear_185_3664" x1="186.315" y1="406.916" x2="190.178" y2="414.244" gradientUnits="userSpaceOnUse">
<stop stop-color="#FD7C91"/>
<stop offset="1" stop-color="#A2173B"/>
</linearGradient>
<linearGradient id="paint100_linear_185_3664" x1="187.452" y1="415.63" x2="180.008" y2="415.63" gradientUnits="userSpaceOnUse">
<stop stop-color="#FC7B91"/>
<stop offset="1" stop-color="#A3173B"/>
</linearGradient>
<linearGradient id="paint101_linear_185_3664" x1="191.542" y1="415.556" x2="186.02" y2="415.556" gradientUnits="userSpaceOnUse">
<stop stop-color="#FB7A90"/>
<stop offset="1" stop-color="#A2163B"/>
</linearGradient>
<linearGradient id="paint102_linear_185_3664" x1="148.521" y1="354.244" x2="122.286" y2="354.244" gradientUnits="userSpaceOnUse">
<stop stop-color="#FD7C91"/>
<stop offset="1" stop-color="#A4193D"/>
</linearGradient>
<linearGradient id="paint103_linear_185_3664" x1="181.227" y1="361.889" x2="155" y2="361.889" gradientUnits="userSpaceOnUse">
<stop stop-color="#FE7D92"/>
<stop offset="1" stop-color="#A2163B"/>
</linearGradient>
<linearGradient id="paint104_linear_185_3664" x1="233.704" y1="361.754" x2="194.389" y2="361.754" gradientUnits="userSpaceOnUse">
<stop stop-color="#FC7B90"/>
<stop offset="1" stop-color="#A2163B"/>
</linearGradient>
<linearGradient id="paint105_linear_185_3664" x1="259.751" y1="361.889" x2="220.427" y2="361.889" gradientUnits="userSpaceOnUse">
<stop stop-color="#FC7B90"/>
<stop offset="1" stop-color="#A2163B"/>
</linearGradient>
<linearGradient id="paint106_linear_185_3664" x1="629.107" y1="390.609" x2="629.023" y2="337.986" gradientUnits="userSpaceOnUse">
<stop stop-color="#D6D6D6"/>
<stop offset="1" stop-color="white"/>
</linearGradient>
<linearGradient id="paint107_linear_185_3664" x1="623.93" y1="338.831" x2="581.172" y2="338.831" gradientUnits="userSpaceOnUse">
<stop stop-color="#EBEBEB"/>
<stop offset="1" stop-color="#A9A9A9"/>
</linearGradient>
<linearGradient id="paint108_linear_185_3664" x1="633.118" y1="401.524" x2="633.118" y2="259.582" gradientUnits="userSpaceOnUse">
<stop stop-color="white"/>
<stop offset="1" stop-color="white" stop-opacity="0"/>
</linearGradient>
<linearGradient id="paint109_linear_185_3664" x1="642.318" y1="372.168" x2="642.318" y2="274.726" gradientUnits="userSpaceOnUse">
<stop stop-color="white"/>
<stop offset="1" stop-color="white" stop-opacity="0"/>
</linearGradient>
<linearGradient id="paint110_linear_185_3664" x1="617.878" y1="381.602" x2="617.878" y2="272.951" gradientUnits="userSpaceOnUse">
<stop stop-color="white"/>
<stop offset="1" stop-color="white" stop-opacity="0"/>
</linearGradient>
<linearGradient id="paint111_linear_185_3664" x1="629.014" y1="330.568" x2="629.014" y2="350.589" gradientUnits="userSpaceOnUse">
<stop stop-color="#FC7B90"/>
<stop offset="1" stop-color="#A2163B"/>
</linearGradient>
<linearGradient id="paint112_linear_185_3664" x1="97.884" y1="220.155" x2="97.884" y2="144.202" gradientUnits="userSpaceOnUse">
<stop stop-color="#E4E7E6" stop-opacity="0"/>
<stop offset="1" stop-color="white"/>
</linearGradient>
<linearGradient id="paint113_linear_185_3664" x1="97.8592" y1="192.865" x2="97.8592" y2="107.713" gradientUnits="userSpaceOnUse">
<stop stop-color="#EEEEEE" stop-opacity="0"/>
<stop offset="1" stop-color="white"/>
</linearGradient>
<linearGradient id="paint114_linear_185_3664" x1="97.8838" y1="208.856" x2="97.8838" y2="163.975" gradientUnits="userSpaceOnUse">
<stop stop-color="white" stop-opacity="0"/>
<stop offset="1" stop-color="#E9E9E9"/>
</linearGradient>
<linearGradient id="paint115_linear_185_3664" x1="90.047" y1="80.6411" x2="119.576" y2="102.428" gradientUnits="userSpaceOnUse">
<stop stop-color="#EE6D93"/>
<stop offset="1" stop-color="#F7C6B8" stop-opacity="0"/>
</linearGradient>
<linearGradient id="paint116_linear_185_3664" x1="102.71" y1="88.769" x2="89.6624" y2="88.769" gradientUnits="userSpaceOnUse">
<stop stop-color="#FD7C91"/>
<stop offset="1" stop-color="#A3173B"/>
</linearGradient>
<linearGradient id="paint117_linear_185_3664" x1="634.615" y1="483.343" x2="614.901" y2="522.167" gradientUnits="userSpaceOnUse">
<stop stop-color="#FC7B90"/>
<stop offset="1" stop-color="#A2163B"/>
</linearGradient>
<linearGradient id="paint118_linear_185_3664" x1="658.183" y1="495.31" x2="638.469" y2="534.135" gradientUnits="userSpaceOnUse">
<stop stop-color="#FC7B90"/>
<stop offset="1" stop-color="#A2163B"/>
</linearGradient>
<linearGradient id="paint119_linear_185_3664" x1="638.633" y1="452.261" x2="628.196" y2="484.102" gradientUnits="userSpaceOnUse">
<stop stop-color="#FD7C92"/>
<stop offset="1" stop-color="#A2173B"/>
</linearGradient>
<linearGradient id="paint120_linear_185_3664" x1="668.192" y1="461.95" x2="657.755" y2="493.791" gradientUnits="userSpaceOnUse">
<stop stop-color="#FB7A90"/>
<stop offset="1" stop-color="#A2163B"/>
</linearGradient>
<clipPath id="clip0_185_3664">
<rect width="1498" height="542" fill="white" transform="matrix(-1 0 0 1 1498 0)"/>
</clipPath>
<clipPath id="clip1_185_3664">
<rect width="1106" height="540" fill="white" transform="matrix(-1 0 0 1 1104 5)"/>
</clipPath>
</defs>
</svg>
